STARTFONT 2.1
COMMENT
COMMENT Converted from OpenType font "FreeSerifItalic.ttf" by "otf2bdf 3.0".
COMMENT
FONT -FreeType-FreeSerif-Bold-I-Normal--50-120-300-300-P-263-ISO10646-1
SIZE 12 300 300
FONTBOUNDINGBOX 122 61 -44 -15
STARTPROPERTIES 19
FOUNDRY "FreeType"
FAMILY_NAME "FreeSerif"
WEIGHT_NAME "Bold"
SLANT "I"
SETWIDTH_NAME "Normal"
ADD_STYLE_NAME ""
PIXEL_SIZE 50
POINT_SIZE 120
RESOLUTION_X 300
RESOLUTION_Y 300
SPACING "P"
AVERAGE_WIDTH 263
CHARSET_REGISTRY "ISO10646"
CHARSET_ENCODING "1"
FONT_ASCENT 45
FONT_DESCENT 10
COPYRIGHT "Copyright 2002, 2003, 2005, 2008, 2009, 2010, 2012 GNU Freefont contributors."
_OTF_FONTFILE "FreeSerifItalic.ttf"
_OTF_PSNAME "FreeSerifItalic"
ENDPROPERTIES
CHARS 2776
STARTCHAR 0020
ENCODING 32
SWIDTH 260 0
DWIDTH 13 0
BBX 0 0 0 0
BITMAP
ENDCHAR
STARTCHAR 0021
ENCODING 33
SWIDTH 340 0
DWIDTH 17 0
BBX 13 33 2 0
BITMAP
0078
0078
00F8
00F8
00F8
00F0
01F0
01E0
01E0
01E0
01C0
03C0
0380
0380
0380
0300
0700
0600
0600
0600
0400
0C00
0C00
0800
0000
0000
0000
0000
7000
F800
F800
F800
7800
ENDCHAR
STARTCHAR 0022
ENCODING 34
SWIDTH 340 0
DWIDTH 17 0
BBX 14 12 7 22
BITMAP
381C
783C
783C
783C
7038
F078
E070
E070
C060
C060
C060
8040
ENDCHAR
STARTCHAR 0023
ENCODING 35
SWIDTH 500 0
DWIDTH 25 0
BBX 27 34 0 0
BITMAP
000701C0
000703C0
00070380
000E0380
000E0700
001E0700
001C0700
001C0E00
00380E00
00381E00
0FFFFFE0
0FFFFFE0
0FFFFFE0
00E03800
00E03800
00E07000
01C07000
01C0F000
01C0E000
0380E000
7FFFFE00
FFFFFE00
FFFFFE00
07038000
0E038000
0E078000
0E070000
1C070000
1C0E0000
3C0E0000
380E0000
381C0000
701C0000
701C0000
ENDCHAR
STARTCHAR 0024
ENCODING 36
SWIDTH 500 0
DWIDTH 25 0
BBX 23 41 2 -4
BITMAP
0000C0
000080
000180
000180
007FE0
01E17C
03831E
07830E
07030E
0F0206
0F0604
0F0604
0F0600
0F8400
07CC00
07EC00
03FC00
01FC00
00FE00
003F00
001F80
001FC0
0017E0
0033F0
0031F0
0020F8
002078
406078
406078
406078
C04070
E0C070
E0C0E0
F0C1E0
7883C0
1F9F00
07F800
018000
010000
030000
030000
ENDCHAR
STARTCHAR 0025
ENCODING 37
SWIDTH 840 0
DWIDTH 42 0
BBX 35 34 4 0
BITMAP
0000007000
01FC00E000
07CF03E000
0F01FCC000
1F0101C000
3E01018000
3C01038000
7C01030000
7801070000
F8010E0000
F0030C0000
F0021C0000
F006180000
F004380000
F00C300000
F018700400
7030603F80
3860E0F8C0
1FC0C1E060
0201C3C020
000187C020
0003078020
00030F0020
00060F0020
000E1F0060
000C1E0040
001C1E0040
00181E00C0
00381E0080
00301E0180
00700E0300
00600F0600
00E007FC00
00C003F000
ENDCHAR
STARTCHAR 0026
ENCODING 38
SWIDTH 780 0
DWIDTH 39 0
BBX 32 34 4 0
BITMAP
0000FE00
0001C780
00038380
00078380
00070380
00070380
000F0380
000F0700
000F0E00
000F1C00
000F7000
000FE000
000F8000
000F0000
003F8000
00FF81FF
03CF807C
07878078
0F07C070
1E07C070
3C03E0E0
7C03E0C0
7803F180
F801F380
F801FF00
F800FE00
F800FC00
FC007E00
FC007E00
7E00FF00
7F01DF81
3FFF0FE7
1FFE07FC
07F001F8
ENDCHAR
STARTCHAR 0027
ENCODING 39
SWIDTH 200 0
DWIDTH 10 0
BBX 5 12 7 22
BITMAP
38
78
78
78
70
70
E0
E0
C0
C0
C0
80
ENDCHAR
STARTCHAR 0028
ENCODING 40
SWIDTH 340 0
DWIDTH 17 0
BBX 13 42 2 -9
BITMAP
0008
0018
0030
0060
00C0
0180
0380
0700
0700
0E00
1E00
1E00
3C00
3C00
3C00
7800
7800
7800
F800
F000
F000
F000
F000
F000
F000
F000
E000
E000
E000
E000
E000
7000
7000
7000
3000
3000
3000
1000
1800
0800
0800
0400
ENDCHAR
STARTCHAR 0029
ENCODING 41
SWIDTH 340 0
DWIDTH 17 0
BBX 13 42 1 -9
BITMAP
0080
0080
00C0
0040
0060
0060
0070
0030
0030
0038
0038
0038
0038
0038
0038
0038
0038
0038
0038
0078
0078
0078
0078
0078
0078
00F0
00F0
00F0
01E0
01E0
01C0
03C0
0380
0700
0700
0E00
0C00
1800
3000
6000
4000
8000
ENDCHAR
STARTCHAR 002A
ENCODING 42
SWIDTH 500 0
DWIDTH 25 0
BBX 18 20 7 14
BITMAP
01C000
01E000
01E000
01C000
01C000
E0C3C0
F087C0
F88F80
1C9C00
03E000
01C000
06B000
3C9F00
F88FC0
F087C0
60C180
01C000
01C000
01E000
01C000
ENDCHAR
STARTCHAR 002B
ENCODING 43
SWIDTH 680 0
DWIDTH 34 0
BBX 23 25 5 0
BITMAP
003800
003800
003800
003800
003800
003800
003800
003800
003800
003800
003800
FFFFFE
FFFFFE
FFFFFE
003800
003800
003800
003800
003800
003800
003800
003800
003800
003800
003800
ENDCHAR
STARTCHAR 002C
ENCODING 44
SWIDTH 240 0
DWIDTH 12 0
BBX 7 11 0 -5
BITMAP
3C
3E
3E
1E
1E
0E
0C
18
30
60
C0
ENDCHAR
STARTCHAR 002D
ENCODING 45
SWIDTH 340 0
DWIDTH 17 0
BBX 11 3 2 10
BITMAP
7FE0
FFE0
FFE0
ENDCHAR
STARTCHAR 002E
ENCODING 46
SWIDTH 260 0
DWIDTH 13 0
BBX 5 5 1 0
BITMAP
70
F8
F8
F8
70
ENDCHAR
STARTCHAR 002F
ENCODING 47
SWIDTH 300 0
DWIDTH 15 0
BBX 22 35 0 -1
BITMAP
00001C
00003C
000038
000078
0000F0
0000F0
0001E0
0001C0
0003C0
000380
000780
000700
000F00
000E00
001E00
003C00
003C00
007800
007000
00F000
00E000
01E000
01C000
03C000
078000
078000
0F0000
0F0000
1E0000
1C0000
3C0000
380000
780000
700000
F00000
ENDCHAR
STARTCHAR 0030
ENCODING 48
SWIDTH 500 0
DWIDTH 25 0
BBX 23 33 2 0
BITMAP
001FE0
003870
00E038
01E038
03C01C
07801C
07801C
0F001E
0F001E
1E001E
1E001E
3E001E
3C001E
7C003E
7C003E
7C003E
78003E
F8003C
F8007C
F8007C
F00078
F00078
F000F8
F000F0
F000F0
F001E0
F001E0
7003C0
700780
380700
380E00
1C3C00
0FF000
ENDCHAR
STARTCHAR 0031
ENCODING 49
SWIDTH 500 0
DWIDTH 25 0
BBX 18 34 2 0
BITMAP
0000C0
001FC0
007FC0
0007C0
000780
000780
000780
000780
000F00
000F00
000F00
001F00
001E00
001E00
001E00
003C00
003C00
003C00
007C00
007800
007800
007800
00F800
00F000
00F000
01F000
01E000
01E000
01E000
03E000
03C000
03C000
0FE000
FFFC00
ENDCHAR
STARTCHAR 0032
ENCODING 50
SWIDTH 500 0
DWIDTH 25 0
BBX 22 33 0 0
BITMAP
003FC0
00FFE0
01FFF0
0383F8
0600FC
04007C
0C007C
08003C
00003C
00003C
00003C
000038
000078
000070
0000F0
0001E0
0001C0
000380
000700
000E00
001C00
003800
007000
00E000
00C000
018000
030000
060010
0C0030
1801E0
3FFFE0
7FFFE0
FFFFC0
ENDCHAR
STARTCHAR 0033
ENCODING 51
SWIDTH 500 0
DWIDTH 25 0
BBX 23 34 0 0
BITMAP
0007E0
001FF8
0030FC
00403E
00801E
00001E
00001E
00001E
00001E
00003C
00003C
0000F0
0001C0
000700
007F00
01FFC0
001FC0
0007E0
0003E0
0001F0
0001F0
0000F0
0000F0
0000F0
0000F0
0000E0
0000E0
0000E0
0001C0
000180
780300
FE0600
7FBC00
7FF000
ENDCHAR
STARTCHAR 0034
ENCODING 52
SWIDTH 500 0
DWIDTH 25 0
BBX 24 34 0 0
BITMAP
000007
000006
00000E
00001E
00003E
00007C
0000FC
0001BC
00033C
000638
000C78
001878
003070
0060F0
00C0F0
0180F0
0300E0
0601E0
0C01E0
1801E0
3003C0
7003C0
7FFFFE
7FFFFC
FFFFFC
000780
000780
000700
000F00
000F00
000F00
001E00
001E00
001E00
ENDCHAR
STARTCHAR 0035
ENCODING 53
SWIDTH 500 0
DWIDTH 25 0
BBX 23 34 1 0
BITMAP
000FFE
001FFE
001FFE
003FFE
002000
002000
004000
004000
00C000
00F800
01FE00
01FF80
00FFC0
000FC0
0003E0
0001F0
0000F0
0000F0
0000F0
000070
000070
000070
000070
000070
000070
0000E0
0000E0
0000C0
0001C0
000380
200700
FC0E00
FFF800
7FE000
ENDCHAR
STARTCHAR 0036
ENCODING 54
SWIDTH 500 0
DWIDTH 25 0
BBX 24 35 2 0
BITMAP
000007
00007C
0001E0
0007C0
001F00
003E00
007C00
00F800
01F000
03E000
07C000
0F8000
0FBF00
1FFFC0
3F83E0
3F01F0
3E00F0
7C00F8
7C0078
780078
F80078
F80078
F00078
F00078
F000F8
F000F8
F000F8
F000F0
F001F0
7001E0
7003C0
3803C0
380780
1C1E00
07FC00
ENDCHAR
STARTCHAR 0037
ENCODING 55
SWIDTH 500 0
DWIDTH 25 0
BBX 23 34 4 0
BITMAP
0FFFFE
1FFFFE
1FFFFC
3FFFF8
700038
400070
800070
8000E0
0000E0
0001C0
000380
000380
000700
000700
000E00
001C00
001C00
003800
003800
007000
00F000
00E000
01C000
01C000
038000
078000
070000
0F0000
0E0000
1C0000
3C0000
380000
780000
700000
ENDCHAR
STARTCHAR 0038
ENCODING 56
SWIDTH 500 0
DWIDTH 25 0
BBX 22 34 2 0
BITMAP
003FC0
00E0E0
01C078
03C038
03801C
07801C
07801C
07801C
07801C
07C03C
03C038
03E070
01F0E0
01FB80
00FE00
007E00
00FF00
039F00
0E0F80
1C07C0
3803E0
7803E0
7001E0
F000F0
F000F0
E000F0
E000F0
E000F0
F000E0
7001E0
7001C0
380380
1C0700
07FC00
ENDCHAR
STARTCHAR 0039
ENCODING 57
SWIDTH 500 0
DWIDTH 25 0
BBX 24 35 1 -1
BITMAP
003FC0
007070
01E038
03C01C
07801C
07000E
0F000E
1F000E
1E000F
1E000F
3E000F
3E000F
3C000F
3C001F
3C001E
3E001E
3E003E
1E003E
1F007C
1F00FC
0FE7F8
07FEF8
01F8F0
0001F0
0003E0
0003C0
000780
000F00
001E00
003C00
00F800
01E000
078000
3E0000
E00000
ENDCHAR
STARTCHAR 003A
ENCODING 58
SWIDTH 260 0
DWIDTH 13 0
BBX 9 21 3 1
BITMAP
0780
0F80
0F80
0F80
0700
0000
0000
0000
0000
0000
0000
0000
0000
0000
0000
0000
7000
F800
F800
F800
7000
ENDCHAR
STARTCHAR 003B
ENCODING 59
SWIDTH 260 0
DWIDTH 13 0
BBX 11 27 1 -5
BITMAP
01E0
03E0
03E0
03E0
01C0
0000
0000
0000
0000
0000
0000
0000
0000
0000
0000
0000
1C00
3E00
3E00
3E00
1E00
0E00
0C00
0C00
1800
3000
C000
ENDCHAR
STARTCHAR 003C
ENCODING 60
SWIDTH 560 0
DWIDTH 28 0
BBX 25 26 3 0
BITMAP
00000080
00000380
00000F80
00003F80
0000FF00
0007F800
001FE000
007F8000
01FE0000
07F80000
3FC00000
FF000000
FC000000
F0000000
FE000000
7F800000
1FE00000
07F80000
01FE0000
003FC000
000FF000
0003FC00
0000FF00
00003F80
00000780
00000180
ENDCHAR
STARTCHAR 003D
ENCODING 61
SWIDTH 660 0
DWIDTH 33 0
BBX 26 13 4 6
BITMAP
FFFFFFC0
FFFFFFC0
FFFFFFC0
00000000
00000000
00000000
00000000
00000000
00000000
00000000
FFFFFFC0
FFFFFFC0
FFFFFFC0
ENDCHAR
STARTCHAR 003E
ENCODING 62
SWIDTH 560 0
DWIDTH 28 0
BBX 26 26 3 0
BITMAP
80000000
E0000000
F8000000
FE000000
3FC00000
0FF00000
03FC0000
00FF0000
001FE000
0007F800
0001FE00
00007F80
00001FC0
000007C0
00001FC0
0000FF00
0003FC00
000FF000
003FC000
00FF0000
07F80000
1FE00000
7F800000
FE000000
F8000000
C0000000
ENDCHAR
STARTCHAR 003F
ENCODING 63
SWIDTH 440 0
DWIDTH 22 0
BBX 18 33 6 1
BITMAP
03FC00
0E0700
1C0780
1C0380
1C03C0
1C03C0
0803C0
0003C0
000780
000F80
000F00
001E00
003C00
007800
00F000
01C000
018000
030000
060000
040000
0C0000
080000
080000
100000
000000
000000
000000
000000
300000
F80000
F80000
F80000
780000
ENDCHAR
STARTCHAR 0040
ENCODING 64
SWIDTH 780 0
DWIDTH 39 0
BBX 35 34 3 0
BITMAP
000FFF8000
003E03E000
00F0007800
01E0001C00
0780000E00
0F00000700
0F00000380
1E00000180
3C003E70C0
3C00FFF0C0
7801E3F0E0
7803C1E060
F80781E060
F00701E060
F00F01E060
F00E01C060
F01E01C060
F01E03C060
F01E0380C0
F01E0380C0
F01E078180
781E0F8180
781E0B8300
780FF38600
3C07E1FC00
3E01006000
1E00000000
0F00000000
0780000000
03E0000000
01F0001800
007E00F800
001FFFE000
0003FE0000
ENDCHAR
STARTCHAR 0041
ENCODING 65
SWIDTH 660 0
DWIDTH 33 0
BBX 31 33 0 0
BITMAP
00000C00
00000C00
00001E00
00001E00
00003E00
00003E00
00007E00
0000DE00
0000DF00
00019F00
00019F00
00031F00
00061F00
00060F00
000C0F80
000C0F80
00180F80
00380F80
00300F80
00600780
007FFFC0
00FFFFC0
01C007C0
018007C0
038007C0
030003C0
070003E0
0E0003E0
0E0003E0
1C0003E0
3C0003F0
7E0007F0
FF803FFE
ENDCHAR
STARTCHAR 0042
ENCODING 66
SWIDTH 600 0
DWIDTH 30 0
BBX 29 33 0 0
BITMAP
01FFFF00
003FFFC0
001F03E0
001F01F0
001F00F8
003E00F8
003E00F8
003E00F8
003C00F8
007C00F8
007C01F0
007C01F0
00F803E0
00F80F80
00FFFE00
00FFFC00
01F03F00
01F00F80
01F007C0
01E007C0
03E003E0
03E003E0
03E003E0
07C003E0
07C003E0
07C003E0
078007C0
0F8007C0
0F800F80
0F801F00
1F807E00
3FFFF800
FFFFC000
ENDCHAR
STARTCHAR 0043
ENCODING 67
SWIDTH 620 0
DWIDTH 31 0
BBX 32 35 2 -1
BITMAP
00000800
0001FFE3
000FF3FF
003F007E
007C001E
00F8001E
01F0000E
03E0000E
07C00004
0F800004
1F000004
1F000000
3E000000
3E000000
7E000000
7C000000
7C000000
FC000000
F8000000
F8000000
F8000000
F8000000
F8000000
F8000000
F8000000
F8000000
7C000000
7C000020
7C0000C0
3E000180
1F000300
0F800E00
07F07C00
03FFF000
007F8000
ENDCHAR
STARTCHAR 0044
ENCODING 68
SWIDTH 700 0
DWIDTH 35 0
BBX 35 33 0 0
BITMAP
01FFFF8000
003FFFF000
001F00FC00
001F003E00
001F001F00
003E000F80
003E000780
003E0007C0
003E0007C0
007C0003E0
007C0003E0
007C0003E0
00F80003E0
00F80003E0
00F80003E0
00F80003E0
01F00003E0
01F00007E0
01F00007C0
01F00007C0
03E00007C0
03E0000F80
03E0000F80
07C0001F00
07C0003F00
07C0003E00
07C0007C00
0F8000F800
0F8003F000
0F8007C000
1F803F0000
3FFFFC0000
FFFFC00000
ENDCHAR
STARTCHAR 0045
ENCODING 69
SWIDTH 580 0
DWIDTH 29 0
BBX 31 33 0 0
BITMAP
01FFFFFE
003FFFFE
001F000E
001F0006
001F0004
003E0004
003E0004
003E0000
003C0000
007C0000
007C0080
007C0100
00F80300
00F80700
00FFFE00
00FFFE00
01F01E00
01F00C00
01F00C00
01E00C00
03E00800
03E00000
03E00000
07C00000
07C00000
07C00010
07800030
0F800070
0F8000E0
0F8001E0
1F8007E0
3FFFFFC0
FFFFFFC0
ENDCHAR
STARTCHAR 0046
ENCODING 70
SWIDTH 580 0
DWIDTH 29 0
BBX 31 33 0 0
BITMAP
01FFFFFE
003FFFFE
001F001E
001F0006
001F0004
003E0004
003E0004
003E0004
003E0000
007C0000
007C0080
007C0180
00F80100
00F80300
00F80700
00FFFE00
01FFFE00
01F00E00
01F00C00
01F00C00
03E00C00
03E00800
03E00000
07C00000
07C00000
07C00000
07C00000
0F800000
0F800000
0F800000
1F800000
3FC00000
FFF80000
ENDCHAR
STARTCHAR 0047
ENCODING 71
SWIDTH 680 0
DWIDTH 34 0
BBX 33 34 2 0
BITMAP
0003FFE080
000FC0FF80
003E003F80
0078001F80
00F0000F00
01E0000700
03C0000700
07C0000300
0F80000200
1F00000200
1F00000000
3E00000000
3E00000000
7E00000000
7C00000000
7C00000000
FC00000000
FC000FFF80
F80001FC00
F80000F800
F80000F800
F80000F000
F80000F000
F80000F000
F80001F000
7C0001E000
7C0001E000
3C0003E000
3E0003E000
1F0003C000
0F8007C000
07E01F8000
01FFFC0000
003FE00000
ENDCHAR
STARTCHAR 0048
ENCODING 72
SWIDTH 700 0
DWIDTH 35 0
BBX 39 33 0 0
BITMAP
01FFF03FFE
007FC007F8
001F0003E0
001F0003E0
001E0003E0
003E0003C0
003E0007C0
003E0007C0
003C0007C0
007C000F80
007C000F80
007C000F80
00F8000F00
00F8001F00
00F8001F00
00FFFFFF00
01FFFFFE00
01F0003E00
01F0003E00
01E0003E00
03E0007C00
03E0007C00
03E0007C00
07C0007800
07C000F800
07C000F800
078000F800
0F8001F000
0F8001F000
0F8001F000
1F8003F000
3FC007F800
FFF03FFF00
ENDCHAR
STARTCHAR 0049
ENCODING 73
SWIDTH 320 0
DWIDTH 16 0
BBX 20 33 0 0
BITMAP
01FFF0
003FC0
001F00
001F00
001F00
003E00
003E00
003E00
003C00
007C00
007C00
007C00
00F800
00F800
00F800
00F800
01F000
01F000
01F000
01E000
03E000
03E000
03E000
07C000
07C000
07C000
078000
0F8000
0F8000
0F8000
1F8000
3FC000
FFF000
ENDCHAR
STARTCHAR 004A
ENCODING 74
SWIDTH 420 0
DWIDTH 21 0
BBX 25 34 0 -1
BITMAP
000FFF80
0001FE00
0000F800
0000F800
0000F800
0000F000
0001F000
0001F000
0001F000
0001E000
0003E000
0003E000
0003C000
0007C000
0007C000
0007C000
00078000
000F8000
000F8000
000F8000
001F0000
001F0000
001F0000
001E0000
003E0000
003E0000
003C0000
207C0000
F87C0000
F8780000
F8780000
F8F00000
7FE00000
1F800000
ENDCHAR
STARTCHAR 004B
ENCODING 75
SWIDTH 640 0
DWIDTH 32 0
BBX 36 33 0 0
BITMAP
01FFF0FFF0
007FC01FC0
001F801F00
001F001E00
001E003C00
003E007000
003E00E000
003E01C000
003C070000
007C0E0000
007C3C0000
007C700000
0078E00000
00FBC00000
00FF800000
00FFC00000
01F7C00000
01F3E00000
01F3E00000
01E1F00000
03E1F80000
03E0F80000
03E07C0000
07C07C0000
07C03E0000
07C03E0000
07801F0000
0F801F8000
0F800F8000
0F800FC000
1F800FC000
3FC00FF000
FFF07FFC00
ENDCHAR
STARTCHAR 004C
ENCODING 76
SWIDTH 560 0
DWIDTH 28 0
BBX 28 33 0 0
BITMAP
01FFF800
007FC000
001F8000
001F0000
001F0000
003E0000
003E0000
003E0000
003C0000
007C0000
007C0000
007C0000
00F80000
00F80000
00F80000
00F80000
01F00000
01F00000
01F00000
01E00000
03E00000
03E00000
03E00000
07C00000
07C00010
07C00030
07800060
0F800060
0F8000E0
0F8001C0
1F800FC0
3FFFFFC0
FFFFFF80
ENDCHAR
STARTCHAR 004D
ENCODING 77
SWIDTH 820 0
DWIDTH 41 0
BBX 44 33 0 0
BITMAP
00FF80000FF0
003F80001FC0
001F80003F80
001F80003F80
001F80007F00
001F8000FF00
00378000DF00
00378001DF00
0037C003BE00
0027C0033E00
0067C0073E00
0067C00E3E00
0067C00C7C00
00C3C01C7C00
00C3C0387C00
00C3C0307800
00C3C070F800
0183E0E0F800
0183E0C0F800
0183E1C1F000
0303E381F000
0303E301F000
0301E701E000
0301EE03E000
0601EC03E000
0601FC03E000
0601F803C000
0E01F007C000
0C01F007C000
0C01E007C000
1C01C00FC000
3E00C01FE000
FFC080FFFC00
ENDCHAR
STARTCHAR 004E
ENCODING 78
SWIDTH 680 0
DWIDTH 34 0
BBX 37 34 0 -1
BITMAP
01FE001FF8
007E0007F0
003F0003C0
001F0001C0
001F8003C0
001F800380
003F800380
0037C00380
0037C00700
0063E00700
0063E00700
0063E00600
0041F00E00
00C1F00E00
00C0F80E00
00C0F80C00
0180781C00
01807C1C00
01807C1800
01803E3800
03003E3800
03001E3800
03001F3000
02000F7000
06000FF000
06000FE000
060007E000
0C0007E000
0C0003E000
1C0003C000
1C0001C000
3E0001C000
FFC0018000
0000008000
ENDCHAR
STARTCHAR 004F
ENCODING 79
SWIDTH 660 0
DWIDTH 33 0
BBX 32 34 2 0
BITMAP
0000FFC0
0007C1E0
000E00F8
003C0078
0078003C
00F0003E
01E0001E
03C0001F
07C0001F
0F80001F
0F80001F
1F00001F
3F00001F
3E00003F
7E00003F
7E00003F
7C00003E
7C00007E
FC00007E
FC00007C
F80000FC
F80000F8
F80000F8
F80001F0
F80003E0
F80003E0
780007C0
7C000F80
3C000F00
3C003E00
1E007C00
0F00F000
07FFC000
01FE0000
ENDCHAR
STARTCHAR 0050
ENCODING 80
SWIDTH 560 0
DWIDTH 28 0
BBX 30 33 0 0
BITMAP
01FFFF00
007FFFE0
001F01F0
001F00F8
001F00F8
003E007C
003E007C
003E007C
003C007C
007C007C
007C007C
007C00F8
00F800F8
00F801F0
00F803E0
00F01FC0
01FFFF00
01F7F800
01F00000
01E00000
03E00000
03E00000
03E00000
07C00000
07C00000
07C00000
07800000
0F800000
0F800000
0F800000
1F800000
3FC00000
FFF00000
ENDCHAR
STARTCHAR 0051
ENCODING 81
SWIDTH 660 0
DWIDTH 33 0
BBX 32 42 2 -8
BITMAP
0000FFC0
0007C1E0
000E0078
003C0078
0078003C
00F0001E
01E0001E
03C0001F
07C0001F
0F80001F
1F80001F
1F00001F
3F00001F
3E00003F
7E00003F
7E00003F
7C00003E
FC00007E
FC00007E
FC00007C
F80000FC
F80000F8
F80001F8
F80001F0
F80003E0
F80003E0
780007C0
7C000F80
3C001F00
3E003C00
1E007800
0F83E000
03FF8000
00700000
01C00000
03800004
07C0000C
0FFE0038
1FFFFBF0
7FFFFFC0
C03FFF00
0003FC00
ENDCHAR
STARTCHAR 0052
ENCODING 82
SWIDTH 620 0
DWIDTH 31 0
BBX 30 33 0 0
BITMAP
01FFFF00
003FFFE0
001F01F0
001F00F8
001F007C
003E007C
003E007C
003E007C
003C007C
007C007C
007C00F8
007C00F8
00F801F0
00F807E0
00FFFF80
00FFFC00
01F0F800
01F0F800
01F0F800
01E07C00
03E07C00
03E07C00
03E03E00
07C03E00
07C01F00
07C01F00
07801F00
0F800F80
0F800F80
0F800F80
1F8007C0
3FC007E0
FFF007F8
ENDCHAR
STARTCHAR 0053
ENCODING 83
SWIDTH 460 0
DWIDTH 23 0
BBX 25 35 0 -1
BITMAP
00000080
003FF180
00783F80
00F00F00
01E00700
01E00700
03C00700
03C00300
03C00200
03E00200
03E00000
03F00000
01F80000
01F80000
00FC0000
007E0000
003F0000
001F8000
000FC000
000FE000
0007E000
0003F000
0001F000
0001F000
2000F000
2000F000
2000F000
6000F000
6000F000
7001E000
7801E000
7803C000
7E078000
EFFF0000
81FC0000
ENDCHAR
STARTCHAR 0054
ENCODING 84
SWIDTH 580 0
DWIDTH 29 0
BBX 28 33 5 0
BITMAP
3FFFFFF0
3FFFFFF0
780F80E0
700F8060
600F8060
401F0060
C01F0040
801F0040
001F0000
003E0000
003E0000
003E0000
003E0000
007C0000
007C0000
007C0000
00F80000
00F80000
00F80000
00F80000
01F00000
01F00000
01F00000
03E00000
03E00000
03E00000
03E00000
07C00000
07C00000
07C00000
0FC00000
1FE00000
FFFC0000
ENDCHAR
STARTCHAR 0055
ENCODING 85
SWIDTH 700 0
DWIDTH 35 0
BBX 33 34 6 -1
BITMAP
7FFE01FF80
0FF8007E00
07E0003C00
07C0003800
07C0003800
0FC0003800
0F80003000
0F80003000
0F80007000
1F80006000
1F00006000
1F0000E000
3F0000C000
3E0000C000
3E0000C000
3E0001C000
7E00018000
7C00018000
7C00038000
7C00030000
7C00030000
F800030000
F800060000
F800060000
F800060000
F8000C0000
F8000C0000
F8001C0000
7800380000
7C00700000
3E00E00000
1F83C00000
0FFF800000
01FC000000
ENDCHAR
STARTCHAR 0056
ENCODING 86
SWIDTH 660 0
DWIDTH 33 0
BBX 31 34 6 -1
BITMAP
FFF803FE
3FC000FC
1F800078
1F800070
0F800060
0F8000E0
0F8000C0
0F8001C0
0F800380
0FC00300
07C00700
07C00600
07C00E00
07C00C00
07C01800
07C03800
03E03000
03E07000
03E06000
03E0C000
03E0C000
03E18000
01E38000
01F30000
01F60000
01F60000
01FC0000
01F80000
00F80000
00F00000
00F00000
00E00000
00C00000
00C00000
ENDCHAR
STARTCHAR 0057
ENCODING 87
SWIDTH 880 0
DWIDTH 44 0
BBX 42 34 6 -1
BITMAP
FFF1FFE07FC0
3FC03F801F80
1F801F000F00
0F801F000E00
0F801F000E00
0F801F000C00
0F801F001C00
0F801F001800
0F801F003800
07803F003000
07803F807000
07C06F806000
07C06F80E000
07C0CF80C000
07C0CF818000
07C08F818000
07C18F830000
07C10F830000
03C307860000
03C207860000
03E607CC0000
03E607CC0000
03EC07D80000
03EC07D80000
03F807F00000
03F807F00000
01F007E00000
01F003E00000
01E003C00000
01E003C00000
01C003800000
01C003800000
018003000000
018003000000
ENDCHAR
STARTCHAR 0058
ENCODING 88
SWIDTH 660 0
DWIDTH 33 0
BBX 34 33 0 0
BITMAP
07FFC0FFC0
00FF003F80
007E001E00
003E001C00
003E003800
003F007000
001F00E000
001F00C000
000F81C000
000F838000
000FC70000
0007CE0000
0007DC0000
0003F80000
0003F00000
0003F00000
0001F00000
0001F00000
0003F80000
0007F80000
000E7C0000
001C7C0000
00187C0000
00303E0000
00703E0000
00E01E0000
01C01F0000
03801F0000
07000F8000
0F000F8000
1E000FC000
7F001FE000
FFE0FFFC00
ENDCHAR
STARTCHAR 0059
ENCODING 89
SWIDTH 600 0
DWIDTH 30 0
BBX 27 33 6 0
BITMAP
FFF03FE0
3FC00FC0
1F800780
0F800700
0F800E00
0F800E00
07801C00
07C03800
07C03000
03C06000
03C0E000
03E1C000
03E38000
01E30000
01F60000
01FE0000
00FC0000
00F80000
00F80000
01F00000
01F00000
01F00000
01E00000
03E00000
03E00000
03E00000
07C00000
07C00000
07C00000
0FC00000
0FC00000
3FC00000
FFFC0000
ENDCHAR
STARTCHAR 005A
ENCODING 90
SWIDTH 560 0
DWIDTH 28 0
BBX 31 33 0 0
BITMAP
03FFFFFE
03FFFFFC
03C001F8
070001F0
060003F0
040007E0
0C000FC0
08000F80
00001F00
00003F00
00007E00
0000FC00
0000F800
0001F800
0003F000
0007E000
000FC000
000F8000
001F8000
003F0000
007E0000
00FC0000
00F80000
01F80000
03F00010
07E00030
07C00020
0F800060
1F8000E0
3F0001C0
7E0007C0
7FFFFFC0
FFFFFF80
ENDCHAR
STARTCHAR 005B
ENCODING 91
SWIDTH 380 0
DWIDTH 19 0
BBX 19 42 1 -8
BITMAP
003FE0
003FC0
003800
007800
007800
007000
007000
00F000
00F000
00E000
00E000
01E000
01E000
01C000
01C000
03C000
03C000
03C000
038000
078000
078000
078000
070000
0F0000
0F0000
0F0000
0E0000
0E0000
1E0000
1E0000
1C0000
1C0000
3C0000
3C0000
380000
380000
780000
780000
700000
700000
FC0000
FF8000
ENDCHAR
STARTCHAR 005C
ENCODING 92
SWIDTH 480 0
DWIDTH 24 0
BBX 18 35 5 -1
BITMAP
F00000
700000
780000
380000
3C0000
1C0000
1E0000
1E0000
0E0000
0F0000
070000
078000
078000
038000
03C000
01C000
01E000
00E000
00F000
00F000
007000
007800
003800
003C00
001C00
001C00
001E00
000E00
000F00
000700
000780
000780
000380
0003C0
0001C0
ENDCHAR
STARTCHAR 005D
ENCODING 93
SWIDTH 380 0
DWIDTH 19 0
BBX 18 42 1 -8
BITMAP
007FC0
00FFC0
000780
000380
000780
000780
000780
000700
000F00
000F00
000F00
000E00
000E00
001E00
001E00
001C00
001C00
003C00
003C00
003C00
003800
007800
007800
007800
007000
007000
00F000
00F000
00E000
00E000
01E000
01E000
01C000
01C000
03C000
03C000
03C000
038000
038000
078000
0F8000
FF0000
ENDCHAR
STARTCHAR 005E
ENCODING 94
SWIDTH 420 0
DWIDTH 21 0
BBX 21 19 0 15
BITMAP
007000
007800
00F800
00FC00
01DC00
01DE00
038E00
038F00
070700
070780
0F0380
0E0380
1E01C0
1C01C0
3C00E0
3800E0
780070
700070
F00038
ENDCHAR
STARTCHAR 005F
ENCODING 95
SWIDTH 500 0
DWIDTH 25 0
BBX 25 2 0 -6
BITMAP
FFFFFF80
FFFFFF80
ENDCHAR
STARTCHAR 0060
ENCODING 96
SWIDTH 240 0
DWIDTH 12 0
BBX 8 8 7 26
BITMAP
F0
F8
F8
7C
3C
1E
06
03
ENDCHAR
STARTCHAR 0061
ENCODING 97
SWIDTH 500 0
DWIDTH 25 0
BBX 23 21 1 0
BITMAP
003F9C
00F05C
01C07C
038078
078078
0F0078
1E0070
1E0070
3C00F0
3C00F0
7800E0
7801E0
F801E0
F003E0
F007C0
F005C0
F00BC6
F813CC
FC63D8
7FC3F0
3F83E0
ENDCHAR
STARTCHAR 0062
ENCODING 98
SWIDTH 480 0
DWIDTH 24 0
BBX 23 34 1 0
BITMAP
07F000
07F000
00F000
00F000
00E000
01E000
01E000
01E000
01C000
03C000
03C000
038000
078000
0787F8
078FFC
07187E
0F203E
0F401E
0F801E
0F801E
1F001E
1E001E
1E003E
3E003C
3C007C
3C0078
3800F0
7800F0
7801E0
7803C0
780780
F80E00
783C00
3FF000
ENDCHAR
STARTCHAR 0063
ENCODING 99
SWIDTH 400 0
DWIDTH 20 0
BBX 20 21 1 1
BITMAP
007FC0
01E0E0
0380E0
0700F0
0E00E0
1E0000
3C0000
3C0000
780000
780000
F80000
F80000
F00000
F00000
F00000
F00000
F80100
780300
7C0600
3F3800
1FF000
ENDCHAR
STARTCHAR 0064
ENCODING 100
SWIDTH 500 0
DWIDTH 25 0
BBX 25 34 1 0
BITMAP
00003F80
00003F80
00000700
00000700
00000F00
00000F00
00000E00
00000E00
00001E00
00001E00
00001C00
00001C00
00003C00
003FBC00
00F0B800
01C0F800
0380F800
0780F000
0F00F000
1E00F000
1E00F000
3C00E000
3C01E000
7801E000
7801C000
F803C000
F803C000
F007C000
F00B8000
F00F8400
F8178800
F8679000
7FC7E000
3F87C000
ENDCHAR
STARTCHAR 0065
ENCODING 101
SWIDTH 400 0
DWIDTH 20 0
BBX 19 21 1 1
BITMAP
001FC0
0070E0
01C0E0
0380E0
0780E0
0F01E0
1E03C0
3E0780
3C0F00
7C3C00
79F000
FF0000
F80000
F80000
F00000
F00000
F80180
F80300
7C0E00
3FF800
1FE000
ENDCHAR
STARTCHAR 0066
ENCODING 102
SWIDTH 420 0
DWIDTH 21 0
BBX 28 44 -4 -10
BITMAP
000007E0
00000C70
00001870
00003870
00007070
00007000
0000E000
0000E000
0000E000
0001E000
0001C000
0001C000
0003C000
007FFE00
007FFE00
00038000
00078000
00078000
00078000
00078000
00070000
000F0000
000F0000
000F0000
000E0000
001E0000
001E0000
001E0000
001E0000
001C0000
003C0000
003C0000
003C0000
00380000
00380000
00780000
00700000
00700000
00600000
00E00000
E0C00000
E1800000
E3800000
7E000000
ENDCHAR
STARTCHAR 0067
ENCODING 103
SWIDTH 440 0
DWIDTH 22 0
BBX 23 31 -1 -9
BITMAP
007FE0
00F0FE
03C07E
07C078
078078
0F0078
0F0078
0F00F8
0F00F0
0F00F0
0F01E0
0703C0
038780
00FE00
030000
070000
0F0000
0FE000
0FFC00
07FF00
087FC0
300FC0
7003E0
E001E0
E000E0
E000E0
E000C0
E001C0
700380
3C0E00
0FF000
ENDCHAR
STARTCHAR 0068
ENCODING 104
SWIDTH 500 0
DWIDTH 25 0
BBX 22 34 1 0
BITMAP
007800
07F000
00F000
00F000
00E000
01E000
01E000
01E000
01C000
03C000
03C000
03C000
038000
0781F0
0787F8
078E78
071878
0F3078
0F6070
0F40F0
1E80F0
1F80F0
1F01E0
1E01E0
3E01E0
3C01C0
3C03C0
3C03C0
7803C0
780384
780788
700790
F007F0
F007C0
ENDCHAR
STARTCHAR 0069
ENCODING 105
SWIDTH 240 0
DWIDTH 12 0
BBX 11 33 2 0
BITMAP
01C0
03E0
03E0
03E0
01C0
0000
0000
0000
0000
0000
0000
0000
0F80
7F00
0F00
0F00
0F00
0E00
1E00
1E00
1C00
3C00
3C00
3C00
3800
7800
7800
7800
F080
F100
F300
FE00
F800
ENDCHAR
STARTCHAR 006A
ENCODING 106
SWIDTH 280 0
DWIDTH 14 0
BBX 20 43 -4 -10
BITMAP
0000E0
0001F0
0001F0
0001F0
0000E0
000000
000000
000000
000000
000000
000000
000020
0007E0
003FC0
0003C0
0003C0
0003C0
000380
000780
000780
000780
000700
000F00
000F00
000F00
000E00
001E00
001E00
001E00
001C00
003C00
003C00
003800
003800
007800
007000
007000
00F000
40E000
E0C000
E1C000
E38000
7E0000
ENDCHAR
STARTCHAR 006B
ENCODING 107
SWIDTH 460 0
DWIDTH 23 0
BBX 22 34 1 0
BITMAP
00F000
07F000
01F000
00F000
00E000
01E000
01E000
01E000
01C000
03C000
03C000
03C000
038000
0787FC
0780F0
0700C0
070180
0F0300
0F0C00
0E1800
1E3000
1E6000
1FE000
1FF000
3EF000
3C7800
3C7800
383C00
783C00
781E10
781E10
700F20
F00FE0
F007C0
ENDCHAR
STARTCHAR 006C
ENCODING 108
SWIDTH 260 0
DWIDTH 13 0
BBX 12 34 2 0
BITMAP
00F0
0FF0
01E0
01E0
01E0
01E0
03C0
03C0
03C0
03C0
0780
0780
0780
0780
0F00
0F00
0F00
0E00
1E00
1E00
1E00
1C00
3C00
3C00
3C00
3800
7800
7800
7840
F080
F100
F300
FE00
FC00
ENDCHAR
STARTCHAR 006D
ENCODING 109
SWIDTH 720 0
DWIDTH 36 0
BBX 34 21 1 1
BITMAP
0F81F01F00
7F87F83F80
0F8E78E780
0F18788700
0F30790F00
0F60F20F00
0E40F40F00
1E80FC1E00
1F80E81E00
1F01F01E00
3E01F01E00
3E01E03C00
3C01E03C00
3C03C03C00
7C03C03800
7803C07800
7807807840
7007807880
F007807900
F007007E00
E00F007C00
ENDCHAR
STARTCHAR 006E
ENCODING 110
SWIDTH 500 0
DWIDTH 25 0
BBX 22 22 1 0
BITMAP
004040
0783F0
3F87F8
0F8C78
071878
0F3078
0F2070
0F40F0
0E80F0
1E80F0
1F00E0
1E01E0
3E01E0
3C01C0
3C03C0
7803C0
7803C0
780384
700788
F00790
F007E0
E007C0
ENDCHAR
STARTCHAR 006F
ENCODING 111
SWIDTH 480 0
DWIDTH 24 0
BBX 22 21 1 1
BITMAP
003FE0
00E070
01C078
07803C
0F003C
1F003C
1E003C
3C003C
7C003C
7C007C
780078
F80078
F800F8
F000F0
F001E0
F001E0
F003C0
F00780
780600
381C00
1FF000
ENDCHAR
STARTCHAR 0070
ENCODING 112
SWIDTH 460 0
DWIDTH 23 0
BBX 27 31 -4 -9
BITMAP
01FC3F80
007CFFC0
003D83E0
003F01E0
007A01E0
007C01E0
007801E0
007801E0
00F001E0
00F003E0
00F003E0
00E003C0
01E007C0
01E00780
01E00F00
01C00F00
03C01E00
03C03C00
03C07000
03C0E000
07FF8000
07800000
07800000
07000000
0F000000
0F000000
0F000000
0E000000
1E000000
3F000000
FFC00000
ENDCHAR
STARTCHAR 0071
ENCODING 113
SWIDTH 480 0
DWIDTH 24 0
BBX 23 31 1 -9
BITMAP
001F9E
00705C
01E03C
03C03C
078038
0F0038
1E0078
1E0078
3C0070
3C00F0
7800F0
7801E0
F801E0
F003E0
F005E0
F005C0
F00BC0
F833C0
FC6380
7FC780
3F8780
000780
000F00
000F00
000F00
000E00
001E00
001E00
001E00
003E00
03FFC0
ENDCHAR
STARTCHAR 0072
ENCODING 114
SWIDTH 360 0
DWIDTH 18 0
BBX 18 21 1 1
BITMAP
0F87C0
7F8FC0
079FC0
0733C0
072000
0F6000
0FC000
0E8000
1F8000
1F0000
1F0000
1E0000
3E0000
3C0000
3C0000
7C0000
780000
780000
780000
F00000
F00000
ENDCHAR
STARTCHAR 0073
ENCODING 115
SWIDTH 340 0
DWIDTH 17 0
BBX 18 23 0 -1
BITMAP
000040
01FFC0
0383C0
0781C0
078180
078080
078080
07C000
03E000
03E000
01F000
00F800
00FC00
007C00
003E00
403E00
401E00
601E00
601C00
F01C00
F03800
FFF000
800000
ENDCHAR
STARTCHAR 0074
ENCODING 116
SWIDTH 240 0
DWIDTH 12 0
BBX 13 26 1 0
BITMAP
0040
00C0
01C0
0380
0F80
3FF8
7FF8
0F00
0F00
0F00
0E00
1E00
1E00
1E00
1C00
3C00
3C00
3C00
7800
7800
7800
7080
F100
F200
FC00
F800
ENDCHAR
STARTCHAR 0075
ENCODING 117
SWIDTH 480 0
DWIDTH 24 0
BBX 21 21 2 1
BITMAP
0F0078
7F0070
1E00F0
1E00F0
1E01F0
1E01E0
3C01E0
3C03E0
3C03E0
3C07C0
7807C0
780BC0
781F80
781780
702780
F06788
F0CF08
F18F10
F30F20
FE0FC0
FC0F80
ENDCHAR
STARTCHAR 0076
ENCODING 118
SWIDTH 460 0
DWIDTH 23 0
BBX 20 22 3 0
BITMAP
7C01E0
FE01E0
1E01F0
1E00E0
1E0060
0E0060
0F0040
0F00C0
0F0080
0F0180
0F0100
0F0200
070600
070C00
070800
071000
072000
07C000
07C000
078000
070000
040000
ENDCHAR
STARTCHAR 0077
ENCODING 119
SWIDTH 680 0
DWIDTH 34 0
BBX 31 22 3 0
BITMAP
1E00201E
FE00601E
1E00E01E
1E00E00E
0F01E006
0F02E006
0F02E004
0F04F00C
0F04F008
0708F018
0718F030
0710F060
07307040
07A070C0
07E07180
07C07300
07C07700
07807E00
07007C00
07007800
06007000
06006000
ENDCHAR
STARTCHAR 0078
ENCODING 120
SWIDTH 440 0
DWIDTH 22 0
BBX 23 21 -1 1
BITMAP
03F03E
0CF07E
0078CE
007980
007900
003A00
003E00
003C00
003C00
001C00
001C00
003C00
007E00
005E00
008E00
018E00
010F08
020F10
E407B0
FC07E0
F007C0
ENDCHAR
STARTCHAR 0079
ENCODING 121
SWIDTH 460 0
DWIDTH 23 0
BBX 22 31 1 -9
BITMAP
1F8038
2FC03C
03C03C
01E01C
01E00C
01E008
00F008
00F018
00F010
007830
007820
007860
007840
0038C0
003880
003D80
003D00
003E00
001E00
001C00
001800
001800
003000
002000
004000
00C000
018000
430000
FE0000
FC0000
F00000
ENDCHAR
STARTCHAR 007A
ENCODING 122
SWIDTH 380 0
DWIDTH 19 0
BBX 19 25 0 -4
BITMAP
07FFE0
0FFFC0
0FFF80
0C0100
180200
100600
000C00
001800
003000
006000
004000
008000
018000
030000
060000
0C0000
180000
180000
3E0000
7F8000
FFC180
07C1C0
01E1C0
007180
001E00
ENDCHAR
STARTCHAR 007B
ENCODING 123
SWIDTH 400 0
DWIDTH 20 0
BBX 17 43 3 -9
BITMAP
000780
001E00
003C00
003800
007800
007000
00F000
00F000
00F000
00E000
01E000
01E000
01E000
03C000
03C000
03C000
038000
078000
078000
0F0000
1E0000
780000
380000
1C0000
1E0000
1E0000
1E0000
1C0000
3C0000
3C0000
3C0000
380000
780000
780000
780000
700000
F00000
F00000
F00000
F00000
F00000
780000
3C0000
ENDCHAR
STARTCHAR 007C
ENCODING 124
SWIDTH 280 0
DWIDTH 14 0
BBX 3 35 5 -1
BITMAP
E0
E0
E0
E0
E0
E0
E0
E0
E0
E0
E0
E0
E0
E0
E0
E0
E0
E0
E0
E0
E0
E0
E0
E0
E0
E0
E0
E0
E0
E0
E0
E0
E0
E0
E0
ENDCHAR
STARTCHAR 007D
ENCODING 125
SWIDTH 400 0
DWIDTH 20 0
BBX 18 44 0 -9
BITMAP
001E00
000F80
000780
0003C0
0003C0
0003C0
000380
000780
000780
000780
000700
000F00
000F00
000F00
000E00
001E00
001E00
001E00
001C00
003C00
003C00
003C00
003C00
000F00
001E00
003800
007000
00F000
00F000
00E000
01E000
01E000
01E000
03C000
03C000
03C000
038000
078000
078000
070000
0F0000
0E0000
3C0000
F00000
ENDCHAR
STARTCHAR 007E
ENCODING 126
SWIDTH 540 0
DWIDTH 27 0
BBX 23 7 2 9
BITMAP
1FC000
3FF00C
7FF81E
78FF7C
F03FFC
200FF8
0003E0
ENDCHAR
STARTCHAR 00A0
ENCODING 160
SWIDTH 260 0
DWIDTH 13 0
BBX 0 0 0 0
BITMAP
ENDCHAR
STARTCHAR 00A1
ENCODING 161
SWIDTH 340 0
DWIDTH 17 0
BBX 13 33 3 -10
BITMAP
0070
00F8
00F8
00F8
0070
0000
0000
0000
0000
0080
0180
0180
0100
0300
0300
0300
0700
0600
0E00
0E00
0E00
1E00
1E00
3C00
3C00
7C00
7C00
7C00
F800
F800
F800
F000
7000
ENDCHAR
STARTCHAR 00A2
ENCODING 162
SWIDTH 500 0
DWIDTH 25 0
BBX 20 35 4 -7
BITMAP
000180
000100
000100
000300
000200
000600
000600
007FC0
01ECE0
038CE0
0708F0
0E18E0
1E1040
3C1000
3C3000
782000
782000
F86000
F84000
F0C000
F0C000
F08000
F18000
F98100
790300
7F0600
3F7800
1FF000
060000
060000
040000
0C0000
080000
080000
180000
ENDCHAR
STARTCHAR 00A3
ENCODING 163
SWIDTH 500 0
DWIDTH 25 0
BBX 25 34 1 0
BITMAP
00001800
0000FF00
00018F00
00038780
00070780
000F0300
000E0000
001E0000
001E0000
003C0000
003C0000
003C0000
007C0000
007C0000
00780000
00780000
1FFFE000
1FFFE000
00780000
00F00000
00F00000
00F00000
00F00000
00E00000
00E00000
00C00000
00C00000
01C00000
3F800000
47E00400
81FC1800
83FFF800
867FF000
7C1FE000
ENDCHAR
STARTCHAR 00A4
ENCODING 164
SWIDTH 500 0
DWIDTH 25 0
BBX 27 27 -1 3
BITMAP
200000C0
700001E0
F80003E0
7C7FC7C0
3EFFFF80
1FFFFF00
0FE0FE00
07803E00
0F001E00
0E000F00
1E000F00
1E000700
1C000700
1C000700
1E000700
1E000700
0E000F00
0F000E00
0F801E00
07C03E00
0FFBFF00
1FFFFF80
3E7FE7C0
7C1F83E0
F80001E0
700000C0
20000000
ENDCHAR
STARTCHAR 00A5
ENCODING 165
SWIDTH 500 0
DWIDTH 25 0
BBX 29 33 1 0
BITMAP
3FFC0FF8
0FE001F0
03C001E0
03C001C0
01E00180
01E00300
01E00700
01E00E00
00F00C00
00F01800
00F03000
00787000
0078E000
0078C000
00798000
3FFFFF00
3FFFFF00
003E0000
003E0000
003C0000
003C0000
007C0000
7FFFFC00
FFFFFC00
00F80000
00F00000
00F00000
00F00000
01F00000
01E00000
03E00000
07F00000
3FFF0000
ENDCHAR
STARTCHAR 00A6
ENCODING 166
SWIDTH 280 0
DWIDTH 14 0
BBX 3 35 5 -1
BITMAP
E0
E0
E0
E0
E0
E0
E0
E0
E0
E0
E0
E0
E0
E0
00
00
00
00
00
00
00
E0
E0
E0
E0
E0
E0
E0
E0
E0
E0
E0
E0
E0
E0
ENDCHAR
STARTCHAR 00A7
ENCODING 167
SWIDTH 500 0
DWIDTH 25 0
BBX 20 41 3 -7
BITMAP
007FC0
00C060
01C070
0380F0
0380F0
0380F0
038000
03C000
03C000
01E000
01F000
00F800
007C00
07FC00
0C7E00
181F00
380F80
3807C0
3803C0
3803E0
3C01E0
3C00E0
1E00E0
1F00E0
0F00C0
0781C0
07E380
03FE00
01E000
00F000
00F800
007800
003C00
703C00
F81C00
F81C00
F81C00
E01800
603000
30E000
0F8000
ENDCHAR
STARTCHAR 00A8
ENCODING 168
SWIDTH 340 0
DWIDTH 17 0
BBX 15 5 6 25
BITMAP
701C
F83E
F83E
F83E
701C
ENDCHAR
STARTCHAR 00A9
ENCODING 169
SWIDTH 760 0
DWIDTH 38 0
BBX 36 36 2 0
BITMAP
0000600000
000FFF0000
007C03C000
00E0007000
0180003800
0700000C00
0E00000600
0C003C1300
1801FFF180
300780F180
300E0060C0
601C0060C0
6038002060
4070002060
C0F0000020
C0E0000020
C1E0000020
C1E0000030
C1C0000030
C1C0000030
C3C0000020
C3C0000020
C3C0000020
43C0000060
61C0000060
61C00080C0
31E00100C0
30F0060180
18780C0180
0C3FF00300
0607800600
0300000C00
0180003800
00E000F000
003C07C000
000FFF0000
ENDCHAR
STARTCHAR 00AA
ENCODING 170
SWIDTH 280 0
DWIDTH 14 0
BBX 15 19 2 16
BITMAP
03FE
0F1E
1E1C
1C1C
381C
783C
7038
F038
F078
F078
F0BA
F174
7F78
3C70
0000
0000
FFE0
FFE0
FFE0
ENDCHAR
STARTCHAR 00AB
ENCODING 171
SWIDTH 440 0
DWIDTH 22 0
BBX 19 18 3 2
BITMAP
002020
006060
00C0C0
018180
070700
0E0E00
1C1C00
383800
F0F000
F0F000
707000
383800
181800
1C1C00
0C0C00
060600
020200
010100
ENDCHAR
STARTCHAR 00AC
ENCODING 172
SWIDTH 680 0
DWIDTH 34 0
BBX 24 13 5 6
BITMAP
FFFFFF
FFFFFF
FFFFFF
000007
000007
000007
000007
000007
000007
000007
000007
000007
000007
ENDCHAR
STARTCHAR 00AD
ENCODING 173
SWIDTH 340 0
DWIDTH 17 0
BBX 11 3 2 10
BITMAP
7FE0
FFE0
FFE0
ENDCHAR
STARTCHAR 00AE
ENCODING 174
SWIDTH 760 0
DWIDTH 38 0
BBX 36 36 2 0
BITMAP
0000600000
000FFF0000
007C03C000
00E0007000
0180003800
0700000C00
0E00000600
0C00000300
180FFF8180
3003C1C180
3003C0E0C0
600380E0C0
600380E060
400780E060
C00780E020
C00701C020
C007038020
C00FFF0030
C00EF80030
C00E380030
C00E3C0020
C01E1C0020
C01C1C0020
401C1E0060
603C0E0060
60380E00C0
30380F00C0
3038070180
1878078180
0DFE03E300
0600000600
0300000C00
0180003800
00E000F000
003C07C000
000FFF0000
ENDCHAR
STARTCHAR 00AF
ENCODING 175
SWIDTH 340 0
DWIDTH 17 0
BBX 16 3 5 27
BITMAP
7FFF
FFFE
FFFE
ENDCHAR
STARTCHAR 00B0
ENCODING 176
SWIDTH 400 0
DWIDTH 20 0
BBX 14 14 5 20
BITMAP
0300
1FE0
3870
6038
6018
C00C
C00C
C00C
C00C
C01C
6018
3030
1FE0
0FC0
ENDCHAR
STARTCHAR 00B1
ENCODING 177
SWIDTH 680 0
DWIDTH 34 0
BBX 23 28 5 0
BITMAP
003800
003800
003800
003800
003800
003800
003800
003800
003800
003800
003800
FFFFFE
FFFFFE
FFFFFE
003800
003800
003800
003800
003800
003800
003800
003800
000000
000000
000000
FFFFFE
FFFFFE
FFFFFE
ENDCHAR
STARTCHAR 00B2
ENCODING 178
SWIDTH 300 0
DWIDTH 15 0
BBX 14 20 7 20
BITMAP
00C0
07F0
0FF8
187C
303C
001C
001C
001C
0038
0030
0060
00C0
0180
0300
0600
0C00
1808
3FF0
FFF0
FFF0
ENDCHAR
STARTCHAR 00B3
ENCODING 179
SWIDTH 300 0
DWIDTH 15 0
BBX 15 21 7 19
BITMAP
0020
01FC
031E
040E
000E
000E
001C
0038
01C0
0FF0
00F8
0078
0038
0038
0038
0038
0038
0070
60E0
FFC0
7E00
ENDCHAR
STARTCHAR 00B4
ENCODING 180
SWIDTH 260 0
DWIDTH 13 0
BBX 11 8 5 26
BITMAP
00E0
01E0
03E0
0780
0E00
1C00
7000
E000
ENDCHAR
STARTCHAR 00B5
ENCODING 181
SWIDTH 500 0
DWIDTH 25 0
BBX 27 32 -2 -11
BITMAP
00F803E0
00F003C0
00F003C0
00F003C0
01F007C0
01E007C0
01E00780
01E00780
03E00F80
03E00F80
03C00F00
03C00F00
07C00F00
07C01F00
07801E00
07801E00
07803E00
0FC0FC00
0FE3BC00
0BFF3EC0
19FC3F00
18000000
18000000
38000000
38000000
78000000
78000000
F8000000
F8000000
F0000000
F0000000
40000000
ENDCHAR
STARTCHAR 00B6
ENCODING 182
SWIDTH 520 0
DWIDTH 26 0
BBX 27 39 4 -6
BITMAP
003FFFE0
01E71F00
078F1C00
0F0E3C00
1E0E3C00
1E0E3800
3C1E3800
3C1C7800
381C7800
783C7000
783C7000
7838F000
7838F000
7878E000
7878E000
7871E000
3C71C000
1EF1C000
07F3C000
00E3C000
00E38000
01E38000
01C78000
01C78000
01C70000
03C70000
038F0000
038F0000
078E0000
078E0000
071E0000
071C0000
0F1C0000
0F3C0000
0E3C0000
0E380000
1E380000
3E7C0000
FC7F8000
ENDCHAR
STARTCHAR 00B7
ENCODING 183
SWIDTH 260 0
DWIDTH 13 0
BBX 5 5 7 9
BITMAP
70
F8
F8
F8
70
ENDCHAR
STARTCHAR 00B8
ENCODING 184
SWIDTH 260 0
DWIDTH 13 0
BBX 11 11 -2 -11
BITMAP
0600
0600
0C00
0F00
1FC0
03C0
01E0
01E0
01C0
FF80
3F00
ENDCHAR
STARTCHAR 00B9
ENCODING 185
SWIDTH 240 0
DWIDTH 12 0
BBX 12 20 7 20
BITMAP
0070
03F0
00E0
00E0
01E0
01C0
01C0
03C0
0380
0380
0780
0700
0700
0F00
0E00
0E00
1E00
1C00
1C00
FF80
ENDCHAR
STARTCHAR 00BA
ENCODING 186
SWIDTH 320 0
DWIDTH 16 0
BBX 16 19 2 15
BITMAP
00F8
039E
0F0E
1E0F
1C0F
3C0F
380E
781E
781E
783C
7838
7870
38E0
1F80
0000
0000
FFE0
FFE0
FFE0
ENDCHAR
STARTCHAR 00BB
ENCODING 187
SWIDTH 440 0
DWIDTH 22 0
BBX 19 18 1 2
BITMAP
080800
0C0C00
060600
060600
030300
038380
01C1C0
01E1E0
00E0E0
01E1E0
03C3C0
078780
0E0E00
1C1C00
383800
707000
606000
808000
ENDCHAR
STARTCHAR 00BC
ENCODING 188
SWIDTH 760 0
DWIDTH 38 0
BBX 34 34 5 0
BITMAP
0070000C00
03F0001C00
00E0003800
00E0003000
01E0007000
01C000E000
01C000C000
03C001C000
0380038000
0380030000
0780070000
07000E0000
07000C0000
0F001C00C0
0E003801C0
0E003003C0
1E007007C0
1C00E00F80
1C00C01B80
FF81C03780
0003806700
000300C700
0007018700
000E030F00
000C060E00
001C0C0E00
00381FFF80
00301FFF80
00703FFF80
00E0001C00
00C0003C00
01C0003800
0380003800
0300007800
ENDCHAR
STARTCHAR 00BD
ENCODING 189
SWIDTH 740 0
DWIDTH 37 0
BBX 34 34 5 0
BITMAP
0078003800
01F0007000
0070006000
007000E000
00E001C000
00E0018000
01E0038000
01E0070000
01C0060000
03C00E0000
03C00C0000
0380180000
0780380000
0780300000
0700600C00
0700E07F00
0F00C0FF80
0E018187C0
1E038303C0
FFC30001C0
00060001C0
000E0001C0
000C000380
0018000300
0038000600
0030000C00
0060001800
00E0003000
00C0006000
018000C000
0380018080
030003FF00
06000FFF00
0E000FFF00
ENDCHAR
STARTCHAR 00BE
ENCODING 190
SWIDTH 760 0
DWIDTH 38 0
BBX 35 34 5 0
BITMAP
0020000C00
01FC001C00
031E003800
040E003000
000E007000
000E00E000
001C00C000
003801C000
01C0038000
0FF0030000
00F8070000
00780E0000
00380C0000
00381C0060
00383800E0
00383001C0
00387007C0
0070E00DC0
60E0C01BC0
FFC1C03380
7E03806380
000300C780
0007018700
000E030700
000C060700
001C0C0F00
00381FFFC0
00301FFF80
00701FFF80
00E0001C00
00C0001C00
01C0003C00
0380003800
0300003800
ENDCHAR
STARTCHAR 00BF
ENCODING 191
SWIDTH 500 0
DWIDTH 25 0
BBX 18 33 1 -10
BITMAP
000380
0007C0
0007C0
0007C0
000380
000000
000000
000000
000000
000200
000400
000400
000400
000800
001800
003000
006000
00E000
03C000
078000
0F0000
3E0000
3C0000
780000
F80000
F00000
F00E00
F00E00
F00E00
700E00
780C00
3C3800
0FE000
ENDCHAR
STARTCHAR 00C0
ENCODING 192
SWIDTH 660 0
DWIDTH 33 0
BBX 31 44 0 0
BITMAP
00007000
0000F000
0000F800
00007C00
00003C00
00001E00
00000E00
00000700
00000000
00000000
00000000
00000C00
00000C00
00001E00
00001E00
00003E00
00003E00
00007E00
0000DE00
0000DF00
00019F00
00019F00
00031F00
00061F00
00060F00
000C0F80
000C0F80
00180F80
00380F80
00300F80
00600780
007FFFC0
00FFFFC0
01C007C0
018007C0
038007C0
030003C0
070003E0
0E0003E0
0E0003E0
1C0003E0
3C0003F0
7E0007F0
FF803FFE
ENDCHAR
STARTCHAR 00C1
ENCODING 193
SWIDTH 660 0
DWIDTH 33 0
BBX 31 44 0 0
BITMAP
00000038
0000007C
000000F8
000001F0
000003C0
00000780
00000E00
00001C00
00000000
00000000
00000000
00000C00
00000C00
00001E00
00001E00
00003E00
00003E00
00007E00
0000DE00
0000DF00
00019F00
00019F00
00031F00
00061F00
00060F00
000C0F80
000C0F80
00180F80
00380F80
00300F80
00600780
007FFFC0
00FFFFC0
01C007C0
018007C0
038007C0
030003C0
070003E0
0E0003E0
0E0003E0
1C0003E0
3C0003F0
7E0007F0
FF803FFE
ENDCHAR
STARTCHAR 00C2
ENCODING 194
SWIDTH 660 0
DWIDTH 33 0
BBX 31 43 0 0
BITMAP
00000780
00000FC0
00001FC0
00003DE0
000070E0
0000E070
00018030
00030018
00000000
00000000
00000C00
00000C00
00001E00
00001E00
00003E00
00003E00
00007E00
0000DE00
0000DF00
00019F00
00019F00
00031F00
00061F00
00060F00
000C0F80
000C0F80
00180F80
00380F80
00300F80
00600780
007FFFC0
00FFFFC0
01C007C0
018007C0
038007C0
030003C0
070003E0
0E0003E0
0E0003E0
1C0003E0
3C0003F0
7E0007F0
FF803FFE
ENDCHAR
STARTCHAR 00C3
ENCODING 195
SWIDTH 660 0
DWIDTH 33 0
BBX 31 40 0 0
BITMAP
00000006
0000FE0C
0001FFB8
00033FF0
00040FC0
00000000
00000000
00000C00
00000C00
00001E00
00001E00
00003E00
00003E00
00007E00
0000DE00
0000DF00
00019F00
00019F00
00031F00
00061F00
00060F00
000C0F80
000C0F80
00180F80
00380F80
00300F80
00600780
007FFFC0
00FFFFC0
01C007C0
018007C0
038007C0
030003C0
070003E0
0E0003E0
0E0003E0
1C0003E0
3C0003F0
7E0007F0
FF803FFE
ENDCHAR
STARTCHAR 00C4
ENCODING 196
SWIDTH 660 0
DWIDTH 33 0
BBX 31 40 0 0
BITMAP
00004010
0001F07C
0001F07C
0001F07C
0000E038
00000000
00000000
00000C00
00000C00
00001E00
00001E00
00003E00
00003E00
00007E00
0000DE00
0000DF00
00019F00
00019F00
00031F00
00061F00
00060F00
000C0F80
000C0F80
00180F80
00380F80
00300F80
00600780
007FFFC0
00FFFFC0
01C007C0
018007C0
038007C0
030003C0
070003E0
0E0003E0
0E0003E0
1C0003E0
3C0003F0
7E0007F0
FF803FFE
ENDCHAR
STARTCHAR 00C5
ENCODING 197
SWIDTH 660 0
DWIDTH 33 0
BBX 31 45 0 0
BITMAP
000003C0
00000FE0
00001830
00001830
00003030
00003030
00003060
000018C0
00001F80
00000000
00000000
00000000
00000C00
00000C00
00001E00
00001E00
00003E00
00003E00
00007E00
0000DE00
0000DF00
00019F00
00019F00
00031F00
00061F00
00060F00
000C0F80
000C0F80
00180F80
00380F80
00300F80
00600780
007FFFC0
00FFFFC0
01C007C0
018007C0
038007C0
030003C0
070003E0
0E0003E0
0E0003E0
1C0003E0
3C0003F0
7E0007F0
FF803FFE
ENDCHAR
STARTCHAR 00C6
ENCODING 198
SWIDTH 880 0
DWIDTH 44 0
BBX 47 33 0 0
BITMAP
000007FFFFFE
000000FFFFFE
000000FF000E
000000DF0006
000001DE0004
000003BE0004
0000073E0004
0000063E0000
00000C3C0000
00001C7C0000
0000387C0100
000070780300
000060F80600
0000C0F80E00
0001C0FFFE00
000380FFFE00
000301F01C00
000601F00C00
000C01F00C00
001FFFE00C00
003FFFE00800
003003E00000
006003C00000
00E007C00000
01C007C00010
038007C00030
03000F800060
07000F8000E0
0E000F8001C0
1E000F8003C0
3C001F800F80
7E003FFFFF80
FFC0FFFFFF80
ENDCHAR
STARTCHAR 00C7
ENCODING 199
SWIDTH 620 0
DWIDTH 31 0
BBX 32 44 2 -10
BITMAP
0001FFE3
000FF3FF
001F003E
007C001E
00F8001E
01F0000E
03E0000E
07C00004
0F800004
1F800004
1F000000
3E000000
3E000000
7E000000
7C000000
7C000000
FC000000
F8000000
F8000000
F8000000
F8000000
F8000000
F8000000
F8000000
F8000000
7C000000
7C000020
3C000040
3E0001C0
1F000300
0F800E00
07F03C00
01FFF000
007FC000
00E00000
00C00000
01F00000
03FC0000
003C0000
001E0000
001E0000
001C0000
0FF80000
07E00000
ENDCHAR
STARTCHAR 00C8
ENCODING 200
SWIDTH 620 0
DWIDTH 31 0
BBX 31 44 0 0
BITMAP
00007000
0000F800
0000F800
00007C00
00003C00
00001E00
00000E00
00000700
00000000
00000000
00000000
01FFFFFE
003FFFFE
001F000E
001F0006
001F0004
003E0004
003E0004
003E0000
003C0000
007C0000
007C0080
007C0100
00F80300
00F80700
00FFFE00
00FFFE00
01F01E00
01F00C00
01F00C00
01E00C00
03E00800
03E00000
03E00000
07C00000
07C00000
07C00010
07800030
0F800070
0F8000E0
0F8001E0
1F8007E0
3FFFFFC0
FFFFFFC0
ENDCHAR
STARTCHAR 00C9
ENCODING 201
SWIDTH 620 0
DWIDTH 31 0
BBX 31 44 0 0
BITMAP
00000060
000000F0
000001F0
000003C0
00000780
00000E00
00001800
00003000
00004000
00000000
00000000
01FFFFFE
003FFFFE
001F000E
001F0006
001F0004
003E0004
003E0004
003E0000
003C0000
007C0000
007C0080
007C0100
00F80300
00F80700
00FFFE00
00FFFE00
01F01E00
01F00C00
01F00C00
01E00C00
03E00800
03E00000
03E00000
07C00000
07C00000
07C00010
07800030
0F800070
0F8000E0
0F8001E0
1F8007E0
3FFFFFC0
FFFFFFC0
ENDCHAR
STARTCHAR 00CA
ENCODING 202
SWIDTH 620 0
DWIDTH 31 0
BBX 31 43 0 0
BITMAP
00000780
00000FC0
00001FC0
00003DE0
000070E0
0000E070
0001C038
00030018
00000000
00000000
01FFFFFE
003FFFFE
001F000E
001F0006
001F0004
003E0004
003E0004
003E0000
003C0000
007C0000
007C0080
007C0100
00F80300
00F80700
00FFFE00
00FFFE00
01F01E00
01F00C00
01F00C00
01E00C00
03E00800
03E00000
03E00000
07C00000
07C00000
07C00010
07800030
0F800070
0F8000E0
0F8001E0
1F8007E0
3FFFFFC0
FFFFFFC0
ENDCHAR
STARTCHAR 00CB
ENCODING 203
SWIDTH 620 0
DWIDTH 31 0
BBX 31 40 0 0
BITMAP
0000C030
0001E078
0001F07C
0001F07C
0001E078
00000000
00000000
01FFFFFE
003FFFFE
001F000E
001F0006
001F0004
003E0004
003E0004
003E0000
003C0000
007C0000
007C0080
007C0100
00F80300
00F80700
00FFFE00
00FFFE00
01F01E00
01F00C00
01F00C00
01E00C00
03E00800
03E00000
03E00000
07C00000
07C00000
07C00010
07800030
0F800070
0F8000E0
0F8001E0
1F8007E0
3FFFFFC0
FFFFFFC0
ENDCHAR
STARTCHAR 00CC
ENCODING 204
SWIDTH 320 0
DWIDTH 16 0
BBX 20 44 0 0
BITMAP
001C00
001E00
001E00
001F00
000F80
000780
0001C0
0000C0
000000
000000
000000
01FFF0
003FC0
001F00
001F00
001F00
003E00
003E00
003E00
003C00
007C00
007C00
007C00
00F800
00F800
00F800
00F800
01F000
01F000
01F000
01E000
03E000
03E000
03E000
07C000
07C000
07C000
078000
0F8000
0F8000
0F8000
1F8000
3FC000
FFF000
ENDCHAR
STARTCHAR 00CD
ENCODING 205
SWIDTH 320 0
DWIDTH 16 0
BBX 21 44 0 0
BITMAP
000038
000078
0000F8
0001F0
0003C0
000700
000E00
001800
002000
000000
000000
01FFF0
003FC0
001F00
001F00
001F00
003E00
003E00
003E00
003C00
007C00
007C00
007C00
00F800
00F800
00F800
00F800
01F000
01F000
01F000
01E000
03E000
03E000
03E000
07C000
07C000
07C000
078000
0F8000
0F8000
0F8000
1F8000
3FC000
FFF000
ENDCHAR
STARTCHAR 00CE
ENCODING 206
SWIDTH 320 0
DWIDTH 16 0
BBX 22 43 0 0
BITMAP
0003C0
0007E0
000FE0
001EF0
003870
007038
00E01C
01800C
000000
000000
01FFF0
003FC0
001F00
001F00
001F00
003E00
003E00
003E00
003C00
007C00
007C00
007C00
00F800
00F800
00F800
00F800
01F000
01F000
01F000
01E000
03E000
03E000
03E000
07C000
07C000
07C000
078000
0F8000
0F8000
0F8000
1F8000
3FC000
FFF000
ENDCHAR
STARTCHAR 00CF
ENCODING 207
SWIDTH 320 0
DWIDTH 16 0
BBX 23 40 0 1
BITMAP
00F03C
00F83E
00F83E
00F03C
000000
000000
000000
01FFF0
003FC0
001F00
001F00
001F00
003E00
003E00
003E00
003C00
007C00
007C00
007C00
00F800
00F800
00F800
00F800
01F000
01F000
01F000
01E000
03E000
03E000
03E000
07C000
07C000
07C000
078000
0F8000
0F8000
0F8000
1F8000
3FC000
FFF000
ENDCHAR
STARTCHAR 00D0
ENCODING 208
SWIDTH 700 0
DWIDTH 35 0
BBX 35 33 0 0
BITMAP
01FFFF8000
003FFFF000
001F00FC00
001F003E00
001F001F00
003E000F80
003E000780
003E0007C0
003E0007C0
007C0003E0
007C0003E0
007C0003E0
00F80003E0
00F80003E0
00F80003E0
1FFFF003E0
1FFFF003E0
01F00003E0
01F00007E0
01F00007C0
03E00007C0
03E0000FC0
03E0000F80
07C0001F00
07C0001F00
07C0003E00
07C0007C00
0F8000F800
0F8003F000
0F8007C000
1F803F0000
3FFFFC0000
FFFFC00000
ENDCHAR
STARTCHAR 00D1
ENCODING 209
SWIDTH 680 0
DWIDTH 34 0
BBX 37 43 0 -1
BITMAP
0000000100
00003F0200
0000FFCE00
0001DFFC00
000303F000
0000000000
0000000000
0000000000
0000000000
01FE001FF8
007E0007F0
003F0003C0
001F0001C0
001F8003C0
001F800380
003F800380
0037C00380
0037C00700
0063E00700
0063E00700
0063E00600
0041F00E00
00C1F00E00
00C0F80E00
00C0F80C00
0180781C00
01807C1C00
01807C1800
01803E3800
03003E3800
03001E3800
03001F3000
02000F7000
06000FF000
06000FE000
060007E000
0C0007E000
0C0003E000
1C0003C000
1C0001C000
3E0001C000
FFC0018000
0000008000
ENDCHAR
STARTCHAR 00D2
ENCODING 210
SWIDTH 660 0
DWIDTH 33 0
BBX 32 45 2 -1
BITMAP
00007000
00007800
00007C00
00007C00
00003E00
00001E00
00000700
00000300
00000000
00000000
00000000
0000FFC0
0007C1E0
000E00F8
003C0078
0078003C
00F0003E
01E0001E
03C0001F
07C0001F
0F80001F
0F80001F
1F00001F
3F00001F
3E00003F
7E00003F
7E00003F
7C00003E
7C00007E
FC00007E
FC00007C
F80000FC
F80000F8
F80000F8
F80001F0
F80003E0
F80003E0
780007C0
7C000F80
3C000F00
3C003E00
1E007C00
0F00F000
07FFC000
01FE0000
ENDCHAR
STARTCHAR 00D3
ENCODING 211
SWIDTH 660 0
DWIDTH 33 0
BBX 32 45 2 -1
BITMAP
00000070
000000F0
000001F0
000003E0
00000780
00000F00
00001C00
00003000
00000000
00000000
00000000
0000FFC0
0007C1E0
000E00F8
003C0078
0078003C
00F0003E
01E0001E
03C0001F
07C0001F
0F80001F
0F80001F
1F00001F
3F00001F
3E00003F
7E00003F
7E00003F
7C00003E
7C00007E
FC00007E
FC00007C
F80000FC
F80000F8
F80000F8
F80001F0
F80003E0
F80003E0
780007C0
7C000F80
3C000F00
3C003E00
1E007C00
0F00F000
07FFC000
01FE0000
ENDCHAR
STARTCHAR 00D4
ENCODING 212
SWIDTH 660 0
DWIDTH 33 0
BBX 32 44 2 -1
BITMAP
00000780
00000FC0
00001FC0
00003DE0
000070E0
0000E070
0001C038
00030018
00000000
00000000
0000FFC0
0007C1E0
000E00F8
003C0078
0078003C
00F0003E
01E0001E
03C0001F
07C0001F
0F80001F
0F80001F
1F00001F
3F00001F
3E00003F
7E00003F
7E00003F
7C00003E
7C00007E
FC00007E
FC00007C
F80000FC
F80000F8
F80000F8
F80001F0
F80003E0
F80003E0
780007C0
7C000F80
3C000F00
3C003E00
1E007C00
0F00F000
07FFC000
01FE0000
ENDCHAR
STARTCHAR 00D5
ENCODING 213
SWIDTH 660 0
DWIDTH 33 0
BBX 32 41 2 -1
BITMAP
00000006
0000FE0C
0001FF98
00033FF0
000607E0
00000000
00000000
0000FFC0
0007C1E0
000E00F8
003C0078
0078003C
00F0003E
01E0001E
03C0001F
07C0001F
0F80001F
0F80001F
1F00001F
3F00001F
3E00003F
7E00003F
7E00003F
7C00003E
7C00007E
FC00007E
FC00007C
F80000FC
F80000F8
F80000F8
F80001F0
F80003E0
F80003E0
780007C0
7C000F80
3C000F00
3C003E00
1E007C00
0F00F000
07FFC000
01FE0000
ENDCHAR
STARTCHAR 00D6
ENCODING 214
SWIDTH 660 0
DWIDTH 33 0
BBX 32 41 2 -1
BITMAP
0000C030
0001E078
0001F07C
0001F07C
0001E078
00000000
00000000
0000FFC0
0007C1E0
000E00F8
003C0078
0078003C
00F0003E
01E0001E
03C0001F
07C0001F
0F80001F
0F80001F
1F00001F
3F00001F
3E00003F
7E00003F
7E00003F
7C00003E
7C00007E
FC00007E
FC00007C
F80000FC
F80000F8
F80000F8
F80001F0
F80003E0
F80003E0
780007C0
7C000F80
3C000F00
3C003E00
1E007C00
0F00F000
07FFC000
01FE0000
ENDCHAR
STARTCHAR 00D7
ENCODING 215
SWIDTH 680 0
DWIDTH 34 0
BBX 24 24 5 0
BITMAP
000004
60000E
F0001F
78003E
3C007C
1E00F8
0F01F0
0783E0
03C7C0
01EF80
00FF00
007E00
007C00
00FE00
01FF00
03E780
07C3C0
0F81E0
1F00F0
3E0078
7C003C
F8001E
F0000F
600006
ENDCHAR
STARTCHAR 00D8
ENCODING 216
SWIDTH 660 0
DWIDTH 33 0
BBX 32 41 2 -5
BITMAP
0000000C
00000018
00000018
0000FFF0
0007C1F0
000F00F8
003C00FC
007801FC
00F003BE
01E0031E
03C0061F
07C00E1F
0F800C1F
1F80181F
1F00381F
3F00301F
3E00601F
7E00E03F
7E00C03F
7C01803E
FC03807E
FC03007E
FC06007C
F80E00FC
F80C00F8
F81800F8
F83801F0
F83001F0
F86003E0
78E007C0
7CC00780
7D800F00
3F801E00
1F007800
0F00F000
0FFFC000
0CFE0000
18000000
38000000
30000000
60000000
ENDCHAR
STARTCHAR 00D9
ENCODING 217
SWIDTH 700 0
DWIDTH 35 0
BBX 33 45 6 -1
BITMAP
0003800000
0003C00000
0003E00000
0003E00000
0001F00000
0000700000
0000380000
00001C0000
0000000000
0000000000
0000000000
7FFE01FF80
0FF8007E00
07E0003C00
07C0003800
07C0003800
0FC0003800
0F80003000
0F80003000
0F80007000
1F80006000
1F00006000
1F0000E000
3F0000C000
3E0000C000
3E0000C000
3E0001C000
7E00018000
7C00018000
7C00038000
7C00030000
7C00030000
F800030000
F800060000
F800060000
F800060000
F8000C0000
F8000C0000
F8001C0000
7800380000
7C00700000
3E00E00000
1F83C00000
0FFF800000
01FC000000
ENDCHAR
STARTCHAR 00DA
ENCODING 218
SWIDTH 700 0
DWIDTH 35 0
BBX 33 45 6 -1
BITMAP
0000018000
000003C000
000007C000
00000F0000
00001E0000
0000380000
0000700000
0000C00000
0001000000
0000000000
0000000000
7FFE01FF80
0FF8007E00
07E0003C00
07C0003800
07C0003800
0FC0003800
0F80003000
0F80003000
0F80007000
1F80006000
1F00006000
1F0000E000
3F0000C000
3E0000C000
3E0000C000
3E0001C000
7E00018000
7C00018000
7C00038000
7C00030000
7C00030000
F800030000
F800060000
F800060000
F800060000
F8000C0000
F8000C0000
F8001C0000
7800380000
7C00700000
3E00E00000
1F83C00000
0FFF800000
01FC000000
ENDCHAR
STARTCHAR 00DB
ENCODING 219
SWIDTH 700 0
DWIDTH 35 0
BBX 33 44 6 -1
BITMAP
00003C0000
00007C0000
0000FE0000
0001CE0000
0003870000
0007038000
000C018000
001800C000
0000000000
0000000000
7FFE01FF80
0FF8007E00
07E0003C00
07C0003800
07C0003800
0FC0003800
0F80003000
0F80003000
0F80007000
1F80006000
1F00006000
1F0000E000
3F0000C000
3E0000C000
3E0000C000
3E0001C000
7E00018000
7C00018000
7C00038000
7C00030000
7C00030000
F800030000
F800060000
F800060000
F800060000
F8000C0000
F8000C0000
F8001C0000
7800380000
7C00700000
3E00E00000
1F83C00000
0FFF800000
01FC000000
ENDCHAR
STARTCHAR 00DC
ENCODING 220
SWIDTH 700 0
DWIDTH 35 0
BBX 33 41 6 -1
BITMAP
0002008000
000F83E000
000F83E000
000F83E000
000701C000
0000000000
0000000000
7FFE01FF80
0FF8007E00
07E0003C00
07C0003800
07C0003800
0FC0003800
0F80003000
0F80003000
0F80007000
1F80006000
1F00006000
1F0000E000
3F0000C000
3E0000C000
3E0000C000
3E0001C000
7E00018000
7C00018000
7C00038000
7C00030000
7C00030000
F800030000
F800060000
F800060000
F800060000
F8000C0000
F8000C0000
F8001C0000
7800380000
7C00700000
3E00E00000
1F83C00000
0FFF800000
01FC000000
ENDCHAR
STARTCHAR 00DD
ENCODING 221
SWIDTH 600 0
DWIDTH 30 0
BBX 27 44 6 0
BITMAP
00001C00
00003C00
00007C00
0000F800
0001E000
0003C000
00070000
000C0000
00000000
00000000
00000000
FFF03FE0
3FC00FC0
1F800780
0F800700
0F800E00
0F800E00
07801C00
07C03800
07C03000
03C06000
03C0E000
03E1C000
03E38000
01E30000
01F60000
01FE0000
00FC0000
00F80000
00F80000
01F00000
01F00000
01F00000
01E00000
03E00000
03E00000
03E00000
07C00000
07C00000
07C00000
0FC00000
0FC00000
3FC00000
FFFC0000
ENDCHAR
STARTCHAR 00DE
ENCODING 222
SWIDTH 540 0
DWIDTH 27 0
BBX 28 33 -1 0
BITMAP
01FFE000
007F8000
003F0000
003E0000
003E0000
003E0000
003FE000
007FFF00
007C0F80
007C07C0
007803E0
00F801F0
00F801F0
00F801F0
01F001F0
01F001F0
01F001F0
01F001F0
03E003E0
03E003E0
03E007C0
03C00F80
07C07F00
07FFFC00
07DFE000
0F800000
0F800000
0F800000
0F000000
1F000000
1F000000
3F800000
FFF00000
ENDCHAR
STARTCHAR 00DF
ENCODING 223
SWIDTH 560 0
DWIDTH 28 0
BBX 33 44 -4 -10
BITMAP
000001FC00
0000078E00
00000E0700
00001E0700
00003C0780
00003C0780
0000780780
0000780780
0000F00780
0000F00F00
0000F00F00
0001F01C00
0001E03800
0001E0E000
0003E3C000
0003C07000
0003C03C00
0003C01C00
0007C01E00
0007801E00
0007801E00
0007801E00
000F801E00
000F001E00
000F001E00
000F003E00
001F003C00
001E003C00
001E003800
001E207800
001E707000
003C78E000
003C79C000
003C3F8000
0038000000
0078000000
0078000000
0070000000
0070000000
40E0000000
E0E0000000
E1C0000000
E380000000
7E00000000
ENDCHAR
STARTCHAR 00E0
ENCODING 224
SWIDTH 500 0
DWIDTH 25 0
BBX 23 33 1 0
BITMAP
003800
007C00
003C00
003E00
000F00
000700
000380
000180
000000
000000
000000
000000
003F9C
00F05C
01C07C
038078
078078
0F0078
1E0070
1E0070
3C00F0
3C00F0
7800E0
7801E0
F801E0
F003E0
F007C0
F005C0
F00BC6
F813CC
FC63D8
7FC3F0
3F83E0
ENDCHAR
STARTCHAR 00E1
ENCODING 225
SWIDTH 500 0
DWIDTH 25 0
BBX 23 33 1 0
BITMAP
00001E
00003E
00007C
0000F8
0001E0
000380
000700
000C00
000000
000000
000000
000000
003F9C
00F05C
01C07C
038078
078078
0F0078
1E0070
1E0070
3C00F0
3C00F0
7800E0
7801E0
F801E0
F003E0
F007C0
F005C0
F00BC6
F813CC
FC63D8
7FC3F0
3F83E0
ENDCHAR
STARTCHAR 00E2
ENCODING 226
SWIDTH 500 0
DWIDTH 25 0
BBX 23 33 1 -1
BITMAP
0001E0
0003F0
0007F0
000F78
001C38
00381C
00600C
00C006
000000
000000
000000
000000
003F9C
00F05C
01C07C
038078
078078
0F0078
1E0070
1E0070
3C00F0
3C00F0
7800E0
7801E0
F801E0
F003E0
F007C0
F005C0
F00BC6
F813CC
FC63D8
7FC3F0
3F83E0
ENDCHAR
STARTCHAR 00E3
ENCODING 227
SWIDTH 500 0
DWIDTH 25 0
BBX 24 31 1 -1
BITMAP
000C03
007F86
00FFFC
0187F8
0303E0
000000
000000
000000
000000
000000
003F9C
00F05C
01C07C
038078
078078
0F0078
1E0070
1E0070
3C00F0
3C00F0
7800E0
7801E0
F801E0
F003E0
F007C0
F005C0
F00BC6
F813CC
FC63D8
7FC3F0
3F83E0
ENDCHAR
STARTCHAR 00E4
ENCODING 228
SWIDTH 500 0
DWIDTH 25 0
BBX 24 30 1 -1
BITMAP
001004
003C0F
007C1F
007C1F
003C0F
000000
000000
000000
000000
003F9C
00F05C
01C07C
038078
078078
0F0078
1E0070
1E0070
3C00F0
3C00F0
7800E0
7801E0
F801E0
F003E0
F007C0
F005C0
F00BC6
F813CC
FC63D8
7FC3F0
3F83E0
ENDCHAR
STARTCHAR 00E5
ENCODING 229
SWIDTH 500 0
DWIDTH 25 0
BBX 23 36 1 -1
BITMAP
000080
0003F0
000630
000C18
001818
001818
001830
001830
000FE0
000780
000000
000000
000000
000000
000000
003F9C
00F05C
01C07C
038078
078078
0F0078
1E0070
1E0070
3C00F0
3C00F0
7800E0
7801E0
F801E0
F003E0
F007C0
F005C0
F00BC6
F813CC
FC63D8
7FC3F0
3F83E0
ENDCHAR
STARTCHAR 00E6
ENCODING 230
SWIDTH 640 0
DWIDTH 32 0
BBX 30 21 1 1
BITMAP
003F79F8
00E17E1C
01C0FC1C
0380F81C
0700F01C
0F01F03C
0E01E078
1E01E0E0
3C01C3C0
3C03CE00
7803F000
78078000
78078000
F80F8000
F00F8000
F0178000
F0278030
F067C060
F8C3C1C0
7F83FF00
7E01FC00
ENDCHAR
STARTCHAR 00E7
ENCODING 231
SWIDTH 400 0
DWIDTH 20 0
BBX 20 32 1 -10
BITMAP
007FC0
00E0E0
0380E0
0700F0
0E00E0
1E0000
3C0000
3C0000
780000
780000
F80000
F80000
F00000
F00000
F00000
F00000
F80100
780300
7C0600
3FBC00
1FF000
060000
040000
0C0000
1F0000
1FC000
03C000
01E000
01E000
01C000
FF8000
7F0000
ENDCHAR
STARTCHAR 00E8
ENCODING 232
SWIDTH 400 0
DWIDTH 20 0
BBX 19 33 1 1
BITMAP
003C00
003C00
003E00
001E00
000F00
000780
000380
0001C0
000000
000000
000000
000000
001FC0
0070E0
01C0E0
0380E0
0780E0
0F01E0
1E03C0
3E0780
3C0F00
7C3C00
79F000
FF0000
F80000
F80000
F00000
F00000
F80180
F80300
7C0E00
3FF800
1FE000
ENDCHAR
STARTCHAR 00E9
ENCODING 233
SWIDTH 400 0
DWIDTH 20 0
BBX 22 33 1 1
BITMAP
00001C
00003C
00007C
0001F0
0003C0
000780
000E00
001C00
000000
000000
000000
000000
001FC0
0070E0
01C0E0
0380E0
0780E0
0F01E0
1E03C0
3E0780
3C0F00
7C3C00
79F000
FF0000
F80000
F80000
F00000
F00000
F80180
F80300
7C0E00
3FF800
1FE000
ENDCHAR
STARTCHAR 00EA
ENCODING 234
SWIDTH 400 0
DWIDTH 20 0
BBX 22 33 1 0
BITMAP
0003C0
0007E0
000FE0
001EF0
003870
007038
00C018
01800C
000000
000000
000000
000000
001FC0
0070E0
01C0E0
0380E0
0780E0
0F01E0
1E03C0
3E0780
3C0F00
7C3C00
79F000
FF0000
F80000
F80000
F00000
F00000
F80180
F80300
7C0E00
3FF800
1FE000
ENDCHAR
STARTCHAR 00EB
ENCODING 235
SWIDTH 400 0
DWIDTH 20 0
BBX 22 30 1 0
BITMAP
006018
00F03C
01F07C
01F07C
00F03C
000000
000000
000000
000000
001FC0
0070E0
01C0E0
0380E0
0780E0
0F01E0
1E03C0
3E0780
3C0F00
7C3C00
79F000
FF0000
F80000
F80000
F00000
F00000
F80180
F80300
7C0E00
3FF800
1FE000
ENDCHAR
STARTCHAR 00EC
ENCODING 236
SWIDTH 280 0
DWIDTH 14 0
BBX 12 33 2 1
BITMAP
0F00
0F80
0F80
07C0
03C0
01E0
0060
0030
0000
0000
0000
0000
0F80
7F80
0780
0700
0F00
0F00
0F00
1E00
1E00
1E00
1C00
3C00
3C00
3C00
7800
7800
F880
F100
F200
FC00
F800
ENDCHAR
STARTCHAR 00ED
ENCODING 237
SWIDTH 280 0
DWIDTH 14 0
BBX 14 33 2 1
BITMAP
003C
007C
00F8
01F0
03C0
0700
0E00
1800
0000
0000
0000
0000
0F80
7F80
0780
0700
0F00
0F00
0F00
1E00
1E00
1E00
1C00
3C00
3C00
3C00
7800
7800
F880
F100
F200
FC00
F800
ENDCHAR
STARTCHAR 00EE
ENCODING 238
SWIDTH 280 0
DWIDTH 14 0
BBX 16 33 2 0
BITMAP
00F0
01F8
03F8
07BC
0E1C
1C0E
3806
6003
0000
0000
0000
0000
0F80
7F80
0780
0700
0F00
0F00
0F00
1E00
1E00
1E00
1C00
3C00
3C00
3C00
7800
7800
F880
F100
F200
FC00
F800
ENDCHAR
STARTCHAR 00EF
ENCODING 239
SWIDTH 280 0
DWIDTH 14 0
BBX 16 30 2 0
BITMAP
1806
3C0F
7C1F
3C0F
3C0F
0000
0000
0000
0000
0F80
7F80
0780
0700
0F00
0F00
0F00
1E00
1E00
1E00
1C00
3C00
3C00
3C00
7800
7800
F880
F100
F200
FC00
F800
ENDCHAR
STARTCHAR 00F0
ENCODING 240
SWIDTH 460 0
DWIDTH 23 0
BBX 22 34 1 0
BITMAP
00F800
003E1C
000F7C
0007F0
0007C0
003FE0
00F9E0
00E0F0
000070
000078
000038
00003C
00003C
003FBC
00E05C
03C07C
07803C
0F003C
0F003C
1E003C
3C003C
3C003C
7C0078
780078
F80078
F800F0
F000F0
F001E0
F001C0
F00380
F00780
780600
381C00
1FF000
ENDCHAR
STARTCHAR 00F1
ENCODING 241
SWIDTH 500 0
DWIDTH 25 0
BBX 24 31 1 0
BITMAP
000C03
007F86
00FFFC
018FF8
0303E0
000000
000000
000000
000000
004040
0783F0
3F87F8
0F8C78
071878
0F3078
0F2070
0F40F0
0E80F0
1E80F0
1F00E0
1E01E0
3E01E0
3C01C0
3C03C0
7803C0
7803C0
780384
700788
F00790
F007E0
E007C0
ENDCHAR
STARTCHAR 00F2
ENCODING 242
SWIDTH 480 0
DWIDTH 24 0
BBX 22 33 1 1
BITMAP
001E00
001E00
001F00
000F80
000780
0003C0
0001C0
0000E0
000000
000000
000000
000000
003FE0
00E070
01C078
07803C
0F003C
1F003C
1E003C
3C003C
7C003C
7C007C
780078
F80078
F800F8
F000F0
F001E0
F001E0
F003C0
F00780
780600
381C00
1FF000
ENDCHAR
STARTCHAR 00F3
ENCODING 243
SWIDTH 480 0
DWIDTH 24 0
BBX 22 33 1 1
BITMAP
00001C
00003C
00007C
0000F0
0001E0
000380
000600
000C00
000000
000000
000000
000000
003FE0
00E070
01C078
07803C
0F003C
1F003C
1E003C
3C003C
7C003C
7C007C
780078
F80078
F800F8
F000F0
F001E0
F001E0
F003C0
F00780
780600
381C00
1FF000
ENDCHAR
STARTCHAR 00F4
ENCODING 244
SWIDTH 480 0
DWIDTH 24 0
BBX 24 33 1 0
BITMAP
0000F0
0001F0
0003F8
00073C
000E1C
001C0E
003006
006003
000000
000000
000000
000000
003FE0
00E070
01C078
07803C
0F003C
1F003C
1E003C
3C003C
7C003C
7C007C
780078
F80078
F800F8
F000F0
F001E0
F001E0
F003C0
F00780
780600
381C00
1FF000
ENDCHAR
STARTCHAR 00F5
ENCODING 245
SWIDTH 480 0
DWIDTH 24 0
BBX 25 30 1 0
BITMAP
000F0180
003FC300
007FFE00
00C3FC00
0100F000
00000000
00000000
00000000
00000000
003FE000
00E07000
01C07800
07803C00
0F003C00
1F003C00
1E003C00
3C003C00
7C003C00
7C007C00
78007800
F8007800
F800F800
F000F000
F001E000
F001E000
F003C000
F0078000
78060000
381C0000
1FF00000
ENDCHAR
STARTCHAR 00F6
ENCODING 246
SWIDTH 480 0
DWIDTH 24 0
BBX 24 30 1 0
BITMAP
001004
003C0F
007C1F
007C1F
003C0F
000000
000000
000000
000000
003FE0
00E070
01C078
07803C
0F003C
1F003C
1E003C
3C003C
7C003C
7C007C
780078
F80078
F800F8
F000F0
F001E0
F001E0
F003C0
F00780
780600
381C00
1FF000
ENDCHAR
STARTCHAR 00F7
ENCODING 247
SWIDTH 680 0
DWIDTH 34 0
BBX 26 26 4 0
BITMAP
00080000
001C0000
003E0000
003E0000
003E0000
001C0000
00000000
00000000
00000000
00000000
00000000
00000000
FFFFFFC0
FFFFFFC0
FFFFFFC0
00000000
00000000
00000000
00000000
00000000
00000000
001C0000
003E0000
003E0000
003E0000
001C0000
ENDCHAR
STARTCHAR 00F8
ENCODING 248
SWIDTH 480 0
DWIDTH 24 0
BBX 22 34 1 -7
BITMAP
000030
000020
000060
000040
0000C0
000080
003FE0
00E178
01C378
07823C
0F063C
0F043C
1E0C3C
3C083C
3C183C
7C107C
783078
F82078
F860F8
F040F0
F0C1E0
F081E0
F183C0
710780
7B0E00
3E1C00
1FF000
040000
0C0000
080000
180000
100000
300000
200000
ENDCHAR
STARTCHAR 00F9
ENCODING 249
SWIDTH 480 0
DWIDTH 24 0
BBX 21 33 2 1
BITMAP
00E000
01F000
00F800
007800
003C00
001C00
000E00
000600
000000
000000
000000
000000
0F0078
7F0070
1E00F0
1E00F0
1E01F0
1E01E0
3C01E0
3C03E0
3C03E0
3C07C0
7807C0
780BC0
781F80
781780
702780
F06788
F0CF08
F18F10
F30F20
FE0FC0
FC0F80
ENDCHAR
STARTCHAR 00FA
ENCODING 250
SWIDTH 480 0
DWIDTH 24 0
BBX 21 33 2 1
BITMAP
000038
000078
0000F8
0001E0
0003C0
000700
000C00
001800
000000
000000
000000
000000
0F0078
7F0070
1E00F0
1E00F0
1E01F0
1E01E0
3C01E0
3C03E0
3C03E0
3C07C0
7807C0
780BC0
781F80
781780
702780
F06788
F0CF08
F18F10
F30F20
FE0FC0
FC0F80
ENDCHAR
STARTCHAR 00FB
ENCODING 251
SWIDTH 480 0
DWIDTH 24 0
BBX 21 33 2 0
BITMAP
000F80
001F80
003FC0
007BC0
00F1E0
01C0E0
038070
060030
000000
000000
000000
000000
0F0078
7F0070
1E00F0
1E00F0
1E01F0
1E01E0
3C01E0
3C03E0
3C03E0
3C07C0
7807C0
780BC0
781F80
781780
702780
F06788
F0CF08
F18F10
F30F20
FE0FC0
FC0F80
ENDCHAR
STARTCHAR 00FC
ENCODING 252
SWIDTH 480 0
DWIDTH 24 0
BBX 23 30 2 0
BITMAP
002008
00F03C
00F83E
00F83E
00F03C
000000
000000
000000
000000
0F0078
7F0070
1E00F0
1E00F0
1E01F0
1E01E0
3C01E0
3C03E0
3C03E0
3C07C0
7807C0
780BC0
781F80
781780
702780
F06788
F0CF08
F18F10
F30F20
FE0FC0
FC0F80
ENDCHAR
STARTCHAR 00FD
ENCODING 253
SWIDTH 460 0
DWIDTH 23 0
BBX 22 43 1 -9
BITMAP
000038
000078
0000F8
0001E0
000380
000700
001C00
003800
000000
000000
000000
000000
1F8038
2FC03C
03C03C
01E01C
01E00C
01E008
00F008
00F018
00F010
007830
007820
007860
007840
0038C0
003880
003D80
003D00
003E00
001E00
001C00
001800
001800
003000
002000
004000
00C000
018000
430000
FE0000
FC0000
F00000
ENDCHAR
STARTCHAR 00FE
ENCODING 254
SWIDTH 480 0
DWIDTH 24 0
BBX 27 44 -4 -10
BITMAP
003FC000
003FC000
00078000
00078000
00078000
00078000
00070000
000F0000
000F0000
000F0000
000E0000
001E0000
001E0000
001C3F80
003CFFC0
003D83E0
003F01E0
003E01E0
007C01E0
007801E0
007801E0
007801E0
00F003E0
00F003E0
00F003C0
00E007C0
01E00780
01E00F00
01E00F00
01C01E00
03C03C00
03C07800
03C0E000
07FF8000
07800000
07800000
07000000
0F000000
0F000000
0F000000
0E000000
1E000000
3F000000
FFC00000
ENDCHAR
STARTCHAR 00FF
ENCODING 255
SWIDTH 460 0
DWIDTH 23 0
BBX 22 40 1 -10
BITMAP
004010
01E078
01F07C
01F07C
00E038
000000
000000
000000
000000
1F8038
2FC03C
03C03C
01E01C
01E00C
01E008
00F008
00F018
00F010
007830
007820
007860
007840
0038C0
003880
003D80
003D00
003E00
001E00
001C00
001800
001800
003000
002000
004000
00C000
018000
430000
FE0000
FC0000
F00000
ENDCHAR
STARTCHAR 0100
ENCODING 256
SWIDTH 660 0
DWIDTH 33 0
BBX 31 40 0 0
BITMAP
000FFFE0
000FFFE0
00000000
00000000
00000000
00000000
00000000
00000C00
00000C00
00001E00
00001E00
00003E00
00003E00
00007E00
0000DE00
0000DF00
00019F00
00019F00
00031F00
00061F00
00060F00
000C0F80
000C0F80
00180F80
00380F80
00300F80
00600780
007FFFC0
00FFFFC0
01C007C0
018007C0
038007C0
030003C0
070003E0
0E0003E0
0E0003E0
1C0003E0
3C0003F0
7E0007F0
FF803FFE
ENDCHAR
STARTCHAR 0101
ENCODING 257
SWIDTH 500 0
DWIDTH 25 0
BBX 24 30 1 -1
BITMAP
007FFF
007FFF
00FFFE
000000
000000
000000
000000
000000
000000
003F9C
00F05C
01C07C
038078
078078
0F0078
1E0070
1E0070
3C00F0
3C00F0
7800E0
7801E0
F801E0
F003E0
F007C0
F005C0
F00BC6
F813CC
FC63D8
7FC3F0
3F83E0
ENDCHAR
STARTCHAR 0102
ENCODING 258
SWIDTH 660 0
DWIDTH 33 0
BBX 31 44 0 0
BITMAP
00030010
00030030
00030060
00030060
000380C0
0003FFC0
0001FF80
0000FE00
00000000
00000000
00000000
00000C00
00000C00
00001E00
00001E00
00003E00
00003E00
00007E00
0000DE00
0000DF00
00019F00
00019F00
00031F00
00061F00
00060F00
000C0F80
000C0F80
00180F80
00380F80
00300F80
00600780
007FFFC0
00FFFFC0
01C007C0
018007C0
038007C0
030003C0
070003E0
0E0003E0
0E0003E0
1C0003E0
3C0003F0
7E0007F0
FF803FFE
ENDCHAR
STARTCHAR 0103
ENCODING 259
SWIDTH 500 0
DWIDTH 25 0
BBX 23 34 1 -1
BITMAP
006002
006006
006006
00600C
00701C
007838
003FF0
003FE0
000F80
000000
000000
000000
000000
003F9C
00F05C
01C07C
038078
078078
0F0078
1E0070
1E0070
3C00F0
3C00F0
7800E0
7801E0
F801E0
F003E0
F007C0
F005C0
F00BC6
F813CC
FC63D8
7FC3F0
3F83E0
ENDCHAR
STARTCHAR 0104
ENCODING 260
SWIDTH 620 0
DWIDTH 31 0
BBX 38 41 -3 -8
BITMAP
0000060000
00000E0000
00000E0000
00001E0000
00001E0000
00003F0000
00007F0000
00007F0000
0000DF0000
0000DF0000
00018F0000
00030F8000
00030F8000
00060F8000
00060F8000
000C0F8000
001C078000
001807C000
003007C000
003007C000
007FFFC000
00FFFFC000
00C003C000
01C003E000
018003E000
038003E000
070003E000
070003E000
0E0001E000
0E0001F000
1E0003F000
3E0007F800
FFC01FFE00
0000000E00
0000001C00
0000001C00
0000001C04
0000001FFC
0000000FF8
0000000FF0
00000003C0
ENDCHAR
STARTCHAR 0105
ENCODING 261
SWIDTH 500 0
DWIDTH 25 0
BBX 24 29 1 -7
BITMAP
003F9C
00F05C
01C07C
038078
078078
0F0078
1E0070
1E0070
3C00F0
3C00F0
7800E0
7801E0
F801E0
F003E0
F007C0
F005C0
F00BC6
F813CC
F863D8
7FC3F0
3F83E0
000380
000700
000700
000701
0007FF
0003FE
0003FC
0000F0
ENDCHAR
STARTCHAR 0106
ENCODING 262
SWIDTH 620 0
DWIDTH 31 0
BBX 32 45 2 -1
BITMAP
00000018
0000003C
0000007C
000000F0
000001E0
00000380
00000700
00000C00
00001000
00000000
00000800
0001FFE3
000FF3FF
003F007E
007C001E
00F8001E
01F0000E
03E0000E
07C00004
0F800004
1F000004
1F000000
3E000000
3E000000
7E000000
7C000000
7C000000
FC000000
F8000000
F8000000
F8000000
F8000000
F8000000
F8000000
F8000000
F8000000
7C000000
7C000020
7C0000C0
3E000180
1F000300
0F800E00
07F07C00
03FFF000
007F8000
ENDCHAR
STARTCHAR 0107
ENCODING 263
SWIDTH 400 0
DWIDTH 20 0
BBX 22 33 1 1
BITMAP
00003C
00007C
0000F8
0001F0
0003C0
000780
000E00
001800
000000
000000
000000
000000
007FC0
01E0E0
0380E0
0700F0
0E00E0
1E0000
3C0000
3C0000
780000
780000
F80000
F80000
F00000
F00000
F00000
F00000
F80100
780300
7C0600
3F3800
1FF000
ENDCHAR
STARTCHAR 0108
ENCODING 264
SWIDTH 620 0
DWIDTH 31 0
BBX 32 44 2 -1
BITMAP
00000780
00000F80
00001FC0
000039C0
000070E0
0000E070
00018030
00030018
00000000
00000800
0001FFE3
000FF3FF
003F007E
007C001E
00F8001E
01F0000E
03E0000E
07C00004
0F800004
1F000004
1F000000
3E000000
3E000000
7E000000
7C000000
7C000000
FC000000
F8000000
F8000000
F8000000
F8000000
F8000000
F8000000
F8000000
F8000000
7C000000
7C000020
7C0000C0
3E000180
1F000300
0F800E00
07F07C00
03FFF000
007F8000
ENDCHAR
STARTCHAR 0109
ENCODING 265
SWIDTH 400 0
DWIDTH 20 0
BBX 23 33 1 0
BITMAP
0001E0
0003E0
0007F0
000E70
001C38
00381C
00600C
00C006
000000
000000
000000
000000
007FC0
01E0E0
0380E0
0700F0
0E00E0
1E0000
3C0000
3C0000
780000
780000
F80000
F80000
F00000
F00000
F00000
F00000
F80100
780300
7C0600
3F3800
1FF000
ENDCHAR
STARTCHAR 010A
ENCODING 266
SWIDTH 620 0
DWIDTH 31 0
BBX 32 42 2 -1
BITMAP
00000700
00000F00
00001F80
00000F00
00000600
00000000
00000000
00000800
0001FFE3
000FF3FF
003F007E
007C001E
00F8001E
01F0000E
03E0000E
07C00004
0F800004
1F000004
1F000000
3E000000
3E000000
7E000000
7C000000
7C000000
FC000000
F8000000
F8000000
F8000000
F8000000
F8000000
F8000000
F8000000
F8000000
7C000000
7C000020
7C0000C0
3E000180
1F000300
0F800E00
07F07C00
03FFF000
007F8000
ENDCHAR
STARTCHAR 010B
ENCODING 267
SWIDTH 400 0
DWIDTH 20 0
BBX 20 30 1 0
BITMAP
000180
0003C0
0007C0
0007C0
0003C0
000000
000000
000000
000000
007FC0
01E0E0
0380E0
0700F0
0E00E0
1E0000
3C0000
3C0000
780000
780000
F80000
F80000
F00000
F00000
F00000
F00000
F80100
780300
7C0600
3F3800
1FF000
ENDCHAR
STARTCHAR 010C
ENCODING 268
SWIDTH 620 0
DWIDTH 31 0
BBX 32 45 2 -1
BITMAP
0001800C
0000C018
0000E070
000070E0
000079C0
00003F80
00003F00
00001E00
00000000
00000000
00000800
0001FFE3
000FF3FF
003F007E
007C001E
00F8001E
01F0000E
03E0000E
07C00004
0F800004
1F000004
1F000000
3E000000
3E000000
7E000000
7C000000
7C000000
FC000000
F8000000
F8000000
F8000000
F8000000
F8000000
F8000000
F8000000
F8000000
7C000000
7C000020
7C0000C0
3E000180
1F000300
0F800E00
07F07C00
03FFF000
007F8000
ENDCHAR
STARTCHAR 010D
ENCODING 269
SWIDTH 400 0
DWIDTH 20 0
BBX 24 33 1 0
BITMAP
007003
00300E
00181C
001C78
000EF0
000FE0
0007C0
000780
000000
000000
000000
000000
007FC0
01E0E0
0380E0
0700F0
0E00E0
1E0000
3C0000
3C0000
780000
780000
F80000
F80000
F00000
F00000
F00000
F00000
F80100
780300
7C0600
3F3800
1FF000
ENDCHAR
STARTCHAR 010E
ENCODING 270
SWIDTH 700 0
DWIDTH 35 0
BBX 35 44 0 0
BITMAP
0001800C00
0000C01800
0000E07000
000070E000
000079C000
00003F8000
00003F0000
00001E0000
0000000000
0000000000
0000000000
01FFFF8000
003FFFF000
001F00FC00
001F003E00
001F001F00
003E000F80
003E000780
003E0007C0
003E0007C0
007C0003E0
007C0003E0
007C0003E0
00F80003E0
00F80003E0
00F80003E0
00F80003E0
01F00003E0
01F00007E0
01F00007C0
01F00007C0
03E00007C0
03E0000F80
03E0000F80
07C0001F00
07C0003F00
07C0003E00
07C0007C00
0F8000F800
0F8003F000
0F8007C000
1F803F0000
3FFFFC0000
FFFFC00000
ENDCHAR
STARTCHAR 010F
ENCODING 271
SWIDTH 620 0
DWIDTH 31 0
BBX 34 34 1 0
BITMAP
00003F8000
00003F83C0
00000703C0
0000070780
00000F0700
00000F0F00
00000E1E00
00000E1C00
00001E3800
00001E3000
00001C6000
00001C0000
00003C0000
003FBC0000
00F0B80000
01C0F80000
0380F80000
0780F00000
0F00F00000
1E00F00000
1E00F00000
3C00E00000
3C01E00000
7801E00000
7801C00000
F803C00000
F803C00000
F007C00000
F00B800000
F00F840000
F817880000
F867900000
7FC7E00000
3F87C00000
ENDCHAR
STARTCHAR 0110
ENCODING 272
SWIDTH 700 0
DWIDTH 35 0
BBX 35 33 0 0
BITMAP
01FFFF8000
003FFFF000
001F00FC00
001F003E00
001F001F00
003E000F80
003E000780
003E0007C0
003E0007C0
007C0003E0
007C0003E0
007C0003E0
00F80003E0
00F80003E0
00F80003E0
1FFFF003E0
1FFFF003E0
01F00003E0
01F00007E0
01F00007C0
03E00007C0
03E0000FC0
03E0000F80
07C0001F00
07C0001F00
07C0003E00
07C0007C00
0F8000F800
0F8003F000
0F8007C000
1F803F0000
3FFFFC0000
FFFFC00000
ENDCHAR
STARTCHAR 0111
ENCODING 273
SWIDTH 500 0
DWIDTH 25 0
BBX 27 35 1 0
BITMAP
00000080
00003F80
00003F80
00000780
00000780
00000700
000FFFE0
001FFFE0
00000F00
00001E00
00001E00
00001E00
00001E00
00003C00
003FBC00
00F0BC00
01C0F800
0380F800
0780F800
0F00F800
1E00F000
1E00F000
3C00F000
3C01E000
7801E000
7801E000
F803E000
F803C000
F007C000
F00BC000
F00F8400
F8178800
F8679000
7FC7E000
3F87C000
ENDCHAR
STARTCHAR 0112
ENCODING 274
SWIDTH 620 0
DWIDTH 31 0
BBX 31 40 0 0
BITMAP
0003FFF8
0003FFF8
00000000
00000000
00000000
00000000
00000000
01FFFFFE
003FFFFE
001F000E
001F0006
001F0004
003E0004
003E0004
003E0000
003C0000
007C0000
007C0080
007C0100
00F80300
00F80700
00FFFE00
00FFFE00
01F01E00
01F00C00
01F00C00
01E00C00
03E00800
03E00000
03E00000
07C00000
07C00000
07C00010
07800030
0F800070
0F8000E0
0F8001E0
1F8007E0
3FFFFFC0
FFFFFFC0
ENDCHAR
STARTCHAR 0113
ENCODING 275
SWIDTH 400 0
DWIDTH 20 0
BBX 22 30 1 0
BITMAP
01FFFC
01FFFC
03FFF8
000000
000000
000000
000000
000000
000000
001FC0
0070E0
01C0E0
0380E0
0780E0
0F01E0
1E03C0
3E0780
3C0F00
7C3C00
79F000
FF0000
F80000
F80000
F00000
F00000
F80180
F80300
7C0E00
3FF800
1FE000
ENDCHAR
STARTCHAR 0114
ENCODING 276
SWIDTH 620 0
DWIDTH 31 0
BBX 31 44 0 0
BITMAP
0000C004
0000C00C
0000C00C
0000C018
0000E030
0000FFF0
00007FE0
00003F80
00000000
00000000
00000000
01FFFFFE
003FFFFE
001F000E
001F0006
001F0004
003E0004
003E0004
003E0000
003C0000
007C0000
007C0080
007C0100
00F80300
00F80700
00FFFE00
00FFFE00
01F01E00
01F00C00
01F00C00
01E00C00
03E00800
03E00000
03E00000
07C00000
07C00000
07C00010
07800030
0F800070
0F8000E0
0F8001E0
1F8007E0
3FFFFFC0
FFFFFFC0
ENDCHAR
STARTCHAR 0115
ENCODING 277
SWIDTH 400 0
DWIDTH 20 0
BBX 24 33 1 0
BITMAP
002003
002006
003006
00300C
00381C
003FF8
001FF0
000FC0
000000
000000
000000
000000
001FC0
0070E0
01C0E0
0380E0
0780E0
0F01E0
1E03C0
3E0780
3C0F00
7C3C00
79F000
FF0000
F80000
F80000
F00000
F00000
F80180
F80300
7C0E00
3FF800
1FE000
ENDCHAR
STARTCHAR 0116
ENCODING 278
SWIDTH 620 0
DWIDTH 31 0
BBX 31 40 0 0
BITMAP
00000700
00000F80
00000F80
00000F80
00000700
00000000
00000000
01FFFFFE
003FFFFE
001F000E
001F0006
001F0004
003E0004
003E0004
003E0000
003C0000
007C0000
007C0080
007C0100
00F80300
00F80700
00FFFE00
00FFFE00
01F01E00
01F00C00
01F00C00
01E00C00
03E00800
03E00000
03E00000
07C00000
07C00000
07C00010
07800030
0F800070
0F8000E0
0F8001E0
1F8007E0
3FFFFFC0
FFFFFFC0
ENDCHAR
STARTCHAR 0117
ENCODING 279
SWIDTH 400 0
DWIDTH 20 0
BBX 19 30 1 0
BITMAP
0001C0
0003E0
0003E0
0003E0
0001C0
000000
000000
000000
000000
001FC0
0070E0
01C0E0
0380E0
0780E0
0F01E0
1E03C0
3E0780
3C0F00
7C3C00
79F000
FF0000
F80000
F80000
F00000
F00000
F80180
F80300
7C0E00
3FF800
1FE000
ENDCHAR
STARTCHAR 0118
ENCODING 280
SWIDTH 620 0
DWIDTH 31 0
BBX 31 41 1 -8
BITMAP
01FFFFFC
007FFFFC
003E001C
003E000C
003E0008
007C0008
007C0008
007C0000
00780000
00F80000
00F80100
00F80200
01F00600
01F00E00
01FFFC00
01FFFC00
03E03C00
03E01800
03E01800
07C01800
07C01000
07C00000
07C00000
0F800000
0F800020
0F800020
0F000060
1F0000C0
1F0001C0
1F0003C0
3F000F80
7FFFFF80
FFFFFF80
00000300
00000700
00000700
00000702
000007DE
000003FC
000003F8
000000F0
ENDCHAR
STARTCHAR 0119
ENCODING 281
SWIDTH 400 0
DWIDTH 20 0
BBX 21 29 1 -7
BITMAP
001FC0
0070E0
01E0E0
0380E0
0780E0
0F01E0
1E03C0
3E0780
3C0F00
7C3C00
79F000
FF0000
F80000
F80000
F00000
F00000
F80080
F80300
7C0E00
3FFC00
1FEC00
001800
003800
003800
003800
003FF8
001FF0
001FE0
000780
ENDCHAR
STARTCHAR 011A
ENCODING 282
SWIDTH 620 0
DWIDTH 31 0
BBX 31 44 0 0
BITMAP
00004002
0000600E
0000301C
00003878
00001CF0
00001FE0
00000FC0
00000F80
00000000
00000000
00000000
01FFFFFE
003FFFFE
001F000E
001F0006
001F0004
003E0004
003E0004
003E0000
003C0000
007C0000
007C0080
007C0100
00F80300
00F80700
00FFFE00
00FFFE00
01F01E00
01F00C00
01F00C00
01E00C00
03E00800
03E00000
03E00000
07C00000
07C00000
07C00010
07800030
0F800070
0F8000E0
0F8001E0
1F8007E0
3FFFFFC0
FFFFFFC0
ENDCHAR
STARTCHAR 011B
ENCODING 283
SWIDTH 400 0
DWIDTH 20 0
BBX 25 33 1 0
BITMAP
00300380
00180600
001C1C00
000E3800
000F7000
0007F000
0007E000
0003C000
00000000
00000000
00000000
00000000
001FC000
0070E000
01C0E000
0380E000
0780E000
0F01E000
1E03C000
3E078000
3C0F0000
7C3C0000
79F00000
FF000000
F8000000
F8000000
F0000000
F0000000
F8018000
F8030000
7C0E0000
3FF80000
1FE00000
ENDCHAR
STARTCHAR 011C
ENCODING 284
SWIDTH 700 0
DWIDTH 35 0
BBX 33 44 2 -1
BITMAP
0000078000
00000F8000
00001FC000
000039C000
000070E000
0000E07000
0001803000
0003001800
0000000000
0000000000
0003FFE080
000FC0FF80
003E003F80
0078001F80
00F0000F00
01E0000700
03C0000700
07C0000300
0F80000200
1F00000200
1F00000000
3E00000000
3E00000000
7E00000000
7C00000000
7C00000000
FC00000000
FC000FFF80
F80001FC00
F80000F800
F80000F800
F80000F000
F80000F000
F80000F000
F80001F000
7C0001E000
7C0001E000
3C0003E000
3E0003E000
1F0003C000
0F8007C000
07E01F8000
01FFFC0000
003FE00000
ENDCHAR
STARTCHAR 011D
ENCODING 285
SWIDTH 440 0
DWIDTH 22 0
BBX 24 43 -1 -10
BITMAP
0001F0
0003F0
0003F8
000738
000E1C
001C0C
003006
006003
000000
000000
000000
000000
007FE0
00F0FE
03C07E
07C078
078078
0F0078
0F0078
0F00F8
0F00F0
0F00F0
0F01E0
0703C0
038780
00FE00
030000
070000
0F0000
0FE000
0FFC00
07FF00
087FC0
300FC0
7003E0
E001E0
E000E0
E000E0
E000C0
E001C0
700380
3C0E00
0FF000
ENDCHAR
STARTCHAR 011E
ENCODING 286
SWIDTH 700 0
DWIDTH 35 0
BBX 33 45 2 -1
BITMAP
0000800C00
0000800800
0000C01800
0000C03800
0000E07000
0000FFE000
00007FC000
00003F8000
0000000000
0000000000
0000000000
0003FFE080
000FC0FF80
003E003F80
0078001F80
00F0000F00
01E0000700
03C0000700
07C0000300
0F80000200
1F00000200
1F00000000
3E00000000
3E00000000
7E00000000
7C00000000
7C00000000
FC00000000
FC000FFF80
F80001FC00
F80000F800
F80000F800
F80000F000
F80000F000
F80000F000
F80001F000
7C0001E000
7C0001E000
3C0003E000
3E0003E000
1F0003C000
0F8007C000
07E01F8000
01FFFC0000
003FE00000
ENDCHAR
STARTCHAR 011F
ENCODING 287
SWIDTH 440 0
DWIDTH 22 0
BBX 24 44 -1 -10
BITMAP
002001
002003
002006
003006
00300C
003C3C
003FF8
001FF0
0007C0
000000
000000
000000
000000
007FE0
00F0FE
03C07E
07C078
078078
0F0078
0F0078
0F00F8
0F00F0
0F00F0
0F01E0
0703C0
038780
00FE00
030000
070000
0F0000
0FE000
0FFC00
07FF00
087FC0
300FC0
7003E0
E001E0
E000E0
E000E0
E000C0
E001C0
700380
3C0E00
0FF000
ENDCHAR
STARTCHAR 0120
ENCODING 288
SWIDTH 700 0
DWIDTH 35 0
BBX 33 42 2 -1
BITMAP
0000060000
00000F0000
00000F8000
00000F0000
00000F0000
0000000000
0000000000
0000000000
0003FFE080
000FC0FF80
003E003F80
0078001F80
00F0000F00
01E0000700
03C0000700
07C0000300
0F80000200
1F00000200
1F00000000
3E00000000
3E00000000
7E00000000
7C00000000
7C00000000
FC00000000
FC000FFF80
F80001FC00
F80000F800
F80000F800
F80000F000
F80000F000
F80000F000
F80001F000
7C0001E000
7C0001E000
3C0003E000
3E0003E000
1F0003C000
0F8007C000
07E01F8000
01FFFC0000
003FE00000
ENDCHAR
STARTCHAR 0121
ENCODING 289
SWIDTH 440 0
DWIDTH 22 0
BBX 23 40 -1 -10
BITMAP
0001C0
0003E0
0003E0
0003E0
0001C0
000000
000000
000000
000000
007FE0
00F0FE
03C07E
07C078
078078
0F0078
0F0078
0F00F8
0F00F0
0F00F0
0F01E0
0703C0
038780
00FE00
030000
070000
0F0000
0FE000
0FFC00
07FF00
087FC0
300FC0
7003E0
E001E0
E000E0
E000E0
E000C0
E001C0
700380
3C0E00
0FF000
ENDCHAR
STARTCHAR 0122
ENCODING 290
SWIDTH 700 0
DWIDTH 35 0
BBX 33 48 2 -14
BITMAP
0003FFE080
000FC0FF80
003E003F80
0078001F80
00F0000F00
01E0000700
03C0000700
07C0000300
0F80000200
1F00000200
1F00000000
3E00000000
3E00000000
7E00000000
7C00000000
7C00000000
FC00000000
FC000FFF80
F80001FC00
F80000F800
F80000F800
F80000F000
F80000F000
F80000F000
F80001F000
7C0001E000
7C0001E000
3C0003E000
3E0003E000
1F0003C000
0F8007C000
07E01F8000
01FFFC0000
003FE00000
0000000000
0000000000
0000000000
001E000000
001F000000
001F000000
000F000000
000F000000
0007000000
0006000000
000C000000
0018000000
0030000000
0060000000
ENDCHAR
STARTCHAR 0123
ENCODING 291
SWIDTH 440 0
DWIDTH 22 0
BBX 23 47 -1 -10
BITMAP
000018
000030
000060
0000C0
000180
000380
0003C0
0003C0
0003E0
0003E0
0001E0
000000
000000
000000
000000
000000
007FE0
00F0FE
03C07E
07C078
078078
0F0078
0F0078
0F00F8
0F00F0
0F00F0
0F01E0
0703C0
038780
00FE00
030000
070000
0F0000
0FE000
0FFC00
07FF00
087FC0
300FC0
7003E0
E001E0
E000E0
E000E0
E000C0
E001C0
700380
3C0E00
0FF000
ENDCHAR
STARTCHAR 0124
ENCODING 292
SWIDTH 700 0
DWIDTH 35 0
BBX 39 43 0 0
BITMAP
000001E000
000003F000
000007F000
00000F7800
00001C3800
0000381C00
0000700E00
0000C00600
0000000000
0000000000
01FFF03FFE
007FC007F8
001F0003E0
001F0003E0
001E0003E0
003E0003C0
003E0007C0
003E0007C0
003C0007C0
007C000F80
007C000F80
007C000F80
00F8000F00
00F8001F00
00F8001F00
00FFFFFF00
01FFFFFE00
01F0003E00
01F0003E00
01E0003E00
03E0007C00
03E0007C00
03E0007C00
07C0007800
07C000F800
07C000F800
078000F800
0F8001F000
0F8001F000
0F8001F000
1F8003F000
3FC007F800
FFF03FFF00
ENDCHAR
STARTCHAR 0125
ENCODING 293
SWIDTH 500 0
DWIDTH 25 0
BBX 28 43 1 0
BITMAP
00000F00
00001F80
00003F80
00007BC0
0000E1C0
0001C0E0
00038070
00060030
00000000
00780000
07F00000
00F00000
00F00000
00E00000
01E00000
01E00000
01E00000
01C00000
03C00000
03C00000
03C00000
03800000
0781F000
0787F800
078E7800
07187800
0F307800
0F607000
0F40F000
1E80F000
1F80F000
1F01E000
1E01E000
3E01E000
3C01C000
3C03C000
3C03C000
7803C000
78038400
78078800
70079000
F007F000
F007C000
ENDCHAR
STARTCHAR 0126
ENCODING 294
SWIDTH 720 0
DWIDTH 36 0
BBX 38 33 0 0
BITMAP
03FFF03FFC
007FC00FF0
003F0007E0
003E0007E0
003E0007C0
07FFFFFFFC
07FFFFFFFC
007C000780
007C000F80
007C000F80
0078000F80
00F8001F00
00F8001F00
00F8001F00
01F0001F00
01FFFFFE00
01FFFFFE00
01F0003E00
03E0003C00
03E0007C00
03E0007C00
03C0007C00
07C000F800
07C000F800
07C000F800
0F8000F800
0F8001F000
0F8001F000
0F8001F000
1F0003F000
1F0003F000
3F800FF000
FFF03FFE00
ENDCHAR
STARTCHAR 0127
ENCODING 295
SWIDTH 500 0
DWIDTH 25 0
BBX 22 34 1 0
BITMAP
00F800
07F000
00F000
00F000
00E000
1FFFF8
1FFFF0
01E000
01C000
03C000
03C000
03C000
038000
0781F0
0787F8
078E78
071878
0F3078
0F6070
0F40F0
1E80F0
1F80F0
1F01E0
1E01E0
3E01E0
3C01C0
3C03C0
3C03C0
7803C0
780384
780788
700790
F007F0
F007C0
ENDCHAR
STARTCHAR 0128
ENCODING 296
SWIDTH 340 0
DWIDTH 17 0
BBX 23 40 0 0
BITMAP
003E02
00FF8C
01FFF8
0307F0
0601C0
000000
000000
01FFF0
003FC0
001F00
001F00
001F00
003E00
003E00
003E00
003C00
007C00
007C00
007C00
00F800
00F800
00F800
00F800
01F000
01F000
01F000
01E000
03E000
03E000
03E000
07C000
07C000
07C000
078000
0F8000
0F8000
0F8000
1F8000
3FC000
FFF000
ENDCHAR
STARTCHAR 0129
ENCODING 297
SWIDTH 280 0
DWIDTH 14 0
BBX 18 30 2 0
BITMAP
0000C0
1FC180
3FF300
67FE00
C1FC00
000000
000000
000000
000000
0F8000
7F8000
078000
070000
0F0000
0F0000
0F0000
1E0000
1E0000
1E0000
1C0000
3C0000
3C0000
3C0000
780000
780000
F88000
F10000
F20000
FC0000
F80000
ENDCHAR
STARTCHAR 012A
ENCODING 298
SWIDTH 340 0
DWIDTH 17 0
BBX 22 40 0 0
BITMAP
01FFFC
01FFFC
000000
000000
000000
000000
000000
01FFF0
003FC0
001F00
001F00
001F00
003E00
003E00
003E00
003C00
007C00
007C00
007C00
00F800
00F800
00F800
00F800
01F000
01F000
01F000
01E000
03E000
03E000
03E000
07C000
07C000
07C000
078000
0F8000
0F8000
0F8000
1F8000
3FC000
FFF000
ENDCHAR
STARTCHAR 012B
ENCODING 299
SWIDTH 280 0
DWIDTH 14 0
BBX 17 30 2 0
BITMAP
3FFF80
3FFF80
3FFF80
000000
000000
000000
000000
000000
000000
0F8000
7F8000
078000
070000
0F0000
0F0000
0F0000
1E0000
1E0000
1E0000
1C0000
3C0000
3C0000
3C0000
780000
780000
F88000
F10000
F20000
FC0000
F80000
ENDCHAR
STARTCHAR 012C
ENCODING 300
SWIDTH 340 0
DWIDTH 17 0
BBX 23 44 0 0
BITMAP
004006
004006
00600C
00601C
007038
007FF0
003FE0
001FC0
000000
000000
000000
01FFF0
003FC0
001F00
001F00
001F00
003E00
003E00
003E00
003C00
007C00
007C00
007C00
00F800
00F800
00F800
00F800
01F000
01F000
01F000
01E000
03E000
03E000
03E000
07C000
07C000
07C000
078000
0F8000
0F8000
0F8000
1F8000
3FC000
FFF000
ENDCHAR
STARTCHAR 012D
ENCODING 301
SWIDTH 280 0
DWIDTH 14 0
BBX 17 33 2 0
BITMAP
180080
180180
180300
1C0300
1E0E00
0FFE00
0FF800
03F000
000000
000000
000000
000000
0F8000
7F8000
078000
070000
0F0000
0F0000
0F0000
1E0000
1E0000
1E0000
1C0000
3C0000
3C0000
3C0000
780000
780000
F88000
F10000
F20000
FC0000
F80000
ENDCHAR
STARTCHAR 012E
ENCODING 302
SWIDTH 340 0
DWIDTH 17 0
BBX 19 41 0 -8
BITMAP
01FFE0
007F80
003F00
003F00
003F00
003E00
003E00
003E00
003C00
007C00
007C00
007C00
00F800
00F800
00F800
00F800
01F000
01F000
01F000
01E000
03E000
03E000
03E000
07C000
07C000
07C000
078000
0F8000
0F8000
0F8000
1F0000
3F8000
FFF000
007000
00E000
00E000
00E020
00FFE0
007FC0
007F80
001E00
ENDCHAR
STARTCHAR 012F
ENCODING 303
SWIDTH 280 0
DWIDTH 14 0
BBX 11 41 2 -8
BITMAP
01C0
03E0
03E0
03E0
01C0
0000
0000
0000
0000
0000
0000
0000
FF80
0F80
0F80
0F00
0F00
0F00
0E00
1E00
1E00
1E00
1C00
3C00
3C00
3C00
7800
78C0
F880
F100
F200
FC00
7800
7000
F000
F000
F020
FDE0
7FE0
7F80
1F00
ENDCHAR
STARTCHAR 0130
ENCODING 304
SWIDTH 340 0
DWIDTH 17 0
BBX 20 41 0 1
BITMAP
0007C0
0007C0
0007C0
000380
000000
000000
000000
000000
01FFF0
003FC0
001F00
001F00
001F00
003E00
003E00
003E00
003C00
007C00
007C00
007C00
00F800
00F800
00F800
00F800
01F000
01F000
01F000
01E000
03E000
03E000
03E000
07C000
07C000
07C000
078000
0F8000
0F8000
0F8000
1F8000
3FC000
FFF000
ENDCHAR
STARTCHAR 0131
ENCODING 305
SWIDTH 280 0
DWIDTH 14 0
BBX 9 21 2 1
BITMAP
0F80
7F80
0780
0700
0F00
0F00
0F00
1E00
1E00
1E00
1C00
3C00
3C00
3C00
7800
7800
F880
F100
F200
FC00
F800
ENDCHAR
STARTCHAR 0132
ENCODING 306
SWIDTH 700 0
DWIDTH 35 0
BBX 38 34 0 -1
BITMAP
01FFF07FFC
003FC00FF0
001F0007E0
001F0007C0
001F0007C0
003E0007C0
003E000780
003E000F80
003C000F80
007C000F00
007C001F00
007C001F00
00F8001F00
00F8001E00
00F8003E00
00F8003E00
01F0003E00
01F0007C00
01F0007C00
01E0007C00
03E0007800
03E000F800
03E000F800
07C000F800
07C001F000
07C001F000
078001F000
0F8101E000
0F83C3E000
0F87C3C000
1F87C3C000
3FC3C78000
FFF3FF0000
0000FC0000
ENDCHAR
STARTCHAR 0133
ENCODING 307
SWIDTH 460 0
DWIDTH 23 0
BBX 22 43 2 -10
BITMAP
038038
07C07C
07C07C
07C07C
038038
000000
000000
000000
000000
000000
000000
000000
0F00F8
7F0FF8
1F00F0
0F00F0
0E00F0
1E01F0
1E01E0
1E03E0
1C03E0
3C05E0
3C07C0
3C0BC0
781BC0
7813C0
782780
706780
F0C780
F18780
F30F00
FE0F00
7C0F00
000E00
001E00
001E00
001E00
001C00
083C00
1C3800
1C7000
1C7000
0FC000
ENDCHAR
STARTCHAR 0134
ENCODING 308
SWIDTH 420 0
DWIDTH 21 0
BBX 26 44 0 -1
BITMAP
00003C00
00007C00
0000FE00
0001CE00
00038700
00070380
000C0180
001800C0
00000000
00000000
000FFF80
0001FE00
0000F800
0000F800
0000F800
0000F000
0001F000
0001F000
0001F000
0001E000
0003E000
0003E000
0003C000
0007C000
0007C000
0007C000
00078000
000F8000
000F8000
000F8000
001F0000
001F0000
001F0000
001E0000
003E0000
003E0000
003C0000
207C0000
F87C0000
F8780000
F8780000
F8F00000
7FE00000
1F800000
ENDCHAR
STARTCHAR 0135
ENCODING 309
SWIDTH 320 0
DWIDTH 16 0
BBX 23 44 -3 -10
BITMAP
0001E0
0001F0
0003F0
0007F8
000E38
001C1C
00300C
006006
00C002
000000
000000
000000
000000
0007C0
003FC0
0007C0
000380
000780
000780
000780
000700
000F00
000F00
000F00
000E00
001E00
001E00
001E00
001C00
003C00
003C00
003C00
003800
007800
007800
007000
007000
00F000
00E000
40E000
E1C000
E18000
E38000
7E0000
ENDCHAR
STARTCHAR 0136
ENCODING 310
SWIDTH 660 0
DWIDTH 33 0
BBX 36 48 0 -15
BITMAP
01FFF0FFF0
007FC01FC0
001F801F00
001F001E00
001E003C00
003E007000
003E00E000
003E01C000
003C070000
007C0E0000
007C3C0000
007C700000
0078E00000
00FBC00000
00FF800000
00FFC00000
01F7C00000
01F3E00000
01F3E00000
01E1F00000
03E1F80000
03E0F80000
03E07C0000
07C07C0000
07C03E0000
07C03E0000
07801F0000
0F801F8000
0F800F8000
0F800FC000
1F800FC000
3FC00FF000
FFF07FFC00
0000000000
0000000000
0000000000
0000000000
001E000000
001F000000
001F000000
000F000000
000F000000
0007000000
0006000000
000C000000
0018000000
0030000000
0060000000
ENDCHAR
STARTCHAR 0137
ENCODING 311
SWIDTH 460 0
DWIDTH 23 0
BBX 22 49 1 -15
BITMAP
00F000
07F000
01F000
00F000
00E000
01E000
01E000
01E000
01C000
03C000
03C000
03C000
038000
0787FC
0780F0
0700C0
070180
0F0300
0F0C00
0E1800
1E3000
1E6000
1FE000
1FF000
3EF000
3C7800
3C7800
383C00
783C00
781E10
781E10
700F20
F00FE0
F007C0
000000
000000
000000
000000
078000
07C000
07C000
03C000
03C000
01C000
018000
030000
060000
0C0000
180000
ENDCHAR
STARTCHAR 0138
ENCODING 312
SWIDTH 460 0
DWIDTH 23 0
BBX 22 22 1 0
BITMAP
07C000
3F87FC
0780F0
0780E0
070180
0F0300
0F0600
0F0800
1E3000
1E6000
1EF000
1FF000
3E7000
3C7800
3C7800
3C3C00
783C00
781E18
781E10
700F20
F00FE0
F007C0
ENDCHAR
STARTCHAR 0139
ENCODING 313
SWIDTH 560 0
DWIDTH 28 0
BBX 28 44 0 0
BITMAP
000000E0
000001F0
000003E0
000007C0
00000F80
00001E00
00003800
00007000
00000000
00000000
00000000
01FFF800
007FC000
001F8000
001F0000
001F0000
003E0000
003E0000
003E0000
003C0000
007C0000
007C0000
007C0000
00F80000
00F80000
00F80000
00F80000
01F00000
01F00000
01F00000
01E00000
03E00000
03E00000
03E00000
07C00000
07C00010
07C00030
07800060
0F800060
0F8000E0
0F8001C0
1F800FC0
3FFFFFC0
FFFFFF80
ENDCHAR
STARTCHAR 013A
ENCODING 314
SWIDTH 260 0
DWIDTH 13 0
BBX 16 44 2 0
BITMAP
0006
000F
001F
003C
00F8
01E0
0380
0700
0000
0000
00F0
0FF0
01E0
01E0
01E0
01E0
03C0
03C0
03C0
03C0
0780
0780
0780
0780
0F00
0F00
0F00
0E00
1E00
1E00
1E00
1C00
3C00
3C00
3C00
3800
7800
7800
7840
F080
F100
F300
FE00
FC00
ENDCHAR
STARTCHAR 013B
ENCODING 315
SWIDTH 560 0
DWIDTH 28 0
BBX 28 48 0 -15
BITMAP
01FFF800
007FC000
001F8000
001F0000
001F0000
003E0000
003E0000
003E0000
003C0000
007C0000
007C0000
007C0000
00F80000
00F80000
00F80000
00F80000
01F00000
01F00000
01F00000
01E00000
03E00000
03E00000
03E00000
07C00000
07C00010
07C00030
07800060
0F800060
0F8000E0
0F8001C0
1F800FC0
3FFFFFC0
FFFFFF80
00000000
00000000
00000000
00000000
003C0000
003E0000
003E0000
001E0000
001E0000
000E0000
000C0000
00180000
00300000
00600000
00C00000
ENDCHAR
STARTCHAR 013C
ENCODING 316
SWIDTH 260 0
DWIDTH 13 0
BBX 13 49 1 -15
BITMAP
0078
07F8
00F0
00F0
00F0
00F0
01E0
01E0
01E0
01E0
03C0
03C0
03C0
03C0
0780
0780
0780
0700
0F00
0F00
0F00
0E00
1E00
1E00
1E00
1C00
3C00
3C00
3C20
7840
7880
7980
7F00
7E00
0000
0000
0000
0000
3C00
3E00
3E00
1E00
1E00
0E00
0C00
1800
3000
6000
C000
ENDCHAR
STARTCHAR 013D
ENCODING 317
SWIDTH 560 0
DWIDTH 28 0
BBX 29 33 0 1
BITMAP
01FFF878
007FC078
001F80F0
001F00E0
001F01E0
003E03C0
003E0380
003E0700
003C0600
007C0C00
007C0000
007C0000
00F80000
00F80000
00F80000
00F80000
01F00000
01F00000
01F00000
01E00000
03E00000
03E00000
03E00000
07C00000
07C00010
07C00030
07800060
0F800060
0F8000E0
0F8001C0
1F800FC0
3FFFFFC0
FFFFFF80
ENDCHAR
STARTCHAR 013E
ENCODING 318
SWIDTH 380 0
DWIDTH 19 0
BBX 21 34 2 0
BITMAP
00F000
0FF078
01E078
01E0F0
01E0E0
01E1E0
03C3C0
03C380
03C700
03C600
078C00
078000
078000
078000
0F0000
0F0000
0F0000
0E0000
1E0000
1E0000
1E0000
1C0000
3C0000
3C0000
3C0000
380000
780000
780000
784000
F08000
F10000
F30000
FE0000
FC0000
ENDCHAR
STARTCHAR 013F
ENCODING 319
SWIDTH 560 0
DWIDTH 28 0
BBX 28 33 0 0
BITMAP
01FFF800
007FC000
001F8000
001F0000
001F0000
003E0000
003E0000
003E0000
003C0000
007C0000
007C0000
007C0000
00F80000
00F80000
00F80000
00F80000
01F00780
01F007C0
01F007C0
01E00780
03E00000
03E00000
03E00000
07C00000
07C00010
07C00030
07800060
0F800060
0F8000E0
0F8001C0
1F800FC0
3FFFFFC0
FFFFFF80
ENDCHAR
STARTCHAR 0140
ENCODING 320
SWIDTH 340 0
DWIDTH 17 0
BBX 15 34 2 0
BITMAP
00F0
0FF0
01E0
01E0
01E0
01E0
03C0
03C0
03C0
03C0
0780
0780
0780
0780
0F00
0F00
0F00
0E00
1E00
1E00
1E1C
1C3E
3C3E
3C3E
3C1C
3800
7800
7800
7840
F080
F100
F300
FE00
FC00
ENDCHAR
STARTCHAR 0141
ENCODING 321
SWIDTH 560 0
DWIDTH 28 0
BBX 28 33 0 0
BITMAP
01FFF800
007FC000
001F8000
001F0000
001F0000
003E0000
003E0000
003E0000
003C0000
007C0000
007C3000
007CF000
00F9C000
00FF0000
00FE0000
00F80000
01F00000
03F00000
0FF00000
3DE00000
33E00000
03E00000
03E00000
07C00000
07C00010
07C00030
07800060
0F800060
0F8000E0
0F8001C0
1F800FC0
3FFFFFC0
FFFFFF80
ENDCHAR
STARTCHAR 0142
ENCODING 322
SWIDTH 280 0
DWIDTH 14 0
BBX 13 34 2 0
BITMAP
01F0
0FE0
01E0
01E0
01E0
01C0
03C0
03C0
03C0
0380
0780
0788
07B8
07F0
0FC0
0F00
1F00
7E00
FE00
9E00
1E00
3C00
3C00
3C00
3C00
7800
7800
7800
7040
F080
F100
F300
FE00
FC00
ENDCHAR
STARTCHAR 0143
ENCODING 323
SWIDTH 680 0
DWIDTH 34 0
BBX 37 45 0 -1
BITMAP
0000001C00
0000003E00
0000007C00
000000F800
000001E000
000003C000
0000070000
00000E0000
0000000000
0000000000
0000000000
01FE001FF8
007E0007F0
003F0003C0
001F0001C0
001F8003C0
001F800380
003F800380
0037C00380
0037C00700
0063E00700
0063E00700
0063E00600
0041F00E00
00C1F00E00
00C0F80E00
00C0F80C00
0180781C00
01807C1C00
01807C1800
01803E3800
03003E3800
03001E3800
03001F3000
02000F7000
06000FF000
06000FE000
060007E000
0C0007E000
0C0003E000
1C0003C000
1C0001C000
3E0001C000
FFC0018000
0000008000
ENDCHAR
STARTCHAR 0144
ENCODING 324
SWIDTH 500 0
DWIDTH 25 0
BBX 23 33 1 1
BITMAP
00001C
00003E
00007C
0000F0
0001E0
000380
000700
000C00
000000
000000
000000
004040
0783F0
3F87F8
0F8C78
071878
0F3078
0F2070
0F40F0
0E80F0
1E80F0
1F00E0
1E01E0
3E01E0
3C01C0
3C03C0
7803C0
7803C0
780384
700788
F00790
F007E0
E007C0
ENDCHAR
STARTCHAR 0145
ENCODING 325
SWIDTH 680 0
DWIDTH 34 0
BBX 37 48 0 -15
BITMAP
01FE001FF8
007E0007F0
003F0003C0
001F0001C0
001F8003C0
001F800380
003F800380
0037C00380
0037C00700
0063E00700
0063E00700
0063E00600
0041F00E00
00C1F00E00
00C0F80E00
00C0F80C00
0180781C00
01807C1C00
01807C1800
01803E3800
03003E3800
03001E3800
03001F3000
02000F7000
06000FF000
06000FE000
060007E000
0C0007E000
0C0003E000
1C0003C000
1C0001C000
3E0001C000
FFC0018000
0000008000
0000000000
0000000000
0000000000
003C000000
003E000000
003E000000
001E000000
001E000000
000E000000
000C000000
0018000000
0030000000
0060000000
00C0000000
ENDCHAR
STARTCHAR 0146
ENCODING 326
SWIDTH 500 0
DWIDTH 25 0
BBX 22 37 1 -15
BITMAP
004040
0783F0
3F87F8
0F8C78
071878
0F3078
0F2070
0F40F0
0E80F0
1E80F0
1F00E0
1E01E0
3E01E0
3C01C0
3C03C0
7803C0
7803C0
780384
700788
F00790
F007E0
E007C0
000000
000000
000000
000000
03C000
03E000
03E000
01E000
01E000
00E000
00C000
018000
030000
060000
0C0000
ENDCHAR
STARTCHAR 0147
ENCODING 327
SWIDTH 680 0
DWIDTH 34 0
BBX 37 45 0 -1
BITMAP
0000600300
0000300600
0000381C00
00001C3800
00001E7000
00000FE000
00000FC000
0000078000
0000000000
0000000000
0000000000
01FE001FF8
007E0007F0
003F0003C0
001F0001C0
001F8003C0
001F800380
003F800380
0037C00380
0037C00700
0063E00700
0063E00700
0063E00600
0041F00E00
00C1F00E00
00C0F80E00
00C0F80C00
0180781C00
01807C1C00
01807C1800
01803E3800
03003E3800
03001E3800
03001F3000
02000F7000
06000FF000
06000FE000
060007E000
0C0007E000
0C0003E000
1C0003C000
1C0001C000
3E0001C000
FFC0018000
0000008000
ENDCHAR
STARTCHAR 0148
ENCODING 328
SWIDTH 500 0
DWIDTH 25 0
BBX 24 33 1 0
BITMAP
003003
003806
001C1C
001E38
000FF0
0007E0
0007C0
000380
000000
000000
000000
004040
0783F0
3F87F8
0F8C78
071878
0F3078
0F2070
0F40F0
0E80F0
1E80F0
1F00E0
1E01E0
3E01E0
3C01C0
3C03C0
7803C0
7803C0
780384
700788
F00790
F007E0
E007C0
ENDCHAR
STARTCHAR 0149
ENCODING 329
SWIDTH 540 0
DWIDTH 27 0
BBX 23 33 3 1
BITMAP
1E0000
1F0000
1F0000
0F0000
0F0000
070000
060000
0C0000
180000
300000
600000
000000
07C1F8
3F83F8
07867C
078878
079078
072078
0F6078
0F4070
0E80F0
1F00F0
1F00F0
1E01E0
1E01E0
3C01E0
3C01C0
3C03C0
7803C6
78038C
780398
7003F0
F003E0
ENDCHAR
STARTCHAR 014A
ENCODING 330
SWIDTH 700 0
DWIDTH 35 0
BBX 37 34 0 -1
BITMAP
0003807FC0
001F81FFE0
00FF87C3F0
03FF9E01F8
003F3800F8
001F6000F8
001FC000F8
001F8000F8
003F0000F8
003E0000F8
003C0000F8
007C0000F8
007C0000F8
007C0001F0
00780001F0
00F80001F0
00F80001F0
00F80001E0
00F00003E0
01F00003E0
01F00003C0
01F00003C0
03E00007C0
03E0000780
03E0000780
03C0000F00
07C0000F00
07C0001E00
07C0783C00
0F80F83800
0FC0F87000
3FE0F9E000
FFF8FFC000
00003E0000
ENDCHAR
STARTCHAR 014B
ENCODING 331
SWIDTH 500 0
DWIDTH 25 0
BBX 21 32 1 -10
BITMAP
004000
0F81F0
7F87F8
0F8E78
079878
071078
0F2078
0F40F0
0E80F0
1E80F0
1F00E0
1E01E0
3E01E0
3C01E0
3C01C0
3C03C0
7803C0
780380
780780
F00780
F00780
F00700
000F00
000F00
000E00
001E00
001C00
081C00
1C3800
1C3800
1C7000
0FE000
ENDCHAR
STARTCHAR 014C
ENCODING 332
SWIDTH 660 0
DWIDTH 33 0
BBX 32 41 2 -1
BITMAP
0001FFFC
0001FFFC
00000000
00000000
00000000
00000000
00000000
0000FFC0
0007C1E0
000E00F8
003C0078
0078003C
00F0003E
01E0001E
03C0001F
07C0001F
0F80001F
0F80001F
1F00001F
3F00001F
3E00003F
7E00003F
7E00003F
7C00003E
7C00007E
FC00007E
FC00007C
F80000FC
F80000F8
F80000F8
F80001F0
F80003E0
F80003E0
780007C0
7C000F80
3C000F00
3C003E00
1E007C00
0F00F000
07FFC000
01FE0000
ENDCHAR
STARTCHAR 014D
ENCODING 333
SWIDTH 480 0
DWIDTH 24 0
BBX 24 30 1 0
BITMAP
007FFF
007FFF
00FFFE
000000
000000
000000
000000
000000
000000
003FE0
00E070
01C078
07803C
0F003C
1F003C
1E003C
3C003C
7C003C
7C007C
780078
F80078
F800F8
F000F0
F001E0
F001E0
F003C0
F00780
780600
381C00
1FF000
ENDCHAR
STARTCHAR 014E
ENCODING 334
SWIDTH 660 0
DWIDTH 33 0
BBX 32 45 2 -1
BITMAP
0000C004
0000C00C
0000C00C
0000C018
0000E030
0000FFF0
00007FE0
00003F80
00000000
00000000
00000000
0000FFC0
0007C1E0
000E00F8
003C0078
0078003C
00F0003E
01E0001E
03C0001F
07C0001F
0F80001F
0F80001F
1F00001F
3F00001F
3E00003F
7E00003F
7E00003F
7C00003E
7C00007E
FC00007E
FC00007C
F80000FC
F80000F8
F80000F8
F80001F0
F80003E0
F80003E0
780007C0
7C000F80
3C000F00
3C003E00
1E007C00
0F00F000
07FFC000
01FE0000
ENDCHAR
STARTCHAR 014F
ENCODING 335
SWIDTH 480 0
DWIDTH 24 0
BBX 24 33 1 0
BITMAP
003001
003003
003003
003806
001C1E
001FFC
000FF8
0007E0
000000
000000
000000
000000
003FE0
00E070
01C078
07803C
0F003C
1F003C
1E003C
3C003C
7C003C
7C007C
780078
F80078
F800F8
F000F0
F001E0
F001E0
F003C0
F00780
780600
381C00
1FF000
ENDCHAR
STARTCHAR 0150
ENCODING 336
SWIDTH 660 0
DWIDTH 33 0
BBX 32 45 2 -1
BITMAP
00000E0C
00001E1E
00001E3C
00003C38
00003870
000070E0
000060C0
0000E180
00000000
00000000
00000000
0000FFC0
0007C1E0
000E00F8
003C0078
0078003C
00F0003E
01E0001E
03C0001F
07C0001F
0F80001F
0F80001F
1F00001F
3F00001F
3E00003F
7E00003F
7E00003F
7C00003E
7C00007E
FC00007E
FC00007C
F80000FC
F80000F8
F80000F8
F80001F0
F80003E0
F80003E0
780007C0
7C000F80
3C000F00
3C003E00
1E007C00
0F00F000
07FFC000
01FE0000
ENDCHAR
STARTCHAR 0151
ENCODING 337
SWIDTH 480 0
DWIDTH 24 0
BBX 25 33 1 1
BITMAP
0003C380
0003C780
00078780
00070F00
000E1E00
000E1C00
001C3800
00186000
00000000
00000000
00000000
00000000
003FE000
00E07000
01C07800
07803C00
0F003C00
1F003C00
1E003C00
3C003C00
7C003C00
7C007C00
78007800
F8007800
F800F800
F000F000
F001E000
F001E000
F003C000
F0078000
78060000
381C0000
1FF00000
ENDCHAR
STARTCHAR 0152
ENCODING 338
SWIDTH 900 0
DWIDTH 45 0
BBX 45 34 2 0
BITMAP
000010000000
0003FFFFFFF8
000F83FFFFF8
003E00FE0038
0078007E0018
00F0007C0010
01E0007C0010
03C0007C0010
07C000780000
0F8000F80000
0F8000F80000
1F0000F80200
3F0000F00600
3E0001F00400
3E0001F00C00
7E0001F01C00
7C0003FFFC00
7C0003FFF800
FC0003E07800
FC0003E01800
F80007C01000
F80007C01000
F80007C01000
F80007C00000
F8000F800000
F8000F800000
F8000F800040
78001F0000C0
7C001F000180
3C003F000380
3E003F000780
1F007F003F00
07C1FFFFFF00
03FFFFFFFE00
ENDCHAR
STARTCHAR 0153
ENCODING 339
SWIDTH 660 0
DWIDTH 33 0
BBX 31 21 1 1
BITMAP
007F81FC
00E1C30E
0380EE0E
0780FC0E
0F00F80E
1E00F81C
1E00F03C
3C00F078
7C01E0E0
7801E380
7801FC00
F801C000
F803C000
F003C000
F003C000
F007C000
F007C008
700FC030
781FE0E0
3839FF80
1FE0FE00
ENDCHAR
STARTCHAR 0154
ENCODING 340
SWIDTH 620 0
DWIDTH 31 0
BBX 30 44 0 0
BITMAP
000000E0
000001E0
000003E0
000007C0
00000F00
00001E00
00003800
00006000
00000000
00000000
00000000
01FFFF00
003FFFE0
001F01F0
001F00F8
001F007C
003E007C
003E007C
003E007C
003C007C
007C007C
007C00F8
007C00F8
00F801F0
00F807E0
00FFFF80
00FFFC00
01F0F800
01F0F800
01F0F800
01E07C00
03E07C00
03E07C00
03E03E00
07C03E00
07C01F00
07C01F00
07801F00
0F800F80
0F800F80
0F800F80
1F8007C0
3FC007E0
FFF007F8
ENDCHAR
STARTCHAR 0155
ENCODING 341
SWIDTH 360 0
DWIDTH 18 0
BBX 19 33 1 1
BITMAP
0000E0
0001E0
0003E0
000780
000F00
001C00
003800
006000
000000
000000
000000
000000
0F87C0
7F8FC0
079FC0
0733C0
072000
0F6000
0FC000
0E8000
1F8000
1F0000
1F0000
1E0000
3E0000
3C0000
3C0000
7C0000
780000
780000
780000
F00000
F00000
ENDCHAR
STARTCHAR 0156
ENCODING 342
SWIDTH 620 0
DWIDTH 31 0
BBX 30 48 0 -15
BITMAP
01FFFF00
003FFFE0
001F01F0
001F00F8
001F007C
003E007C
003E007C
003E007C
003C007C
007C007C
007C00F8
007C00F8
00F801F0
00F807E0
00FFFF80
00FFFC00
01F0F800
01F0F800
01F0F800
01E07C00
03E07C00
03E07C00
03E03E00
07C03E00
07C01F00
07C01F00
07801F00
0F800F80
0F800F80
0F800F80
1F8007C0
3FC007E0
FFF007F8
00000000
00000000
00000000
00000000
003C0000
003E0000
003E0000
001E0000
001E0000
000E0000
000C0000
00180000
00300000
00600000
00C00000
ENDCHAR
STARTCHAR 0157
ENCODING 343
SWIDTH 360 0
DWIDTH 18 0
BBX 19 36 0 -14
BITMAP
07C3E0
3FC7E0
03CFE0
0399E0
039000
07B000
07E000
074000
0FC000
0F8000
0F8000
0F0000
1F0000
1E0000
1E0000
3E0000
3C0000
3C0000
3C0000
780000
780000
000000
000000
000000
000000
3C0000
3E0000
3E0000
1E0000
1E0000
0E0000
0C0000
180000
300000
600000
C00000
ENDCHAR
STARTCHAR 0158
ENCODING 344
SWIDTH 620 0
DWIDTH 31 0
BBX 30 44 0 0
BITMAP
00030018
00018030
0000C060
0000E1E0
000073C0
00007F80
00003F00
00003E00
00000000
00000000
00000000
01FFFF00
003FFFE0
001F01F0
001F00F8
001F007C
003E007C
003E007C
003E007C
003C007C
007C007C
007C00F8
007C00F8
00F801F0
00F807E0
00FFFF80
00FFFC00
01F0F800
01F0F800
01F0F800
01E07C00
03E07C00
03E07C00
03E03E00
07C03E00
07C01F00
07C01F00
07801F00
0F800F80
0F800F80
0F800F80
1F8007C0
3FC007E0
FFF007F8
ENDCHAR
STARTCHAR 0159
ENCODING 345
SWIDTH 360 0
DWIDTH 18 0
BBX 22 33 1 0
BITMAP
01801C
00C030
00E0E0
0071C0
007BC0
003F80
003F00
001E00
000000
000000
000000
000000
0F87C0
7F8FC0
079FC0
0733C0
072000
0F6000
0FC000
0E8000
1F8000
1F0000
1F0000
1E0000
3E0000
3C0000
3C0000
7C0000
780000
780000
780000
F00000
F00000
ENDCHAR
STARTCHAR 015A
ENCODING 346
SWIDTH 460 0
DWIDTH 23 0
BBX 25 45 0 -1
BITMAP
00000700
00000F00
00001F00
00003E00
00007800
0000F000
0001C000
00030000
00000000
00000000
00000080
003FF180
00783F80
00F00F00
01E00700
01E00700
03C00700
03C00300
03C00200
03E00200
03E00000
03F00000
01F80000
01F80000
00FC0000
007E0000
003F0000
001F8000
000FC000
000FE000
0007E000
0003F000
0001F000
0001F000
2000F000
2000F000
2000F000
6000F000
6000F000
7001E000
7801E000
7803C000
7E078000
EFFF0000
81FC0000
ENDCHAR
STARTCHAR 015B
ENCODING 347
SWIDTH 340 0
DWIDTH 17 0
BBX 20 34 0 0
BITMAP
0000F0
0001F0
0003E0
0007C0
000F00
001E00
003800
006000
000000
000000
000000
000040
01FFC0
0383C0
0781C0
078180
078080
078080
07C000
03E000
03E000
01F000
00F800
00FC00
007C00
003E00
403E00
401E00
601E00
601C00
F01C00
F03800
FFF000
800000
ENDCHAR
STARTCHAR 015C
ENCODING 348
SWIDTH 460 0
DWIDTH 23 0
BBX 25 44 0 -1
BITMAP
0000F000
0001F800
0003F800
0007BC00
000E1C00
001C0E00
00380700
00600300
00000000
00000080
003FF180
00783F80
00F00F00
01E00700
01E00700
03C00700
03C00300
03C00200
03E00200
03E00000
03F00000
01F80000
01F80000
00FC0000
007E0000
003F0000
001F8000
000FC000
000FE000
0007E000
0003F000
0001F000
0001F000
2000F000
2000F000
2000F000
6000F000
6000F000
7001E000
7801E000
7803C000
7E078000
EFFF0000
81FC0000
ENDCHAR
STARTCHAR 015D
ENCODING 349
SWIDTH 340 0
DWIDTH 17 0
BBX 20 34 0 -1
BITMAP
000F00
001F80
003F80
007BC0
00E1C0
01C0E0
038060
060030
000000
000000
000000
000040
01FFC0
0383C0
0781C0
078180
078080
078080
07C000
03E000
03E000
01F000
00F800
00FC00
007C00
003E00
403E00
401E00
601E00
601C00
F01C00
F03800
FFF000
800000
ENDCHAR
STARTCHAR 015E
ENCODING 350
SWIDTH 460 0
DWIDTH 23 0
BBX 25 45 0 -11
BITMAP
00000080
001FF980
007C1F80
00F00F00
01E00700
01E00700
03C00300
03C00300
03C00200
03E00200
03E00000
03F00000
01F80000
01FC0000
00FE0000
007F0000
003F8000
001FC000
000FE000
0007F000
0003F000
0001F800
0001F800
0000F800
20007800
20007800
20007800
60007800
60007800
7000F000
7800F000
7801E000
7E03C000
EFFF8000
81FC0000
01800000
03000000
03C00000
07F00000
00F80000
00780000
00780000
00700000
3FE00000
0FC00000
ENDCHAR
STARTCHAR 015F
ENCODING 351
SWIDTH 340 0
DWIDTH 17 0
BBX 18 33 0 -11
BITMAP
000040
01FFC0
0383C0
0781C0
078180
078080
078080
07C000
07E000
03E000
01F000
01F800
00FC00
007C00
003E00
403E00
401E00
601E00
601C00
E01C00
F03800
FFF000
840000
0C0000
180000
1E0000
3F8000
078000
03C000
03C000
038000
FF0000
7E0000
ENDCHAR
STARTCHAR 0160
ENCODING 352
SWIDTH 460 0
DWIDTH 23 0
BBX 27 45 0 -1
BITMAP
000C0060
000600C0
00070380
00038700
0003CE00
0001FC00
0001F800
0000F000
00000000
00000000
00000080
003FF180
00783F80
00F00F00
01E00700
01E00700
03C00700
03C00300
03C00200
03E00200
03E00000
03F00000
01F80000
01F80000
00FC0000
007E0000
003F0000
001F8000
000FC000
000FE000
0007E000
0003F000
0001F000
0001F000
2000F000
2000F000
2000F000
6000F000
6000F000
7001E000
7801E000
7803C000
7E078000
EFFF0000
81FC0000
ENDCHAR
STARTCHAR 0161
ENCODING 353
SWIDTH 340 0
DWIDTH 17 0
BBX 23 34 0 -1
BITMAP
00C00E
006018
007038
0038F0
003DE0
001FC0
001F80
000F00
000000
000000
000000
000040
01FFC0
0383C0
0781C0
078180
078080
078080
07C000
03E000
03E000
01F000
00F800
00FC00
007C00
003E00
403E00
401E00
601E00
601C00
F01C00
F03800
FFF000
800000
ENDCHAR
STARTCHAR 0162
ENCODING 354
SWIDTH 560 0
DWIDTH 28 0
BBX 29 44 3 -11
BITMAP
3FFFFFF8
3FFFFFF8
780F8070
700F8030
600F8030
400F0030
C01F0020
801F0020
001F0000
001E0000
003E0000
003E0000
003E0000
007C0000
007C0000
007C0000
00780000
00F80000
00F80000
00F80000
00F00000
01F00000
01F00000
01E00000
03E00000
03E00000
03E00000
03C00000
07C00000
07C00000
0FE00000
1FE00000
FFFE0000
03000000
03000000
06000000
0F800000
0FE00000
01E00000
00F00000
00F00000
00E00000
7FC00000
1F800000
ENDCHAR
STARTCHAR 0163
ENCODING 355
SWIDTH 240 0
DWIDTH 12 0
BBX 17 37 -3 -11
BITMAP
000400
000C00
001C00
007800
00F800
03FF80
07FF80
00F000
00F000
00F000
00E000
01E000
01E000
01E000
01C000
03C000
03C000
03C000
078000
078000
078000
070800
0F1000
0F2000
0FC000
0F8000
020000
060000
0C0000
080000
1FC000
03C000
01E000
01E000
01C000
FF8000
7F0000
ENDCHAR
STARTCHAR 0164
ENCODING 356
SWIDTH 580 0
DWIDTH 29 0
BBX 28 44 5 0
BITMAP
00300180
00380700
001C0E00
001E1C00
000E7800
000FF000
0007E000
0007C000
00000000
00000000
00000000
3FFFFFF0
3FFFFFF0
780F80E0
700F8060
600F8060
401F0060
C01F0040
801F0040
001F0000
003E0000
003E0000
003E0000
003E0000
007C0000
007C0000
007C0000
00F80000
00F80000
00F80000
00F80000
01F00000
01F00000
01F00000
03E00000
03E00000
03E00000
03E00000
07C00000
07C00000
07C00000
0FC00000
1FE00000
FFFC0000
ENDCHAR
STARTCHAR 0165
ENCODING 357
SWIDTH 360 0
DWIDTH 18 0
BBX 21 33 1 1
BITMAP
000078
000078
0000F0
0000E0
0001E0
0003C0
000380
004700
00C600
01CC00
038000
0F8000
3FF800
7FF800
0F0000
0F0000
0F0000
0E0000
1E0000
1E0000
1E0000
1C0000
3C0000
3C0000
3C0000
780000
780000
780000
708000
F10000
F20000
FC0000
F80000
ENDCHAR
STARTCHAR 0166
ENCODING 358
SWIDTH 560 0
DWIDTH 28 0
BBX 29 33 3 0
BITMAP
3FFFFFF8
3FFFFFF8
780FC070
700F8030
600F8030
400F8030
C01F0020
801F0020
001F0000
001F0000
003E0000
003E0000
003E0000
007C0000
0FFFE000
0FFFE000
0FFFE000
00F80000
00F80000
00F80000
00F80000
01F00000
01F00000
01F00000
03E00000
03E00000
03E00000
03E00000
07C00000
07C00000
0FC00000
1FE00000
FFFE0000
ENDCHAR
STARTCHAR 0167
ENCODING 359
SWIDTH 240 0
DWIDTH 12 0
BBX 14 26 1 0
BITMAP
0020
0060
00E0
01C0
07C0
1FFC
3FFC
0780
0780
0780
0700
0F00
FFF0
FFF0
FFF0
1E00
1E00
1E00
3C00
3C00
3C00
3840
7880
7900
7F00
7C00
ENDCHAR
STARTCHAR 0168
ENCODING 360
SWIDTH 700 0
DWIDTH 35 0
BBX 33 41 6 -1
BITMAP
0003C06000
000FF0C000
003FFF8000
0020FF0000
0040380000
0000000000
0000000000
7FFE01FF80
0FF8007E00
07E0003C00
07C0003800
07C0003800
0FC0003800
0F80003000
0F80003000
0F80007000
1F80006000
1F00006000
1F0000E000
3F0000C000
3E0000C000
3E0000C000
3E0001C000
7E00018000
7C00018000
7C00038000
7C00030000
7C00030000
F800030000
F800060000
F800060000
F800060000
F8000C0000
F8000C0000
F8001C0000
7800380000
7C00700000
3E00E00000
1F83C00000
0FFF800000
01FC000000
ENDCHAR
STARTCHAR 0169
ENCODING 361
SWIDTH 480 0
DWIDTH 24 0
BBX 23 30 2 0
BITMAP
000002
007E06
01FF9C
039FF8
0607E0
000000
000000
000000
000000
0F0078
7F0070
1E00F0
1E00F0
1E01F0
1E01E0
3C01E0
3C03E0
3C03E0
3C07C0
7807C0
780BC0
781F80
781780
702780
F06788
F0CF08
F18F10
F30F20
FE0FC0
FC0F80
ENDCHAR
STARTCHAR 016A
ENCODING 362
SWIDTH 700 0
DWIDTH 35 0
BBX 33 41 6 -1
BITMAP
001FFFC000
001FFFC000
0000000000
0000000000
0000000000
0000000000
0000000000
7FFE01FF80
0FF8007E00
07E0003C00
07C0003800
07C0003800
0FC0003800
0F80003000
0F80003000
0F80007000
1F80006000
1F00006000
1F0000E000
3F0000C000
3E0000C000
3E0000C000
3E0001C000
7E00018000
7C00018000
7C00038000
7C00030000
7C00030000
F800030000
F800060000
F800060000
F800060000
F8000C0000
F8000C0000
F8001C0000
7800380000
7C00700000
3E00E00000
1F83C00000
0FFF800000
01FC000000
ENDCHAR
STARTCHAR 016B
ENCODING 363
SWIDTH 480 0
DWIDTH 24 0
BBX 22 30 2 0
BITMAP
01FFFC
01FFFC
01FFFC
000000
000000
000000
000000
000000
000000
0F0078
7F0070
1E00F0
1E00F0
1E01F0
1E01E0
3C01E0
3C03E0
3C03E0
3C07C0
7807C0
780BC0
781F80
781780
702780
F06788
F0CF08
F18F10
F30F20
FE0FC0
FC0F80
ENDCHAR
STARTCHAR 016C
ENCODING 364
SWIDTH 700 0
DWIDTH 35 0
BBX 33 45 6 -1
BITMAP
000C004000
000C00C000
000C018000
000C018000
000E030000
000FFF0000
0007FE0000
0003F80000
0000000000
0000000000
0000000000
7FFE01FF80
0FF8007E00
07E0003C00
07C0003800
07C0003800
0FC0003800
0F80003000
0F80003000
0F80007000
1F80006000
1F00006000
1F0000E000
3F0000C000
3E0000C000
3E0000C000
3E0001C000
7E00018000
7C00018000
7C00038000
7C00030000
7C00030000
F800030000
F800060000
F800060000
F800060000
F8000C0000
F8000C0000
F8001C0000
7800380000
7C00700000
3E00E00000
1F83C00000
0FFF800000
01FC000000
ENDCHAR
STARTCHAR 016D
ENCODING 365
SWIDTH 480 0
DWIDTH 24 0
BBX 22 33 2 0
BITMAP
00800C
018018
01C018
00C030
00E0F0
00FFE0
007FC0
003F00
000000
000000
000000
000000
0F0078
7F0070
1E00F0
1E00F0
1E01F0
1E01E0
3C01E0
3C03E0
3C03E0
3C07C0
7807C0
780BC0
781F80
781780
702780
F06788
F0CF08
F18F10
F30F20
FE0FC0
FC0F80
ENDCHAR
STARTCHAR 016E
ENCODING 366
SWIDTH 700 0
DWIDTH 35 0
BBX 33 46 6 -1
BITMAP
00003C0000
00007F0000
0000C30000
0001830000
0001030000
0003030000
0001030000
00018E0000
0000FC0000
0000200000
0000000000
0000000000
7FFE01FF80
0FF8007E00
07E0003C00
07C0003800
07C0003800
0FC0003800
0F80003000
0F80003000
0F80007000
1F80006000
1F00006000
1F0000E000
3F0000C000
3E0000C000
3E0000C000
3E0001C000
7E00018000
7C00018000
7C00038000
7C00030000
7C00030000
F800030000
F800060000
F800060000
F800060000
F8000C0000
F8000C0000
F8001C0000
7800380000
7C00700000
3E00E00000
1F83C00000
0FFF800000
01FC000000
ENDCHAR
STARTCHAR 016F
ENCODING 367
SWIDTH 480 0
DWIDTH 24 0
BBX 21 36 2 0
BITMAP
000080
0007E0
000C70
001830
003030
003030
003020
003060
001FC0
000F00
000000
000000
000000
000000
000000
0F0078
7F0070
1E00F0
1E00F0
1E01F0
1E01E0
3C01E0
3C03E0
3C03E0
3C07C0
7807C0
780BC0
781F80
781780
702780
F06788
F0CF08
F18F10
F30F20
FE0FC0
FC0F80
ENDCHAR
STARTCHAR 0170
ENCODING 368
SWIDTH 700 0
DWIDTH 35 0
BBX 33 45 6 -1
BITMAP
0000E0E000
0001E1E000
0001E1E000
0001C3C000
0003878000
0003070000
00070C0000
0006180000
0000000000
0000000000
0000000000
7FFE01FF80
0FF8007E00
07E0003C00
07C0003800
07C0003800
0FC0003800
0F80003000
0F80003000
0F80007000
1F80006000
1F00006000
1F0000E000
3F0000C000
3E0000C000
3E0000C000
3E0001C000
7E00018000
7C00018000
7C00038000
7C00030000
7C00030000
F800030000
F800060000
F800060000
F800060000
F8000C0000
F8000C0000
F8001C0000
7800380000
7C00700000
3E00E00000
1F83C00000
0FFF800000
01FC000000
ENDCHAR
STARTCHAR 0171
ENCODING 369
SWIDTH 480 0
DWIDTH 24 0
BBX 21 33 2 1
BITMAP
003838
007878
0078F0
00F0E0
00E1C0
01C380
018300
030600
000000
000000
000000
000000
0F0078
7F0070
1E00F0
1E00F0
1E01F0
1E01E0
3C01E0
3C03E0
3C03E0
3C07C0
7807C0
780BC0
781F80
781780
702780
F06788
F0CF08
F18F10
F30F20
FE0FC0
FC0F80
ENDCHAR
STARTCHAR 0172
ENCODING 370
SWIDTH 700 0
DWIDTH 35 0
BBX 33 41 5 -8
BITMAP
7FFE01FF80
0FF8003F00
07E0001C00
07E0001C00
07C0001800
07C0003800
07C0003800
0FC0003000
0F80003000
0F80007000
1F80006000
1F00006000
1F00006000
1F0000E000
3F0000C000
3E0000C000
3E0001C000
3E00018000
7C00018000
7C00018000
7C00038000
7C00030000
F800030000
F800070000
F800060000
F800060000
F8000C0000
F8001C0000
7800180000
7C00380000
3E00F00000
1F83E00000
0FFFE00000
01FCE00000
0001C00000
0001C00000
0001C00000
0001FFC000
0000FF8000
0000FF0000
00003C0000
ENDCHAR
STARTCHAR 0173
ENCODING 371
SWIDTH 480 0
DWIDTH 24 0
BBX 23 29 2 -7
BITMAP
0F0078
7F0070
1E00F0
1E00F0
1E01F0
1E01E0
3C01E0
3C03E0
3C03E0
3C07C0
7807C0
780FC0
781B80
781780
702780
F06788
F0CF08
F18F10
F30F20
FE0FC0
FC0F80
000700
000E00
000E00
000E00
000FFE
0007FC
0007F8
0001E0
ENDCHAR
STARTCHAR 0174
ENCODING 372
SWIDTH 880 0
DWIDTH 44 0
BBX 42 44 6 -1
BITMAP
00000F000000
00001F000000
00003F800000
000073800000
0000E1C00000
0001C0E00000
000300600000
000600300000
000000000000
000000000000
FFF1FFE07FC0
3FC03F801F80
1F801F000F00
0F801F000E00
0F801F000E00
0F801F000C00
0F801F001C00
0F801F001800
0F801F003800
07803F003000
07803F807000
07C06F806000
07C06F80E000
07C0CF80C000
07C0CF818000
07C08F818000
07C18F830000
07C10F830000
03C307860000
03C207860000
03E607CC0000
03E607CC0000
03EC07D80000
03EC07D80000
03F807F00000
03F807F00000
01F007E00000
01F003E00000
01E003C00000
01E003C00000
01C003800000
01C003800000
018003000000
018003000000
ENDCHAR
STARTCHAR 0175
ENCODING 373
SWIDTH 680 0
DWIDTH 34 0
BBX 31 34 3 -1
BITMAP
00007800
0000FC00
0001FC00
0003DE00
00070E00
000E0700
001C0380
00300180
00000000
00000000
00000000
00000000
1E00201E
FE00601E
1E00E01E
1E00E00E
0F01E006
0F02E006
0F02E004
0F04F00C
0F04F008
0708F018
0718F030
0710F060
07307040
07A070C0
07E07180
07C07300
07C07700
07807E00
07007C00
07007800
06007000
06006000
ENDCHAR
STARTCHAR 0176
ENCODING 374
SWIDTH 600 0
DWIDTH 30 0
BBX 27 43 6 0
BITMAP
0003C000
0007E000
000FE000
001EF000
00387000
00703800
00E01C00
01800C00
00000000
00000000
FFF03FE0
3FC00FC0
1F800780
0F800700
0F800E00
0F800E00
07801C00
07C03800
07C03000
03C06000
03C0E000
03E1C000
03E38000
01E30000
01F60000
01FE0000
00FC0000
00F80000
00F80000
01F00000
01F00000
01F00000
01E00000
03E00000
03E00000
03E00000
07C00000
07C00000
07C00000
0FC00000
0FC00000
3FC00000
FFFC0000
ENDCHAR
STARTCHAR 0177
ENCODING 375
SWIDTH 460 0
DWIDTH 23 0
BBX 22 43 1 -10
BITMAP
000780
000FC0
001FC0
003DE0
0070E0
00E070
01C030
030018
000000
000000
000000
000000
1F8038
2FC03C
03C03C
01E01C
01E00C
01E008
00F008
00F018
00F010
007830
007820
007860
007840
0038C0
003880
003D80
003D00
003E00
001E00
001C00
001800
001800
003000
002000
004000
00C000
018000
430000
FE0000
FC0000
F00000
ENDCHAR
STARTCHAR 0178
ENCODING 376
SWIDTH 600 0
DWIDTH 30 0
BBX 27 40 6 0
BITMAP
00300C00
00781E00
007C1F00
007C1F00
00781E00
00000000
00000000
FFF03FE0
3FC00FC0
1F800780
0F800700
0F800E00
0F800E00
07801C00
07C03800
07C03000
03C06000
03C0E000
03E1C000
03E38000
01E30000
01F60000
01FE0000
00FC0000
00F80000
00F80000
01F00000
01F00000
01F00000
01E00000
03E00000
03E00000
03E00000
07C00000
07C00000
07C00000
0FC00000
0FC00000
3FC00000
FFFC0000
ENDCHAR
STARTCHAR 0179
ENCODING 377
SWIDTH 560 0
DWIDTH 28 0
BBX 31 44 0 0
BITMAP
00000180
000003C0
000007C0
00000F00
00003E00
00007800
0000E000
0001C000
00000000
00000000
00000000
03FFFFFE
03FFFFFC
03C001F8
070001F0
060003F0
040007E0
0C000FC0
08000F80
00001F00
00003F00
00007E00
0000FC00
0000F800
0001F800
0003F000
0007E000
000FC000
000F8000
001F8000
003F0000
007E0000
00FC0000
00F80000
01F80000
03F00010
07E00030
07C00020
0F800060
1F8000E0
3F0001C0
7E0007C0
7FFFFFC0
FFFFFF80
ENDCHAR
STARTCHAR 017A
ENCODING 378
SWIDTH 380 0
DWIDTH 19 0
BBX 19 37 0 -3
BITMAP
0000E0
0001E0
0003E0
000780
000F00
001C00
003000
006000
000000
000000
000000
000000
07FFE0
0FFFC0
0FFF80
0C0100
180200
100600
000C00
001800
003000
006000
004000
008000
018000
030000
060000
0C0000
180000
180000
3E0000
7F8000
FFC180
07C1C0
01E1C0
007180
001E00
ENDCHAR
STARTCHAR 017B
ENCODING 379
SWIDTH 560 0
DWIDTH 28 0
BBX 31 41 0 1
BITMAP
00007800
0000F800
0000F800
00007800
00000000
00000000
00000000
00000000
03FFFFFE
03FFFFFC
03C001F8
070001F0
060003F0
040007E0
0C000FC0
08000F80
00001F00
00003F00
00007E00
0000FC00
0000F800
0001F800
0003F000
0007E000
000FC000
000F8000
001F8000
003F0000
007E0000
00FC0000
00F80000
01F80000
03F00010
07E00030
07C00020
0F800060
1F8000E0
3F0001C0
7E0007C0
7FFFFFC0
FFFFFF80
ENDCHAR
STARTCHAR 017C
ENCODING 380
SWIDTH 380 0
DWIDTH 19 0
BBX 19 34 0 -4
BITMAP
000E00
001F00
001F00
001F00
000E00
000000
000000
000000
000000
07FFE0
0FFFC0
0FFF80
0C0100
180200
100600
000C00
001800
003000
006000
004000
008000
018000
030000
060000
0C0000
180000
180000
3E0000
7F8000
FFC180
07C1C0
01E1C0
007180
001E00
ENDCHAR
STARTCHAR 017D
ENCODING 381
SWIDTH 560 0
DWIDTH 28 0
BBX 31 44 0 0
BITMAP
000C0060
000E01C0
00070380
00078700
0003DE00
0001FC00
0001F800
0000F000
00000000
00000000
00000000
03FFFFFE
03FFFFFC
03C001F8
070001F0
060003F0
040007E0
0C000FC0
08000F80
00001F00
00003F00
00007E00
0000FC00
0000F800
0001F800
0003F000
0007E000
000FC000
000F8000
001F8000
003F0000
007E0000
00FC0000
00F80000
01F80000
03F00010
07E00030
07C00020
0F800060
1F8000E0
3F0001C0
7E0007C0
7FFFFFC0
FFFFFF80
ENDCHAR
STARTCHAR 017E
ENCODING 382
SWIDTH 380 0
DWIDTH 19 0
BBX 21 37 0 -4
BITMAP
018018
01C030
00E0E0
00F1C0
007F80
007F00
003E00
001C00
000000
000000
000000
000000
07FFE0
0FFFC0
0FFF80
0C0100
180200
100600
000C00
001800
003000
006000
004000
008000
018000
030000
060000
0C0000
180000
180000
3E0000
7F8000
FFC180
07C1C0
01E1C0
007180
001E00
ENDCHAR
STARTCHAR 017F
ENCODING 383
SWIDTH 460 0
DWIDTH 23 0
BBX 28 44 -4 -10
BITMAP
000007E0
00000C70
00001870
00003870
00007070
00007000
0000E000
0000E000
0001E000
0001E000
0001C000
0003C000
0003C000
007FC000
007FC000
00038000
00078000
00078000
00078000
00070000
00070000
000F0000
000F0000
000F0000
000E0000
001E0000
001E0000
001E0000
001C0000
001C0000
003C0000
003C0000
00380000
00380000
00380000
00780000
00700000
00700000
00600000
00E00000
E0C00000
E1800000
E3000000
7E000000
ENDCHAR
STARTCHAR 0180
ENCODING 384
SWIDTH 480 0
DWIDTH 24 0
BBX 22 35 1 0
BITMAP
001000
0FF000
0FF000
01E000
01E000
01E000
01E000
01E000
3FFC00
3FFC00
03C000
03C000
078000
078000
0787F0
0F1FF8
0F307C
0F407C
0F403C
1E803C
1F003C
1E003C
1E003C
3C007C
3C0078
3C0078
7800F0
7800F0
7801E0
7803C0
F00780
F00F00
F01E00
F03800
3FE000
ENDCHAR
STARTCHAR 0181
ENCODING 385
SWIDTH 740 0
DWIDTH 37 0
BBX 31 33 5 0
BITMAP
007FFFC0
03FFFFF0
0F07C0F8
1807C07C
3007C03E
600F803E
600F803E
E00F803E
E00F803E
E01F003E
E01F007C
E01F007C
401E00F8
003E03E0
003FFF80
003FFF00
007C0FC0
007C03E0
007C01F0
007800F8
00F800F8
00F800F8
00F800F8
00F000F8
01F000F8
01F000F8
01F001F0
03E001F0
03E003E0
03E007C0
07E01F80
0FFFFE00
3FFFF000
ENDCHAR
STARTCHAR 0182
ENCODING 386
SWIDTH 580 0
DWIDTH 29 0
BBX 30 33 0 0
BITMAP
01FFFFFC
007FFFFC
003F001C
003F000C
003E0008
003E0008
003E0008
007E0008
007C0000
007C0000
007C0000
00F80000
00F80000
00F80000
00FFF000
01FFFF00
01F01F80
01F007C0
03F007C0
03E003E0
03E003E0
03E003E0
07C003E0
07C003E0
07C007E0
0FC007C0
0F800FC0
0F800F80
0F801F00
1F007E00
1F03F800
3FFFE000
FFFF0000
ENDCHAR
STARTCHAR 0183
ENCODING 387
SWIDTH 480 0
DWIDTH 24 0
BBX 24 33 1 0
BITMAP
0FFFFF
01FFFF
00FFFE
01E006
01E006
01E004
01E000
03C000
03C000
03C000
038000
078000
0787F8
078FFC
0F187E
0F203E
0F401E
0F801E
1F801E
1F001E
1E001E
1E003C
3E003C
3C007C
3C0078
7800F0
7800F0
7801E0
7803C0
F00780
F00E00
F03C00
3FF000
ENDCHAR
STARTCHAR 0184
ENCODING 388
SWIDTH 580 0
DWIDTH 29 0
BBX 27 33 0 1
BITMAP
00010000
00030000
000F0000
001F0000
003E0000
007E0000
00FE0000
01FC0000
01FC0000
01FC0000
01FC0000
01F80000
01F80000
00F80000
01FF8000
01FFFC00
01F03F00
01F00F80
03F007C0
03E003E0
03E003E0
03E003E0
07E003E0
07C003E0
07C003E0
07C003E0
0FC007C0
0F8007C0
0F800F80
1F801F00
1F807E00
3FFFF800
FFFFC000
ENDCHAR
STARTCHAR 0185
ENCODING 389
SWIDTH 500 0
DWIDTH 25 0
BBX 22 34 3 0
BITMAP
001000
003000
007000
00E000
01E000
03E000
07E000
0FC000
1FC000
3FC000
1F8000
1F8000
1F8000
0F87F0
0F1FF8
0F307C
0F607C
0F403C
0E803C
1F003C
1F003C
1E003C
1E007C
3C0078
3C0078
3C00F0
7800F0
7801E0
7803C0
780780
F00F00
F01E00
F03800
3FE000
ENDCHAR
STARTCHAR 0186
ENCODING 390
SWIDTH 620 0
DWIDTH 31 0
BBX 34 34 -1 0
BITMAP
0001FFC000
000FFFF000
003E03FC00
007000FE00
01C0003F00
0380003F00
0200001F80
0000001F80
0000000F80
0000000FC0
0000000FC0
0000000FC0
0000000FC0
0000000FC0
0000000FC0
0000000FC0
0000001F80
0000001F80
0000001F80
0000001F00
0000003F00
0000003F00
0000007E00
2000007E00
200000FC00
200000F800
700001F000
700003E000
700007C000
78000F8000
FC001F0000
FE007C0000
FFC7F00000
C3FFC00000
ENDCHAR
STARTCHAR 0187
ENCODING 391
SWIDTH 860 0
DWIDTH 43 0
BBX 44 34 2 0
BITMAP
000000000180
0003FF801FE0
001FC1E071F0
003E0070C1F0
00F8001880E0
01F0000D8000
03E0000D0000
07C000070000
0F8000070000
1F8000060000
1F0000060000
3F0000060000
3E0000060000
7E0000000000
7E0000000000
7C0000000000
FC0000000000
FC0000000000
FC0000000000
FC0000000000
FC0000000000
FC0000000000
FC0000000000
FC0000000000
FC0000000000
7C0000000000
7E0000000000
7E0000000000
3F0000300000
3F8000600000
1FC001C00000
0FE007800000
03FFFE000000
00FFF0000000
ENDCHAR
STARTCHAR 0188
ENCODING 392
SWIDTH 580 0
DWIDTH 29 0
BBX 31 34 1 0
BITMAP
0000007C
0000008E
0000010E
0000030E
0000020E
00000200
00000400
00000400
00000400
00000C00
00000800
00000800
00001800
007FF800
00E0F000
0380F000
0700F000
0E00E000
1E000000
3C000000
3C000000
78000000
78000000
F8000000
F0000000
F0000000
F0000000
F0000000
F0000000
F8018000
78030000
7C060000
3F3C0000
1FF00000
ENDCHAR
STARTCHAR 0189
ENCODING 393
SWIDTH 700 0
DWIDTH 35 0
BBX 35 33 0 0
BITMAP
01FFFF8000
003FFFF000
001F00FC00
001F003E00
001F001F00
003E000F80
003E000780
003E0007C0
003E0007C0
007C0003E0
007C0003E0
007C0003E0
00F80003E0
00F80003E0
00F80003E0
1FFFF003E0
1FFFF003E0
01F00003E0
01F00007E0
01F00007C0
03E00007C0
03E0000FC0
03E0000F80
07C0001F00
07C0001F00
07C0003E00
07C0007C00
0F8000F800
0F8003F000
0F8007C000
1F803F0000
3FFFFC0000
FFFFC00000
ENDCHAR
STARTCHAR 018A
ENCODING 394
SWIDTH 900 0
DWIDTH 45 0
BBX 37 33 6 0
BITMAP
007FFFE000
03FFFFFC00
0F07C03F00
1807C00F80
3007C007C0
600FC003E0
600F8001E0
C00F8001F0
E00F8001F0
E01F0000F8
E01F0000F8
E01F0000F8
E01F0000F8
003E0000F8
003E0000F8
003E0000F8
007C0000F8
007C0000F8
007C0001F0
007C0001F0
00F80001F0
00F80003E0
00F80003E0
00F00007C0
01F0000FC0
01F0000F80
01F0001F00
03E0003E00
03E000FC00
03E001F000
07E00FC000
0FFFFF0000
3FFFF00000
ENDCHAR
STARTCHAR 018B
ENCODING 395
SWIDTH 660 0
DWIDTH 33 0
BBX 36 33 1 0
BITMAP
007FFFFFF0
007FFFFF80
00F0007E00
00E0007E00
00C0007C00
0180007C00
010000FC00
000000F800
000000F800
000001F800
000001F000
000001F000
000FFFF000
00FFFFE000
03FE03E000
07E007E000
0FC007C000
1F8007C000
3F000FC000
3E000F8000
7E000F8000
7C000F8000
7C001F0000
F8001F0000
F8001F0000
F8003E0000
F8003E0000
F8003E0000
FC007C0000
7E007C0000
7F80FC0000
1FFFFE0000
07FFFFC000
ENDCHAR
STARTCHAR 018C
ENCODING 396
SWIDTH 540 0
DWIDTH 27 0
BBX 25 33 1 0
BITMAP
003FFF80
007FFF80
007FFF00
00600F00
00C00F00
00800F00
00000E00
00001E00
00001E00
00001E00
00001C00
00003C00
001FBC00
00707800
00E07800
03C07800
07807800
0F007000
0E00F000
1E00F000
3C00E000
3C01E000
7801E000
7801E000
7803C000
F803C000
F007C000
F005C000
F00FC200
F81BC400
F873C800
7FE3F000
3F83E000
ENDCHAR
STARTCHAR 018D
ENCODING 397
SWIDTH 480 0
DWIDTH 24 0
BBX 23 35 0 -13
BITMAP
000FE0
007878
00E038
01C03C
03801E
07001E
0E001E
0E001E
1E001E
1C001E
1C003E
3C003E
3C003C
3C003C
3C0078
3C0078
3E00F0
1E00E0
1E01C0
1F0380
0FFF00
0F9000
07C000
07C000
03E000
01F000
01F000
00F800
00F800
807800
407800
607800
30F000
1FE000
020000
ENDCHAR
STARTCHAR 018E
ENCODING 398
SWIDTH 620 0
DWIDTH 31 0
BBX 34 33 0 0
BITMAP
000FFFFFC0
000FFFFF80
001C003E00
0018003E00
0030007C00
0030007C00
0020007C00
0000007C00
000000F800
000000F800
000400F800
000401F000
000401F000
000E01F000
000FFFF000
000FFFE000
000E03E000
000C03E000
001807C000
001807C000
001007C000
000007C000
00000F8000
00000F8000
40000F8000
40001F0000
40001F0000
60001F0000
E0001F0000
F0003E0000
FC007E0000
FFFFFF0000
FFFFFF8000
ENDCHAR
STARTCHAR 018F
ENCODING 399
SWIDTH 580 0
DWIDTH 29 0
BBX 28 34 2 -1
BITMAP
0003FE00
001FFF00
007FFFC0
00F81FC0
01E007E0
078007E0
0E0003F0
0C0001F0
080001F0
000001F0
000001F0
000001F0
000001F0
000001F0
000003F0
0000FFE0
000FFBE0
003FC7E0
00FE07C0
03F807C0
0FE00F80
1FC01F80
3F801F00
3F003E00
7E003E00
7E007C00
FC00F800
FC01F000
F801E000
F803C000
F80F0000
7C1E0000
7FF80000
1FC00000
ENDCHAR
STARTCHAR 0190
ENCODING 400
SWIDTH 520 0
DWIDTH 26 0
BBX 28 36 1 -1
BITMAP
0007FC30
001FFFE0
007C03E0
00F801E0
01F001E0
03F000C0
03E000C0
03E000C0
07C00080
07C00080
07C00000
07C00000
07C00000
07E00000
03E00000
03F80000
00FFC000
007FC000
03F80000
0FE00000
1FC00000
3F800000
3F000000
7E000000
7E000000
FE000000
FC000000
FC000000
FC000000
FC000800
FC001000
7E003000
7F00C000
3FCF8000
1FFE0000
03F80000
ENDCHAR
STARTCHAR 0191
ENCODING 401
SWIDTH 620 0
DWIDTH 31 0
BBX 38 43 -4 -10
BITMAP
0007FFFFFC
0000FFFFFC
00007E003C
00007C000C
00007C0008
00007C0008
00007C0008
0000F80008
0000F80000
0000F80000
0000F00200
0001F00600
0001F00C00
0001F01C00
0003FFF800
0003FFF800
0003E07800
0003E03000
0007C03000
0007C03000
0007C02000
000F802000
000F800000
000F800000
000F800000
001F000000
001F000000
001F000000
001E000000
003E000000
003E000000
003E000000
007C000000
007C000000
007C000000
0078000000
00F8000000
00F0000000
40F0000000
E1E0000000
E1C0000000
E380000000
7F00000000
ENDCHAR
STARTCHAR 0192
ENCODING 402
SWIDTH 460 0
DWIDTH 23 0
BBX 28 44 -4 -10
BITMAP
000007E0
00000C70
00001870
00003870
00007070
00007000
0000E000
0000E000
0000E000
0001E000
0001C000
0001C000
0003C000
007FFE00
007FFE00
00038000
00078000
00078000
00078000
00070000
000F0000
000F0000
000F0000
000F0000
000E0000
001E0000
001E0000
001E0000
001C0000
001C0000
003C0000
003C0000
00380000
00380000
00780000
00780000
00700000
00700000
00E00000
00E00000
E0C00000
E1800000
E3800000
7E000000
ENDCHAR
STARTCHAR 0193
ENCODING 403
SWIDTH 860 0
DWIDTH 43 0
BBX 44 35 2 -1
BITMAP
000000000380
0003FF801FF0
000F81E061F0
003E0070C0E0
007800188000
01F0000D8000
03E0000F0000
03C000070000
078000070000
0F8000060000
1F0000060000
1F0000060000
3E0000000000
3E0000000000
7C0000000000
7C0000000000
7C0000000000
FC0000000000
F8000FFF8000
F80001FE0000
F80000F80000
F80000F80000
F80000F00000
F80001F00000
F80001F00000
F80001F00000
780001E00000
7C0003E00000
3C0003E00000
3E0003E00000
1F0007C00000
0F800FC00000
07E01F800000
01FFFE000000
003FE0000000
ENDCHAR
STARTCHAR 0194
ENCODING 404
SWIDTH 660 0
DWIDTH 33 0
BBX 31 34 5 -1
BITMAP
FFF807FE
7FE001FC
3FC001F0
1F8001E0
0F800380
0F800700
0FC00E00
07C01C00
07C03800
03E07000
03E0E000
03E1C000
01F38000
01F70000
00FE0000
00FC0000
00FC0000
007C0000
00FC0000
01FE0000
03BE0000
073F0000
0E1F0000
1C1F0000
180F0000
300F0000
300F0000
600F0000
600F0000
601E0000
703C0000
78F80000
3FF00000
0FC00000
ENDCHAR
STARTCHAR 0195
ENCODING 405
SWIDTH 700 0
DWIDTH 35 0
BBX 34 34 1 0
BITMAP
0078000000
07F0000000
00F0000000
00F0000000
00E0000000
01E0000000
01E0000000
01E0000000
01C0000000
03C0000000
03C0000000
03C0000000
0380000100
0781F80380
0783FC03C0
078E7C03C0
07183C01C0
0F103C00C0
0F203C00C0
0F407800C0
1E80780080
1E80700080
1F00F00180
1E00F00100
3E01E00100
3C01E00300
3C01E00200
3801C00600
7803C00C00
7803C01800
7803C01000
7003E06000
F001FDC000
F000FF0000
ENDCHAR
STARTCHAR 0196
ENCODING 406
SWIDTH 280 0
DWIDTH 14 0
BBX 12 34 2 0
BITMAP
00F0
0FE0
01E0
01E0
01E0
01C0
01C0
03C0
03C0
0380
0780
0780
0780
0700
0F00
0F00
0F00
0E00
1E00
1E00
1E00
3C00
3C00
3C00
3800
7800
7800
7800
7040
F080
F100
F300
FE00
FC00
ENDCHAR
STARTCHAR 0197
ENCODING 407
SWIDTH 340 0
DWIDTH 17 0
BBX 19 33 0 0
BITMAP
01FFE0
007F80
003F00
003E00
003E00
003E00
003E00
003C00
007C00
007C00
007800
00F800
00F800
00F800
00F000
01F000
1FFF00
3FFF00
03E000
03E000
03E000
03C000
07C000
07C000
078000
0F8000
0F8000
0F8000
0F0000
1F0000
1F0000
3F8000
FFF000
ENDCHAR
STARTCHAR 0198
ENCODING 408
SWIDTH 800 0
DWIDTH 40 0
BBX 43 33 0 1
BITMAP
01FFF000FF00
007FC003C380
003F000701C0
003F001E01C0
003E003801E0
003E00F001C0
003E01E001C0
003C03800000
007C0F000000
007C1E000000
007C38000000
00F8F0000000
00F9E0000000
00FB80000000
00FF80000000
01FF80000000
01F7C0000000
01F7E0000000
03E3E0000000
03E1F0000000
03E1F0000000
03C0F8000000
07C0F8000000
07C07C000000
07C07E000000
07803E000000
0F801F000000
0F801F000000
0F800F800000
1F000F800000
1F000FC00000
3F801FF00000
FFF0FFFC0000
ENDCHAR
STARTCHAR 0199
ENCODING 409
SWIDTH 440 0
DWIDTH 22 0
BBX 22 34 1 0
BITMAP
000FC0
0018E0
0030E0
0070E0
00E0E0
00E000
01E000
01C000
01C000
03C000
03C000
038000
078000
0787FC
0781F0
0701C0
0F0300
0F0600
0F0C00
0E1800
1E3000
1E6000
1DE000
3FE000
3EF000
3CF000
387800
787800
783C00
783C10
701E20
F01F60
F00FC0
F00780
ENDCHAR
STARTCHAR 019A
ENCODING 410
SWIDTH 260 0
DWIDTH 13 0
BBX 13 34 1 0
BITMAP
00F8
07F0
00F0
00F0
00F0
00E0
01E0
01E0
01E0
01C0
03C0
03C0
03C0
0380
0780
0780
0780
0700
FFF0
FFF0
0F00
0E00
1E00
1E00
1C00
3C00
3C00
3C00
3820
7840
78C0
7980
7F00
7E00
ENDCHAR
STARTCHAR 019B
ENCODING 411
SWIDTH 480 0
DWIDTH 24 0
BBX 22 33 0 0
BITMAP
007800
00FC00
00FC00
018E00
018608
010638
0002F8
0003E0
000F00
003E00
00F200
00C600
000E00
000E00
001E00
003E00
003E00
007E00
007A00
00FB00
01F300
01E300
03E300
07C300
07C300
0F8300
1F0300
1F0304
3E030C
7C0388
7C03F8
F801F0
F001E0
ENDCHAR
STARTCHAR 019C
ENCODING 412
SWIDTH 900 0
DWIDTH 45 0
BBX 43 34 5 0
BITMAP
1FFE7FF9FFE0
1FFE7FF9FFE0
01F80FC07F00
01F00FC03E00
01F00F803E00
01E00F803C00
03E00F007C00
03E01F007C00
03E01F007C00
03C01F007800
07C03E00F800
07C03E00F800
07C03E00F000
0F803C01F000
0F807C01F000
0F807C01E000
0F807C03E000
1F00F803E000
1F00F803E000
1F01F807C000
3E01F007C000
3E01F00FC000
3E03F00F8000
3E03F01F8000
7C05E01F8000
7C0FE03F8000
7C0BE06F0000
7C13E0CF0000
F837C0DF0000
F867C19F0000
F8C7C31F0000
F987C63F0000
FF07FC3FE000
7C03F03E0000
ENDCHAR
STARTCHAR 019D
ENCODING 413
SWIDTH 760 0
DWIDTH 38 0
BBX 45 43 -4 -10
BITMAP
0001FE001FF8
00007E0003F0
00003F0003E0
00001F0001C0
00001F800380
00001F800380
000037800380
000037C00380
000037C00700
000033E00700
000063E00700
000061E00600
000061F00E00
000040F00E00
0000C0F80E00
0000C0F80C00
0000C0781C00
0001807C1C00
0001803C1800
0001803E3800
0001803E3800
0003001E3800
0003001F3000
0003000F7000
0003000FF000
00060007E000
00060007E000
00060007E000
000C0003E000
000C0003C000
000C0001C000
000C0001C000
001800018000
001800008000
001800000000
003000000000
003000000000
006000000000
406000000000
E0C000000000
E1C000000000
E38000000000
7F0000000000
ENDCHAR
STARTCHAR 019E
ENCODING 414
SWIDTH 500 0
DWIDTH 25 0
BBX 21 31 1 -9
BITMAP
0781F0
7F87F8
0F8E78
0F1878
0F3078
0F2078
0E4070
1E80F0
1F80F0
1D00E0
1E00E0
3E01E0
3C01E0
3C01C0
7801C0
7803C0
7803C0
700380
F00780
F00780
F00780
000700
000F00
000F00
000F00
000E10
001E30
001E20
001E40
001F80
001F00
ENDCHAR
STARTCHAR 019F
ENCODING 415
SWIDTH 660 0
DWIDTH 33 0
BBX 32 34 2 0
BITMAP
0001FFC0
0007C1E0
001E0070
003C0078
0078003C
00F0003E
01E0001E
03E0001E
07C0001F
0F80001F
0F80001F
1F00001F
1F00001F
3E00001F
3E00003F
7FFFFFFF
7FFFFFFE
7C00003E
FC00007E
FC00007C
F80000FC
F80000F8
F80000F8
F80001F0
F80001F0
F80003E0
780007C0
7C000780
3C000F00
3C001E00
1E003800
0F00F000
07FFC000
01FE0000
ENDCHAR
STARTCHAR 01A0
ENCODING 416
SWIDTH 780 0
DWIDTH 39 0
BBX 40 36 2 -1
BITMAP
000000001E
000000001E
0001FFC01F
0007C1E001
001E007001
003C007801
0078003C03
00F0003E02
01E0001E06
03C0001FFC
07C0001FF0
0F80001F00
0F80001F00
1F00001F00
3F00001F00
3E00001F00
3E00003F00
7E00003F00
7C00003E00
7C00003E00
FC00007E00
FC00007C00
F800007C00
F80000F800
F80000F800
F80001F000
F80001F000
F80003E000
780007C000
7C00078000
3C000F0000
3C001E0000
1E00780000
0F00F00000
07FFC00000
01FE000000
ENDCHAR
STARTCHAR 01A1
ENCODING 417
SWIDTH 580 0
DWIDTH 29 0
BBX 30 27 1 0
BITMAP
00000078
0000007C
0000003C
00000004
00000004
00000004
003FE00C
00E07018
01C07830
03803EE0
07003FC0
0F003C00
1E003C00
3C003C00
3C003C00
7C007C00
78007C00
F8007800
F800F800
F000F000
F001E000
F001E000
F003C000
F0078000
78070000
381C0000
1FF00000
ENDCHAR
STARTCHAR 01A2
ENCODING 418
SWIDTH 900 0
DWIDTH 45 0
BBX 45 35 2 -1
BITMAP
0000000000E0
0001FF8003F0
0007C1E007F8
001E00780CF8
003C003C18F8
0078003C30F8
00F0003E60F8
01E0001E41F0
03C0001FC1F0
07C0001F81F0
0F80001F01E0
0F80001F03E0
1F00001F03E0
3F00001F03E0
3E00001F07C0
7E00003F07C0
7E00003F07C0
7C00003E0780
FC00003E0F80
FC00007E0F80
FC00007C0F80
F80000FC1F00
F80000F81F00
F80000F81F00
F80001F01F00
F80003F03E00
F80003E03E00
780007C03E00
7C0007803C00
3C000F007C00
3C001E007C00
1E0078007C00
0F00F000FE00
07FFC003FFC0
01FE00000000
ENDCHAR
STARTCHAR 01A3
ENCODING 419
SWIDTH 720 0
DWIDTH 36 0
BBX 32 31 1 -9
BITMAP
003FE03E
00E0707F
01C078CF
03803D0F
0F003E0F
0F003C0F
1E003C0E
3C003C1E
3C003C1E
7C007C1C
78007C1C
F800783C
F800F83C
F000F038
F001E038
F001E078
F003C078
F0078070
780600F0
381C00F0
1FF000F0
000000E0
000001E0
000001E0
000001E0
000001C2
000003C6
000003C4
000003C8
000003F0
000003E0
ENDCHAR
STARTCHAR 01A4
ENCODING 420
SWIDTH 700 0
DWIDTH 35 0
BBX 33 33 4 0
BITMAP
003FFFE000
01FFFFF800
0707E07E00
1807C01F00
3007C01F00
2007C00F80
6007C00F80
600F800F80
E00F800F80
E00F800F80
E00F000F80
E01F001F00
C01F001F00
001F003E00
001E007C00
003E03F800
003FFFE000
003FFF0000
007C000000
007C000000
007C000000
0078000000
00F8000000
00F8000000
00F0000000
01F0000000
01F0000000
01F0000000
01E0000000
03E0000000
03E0000000
0FF0000000
3FFE000000
ENDCHAR
STARTCHAR 01A5
ENCODING 421
SWIDTH 480 0
DWIDTH 24 0
BBX 27 44 -4 -10
BITMAP
00003F00
00006380
0000E380
0001C380
00038380
00038000
00078000
00070000
000F0000
000F0000
000E0000
001E0000
001E0000
001E3F80
001C7FC0
003C83E0
003D01E0
003E01E0
007C01E0
007C01E0
007801E0
007801E0
00F003E0
00F003E0
00F003C0
00F007C0
01E00780
01E00700
01E00F00
01E01E00
03C03C00
03C07800
03C0E000
03FF8000
07800000
07800000
07800000
0F000000
0F000000
0F000000
0F000000
1F000000
3F000000
FFE00000
ENDCHAR
STARTCHAR 01A6
ENCODING 422
SWIDTH 620 0
DWIDTH 31 0
BBX 28 42 0 -9
BITMAP
01FFE000
003F8000
003F0000
003E0000
003E0000
003E0000
003FE000
003FFF00
007E0FC0
007C03E0
007C03E0
00F801F0
00F801F0
00F801F0
00F801F0
01F001F0
01F001F0
01F003F0
03E003E0
03E007C0
03E00F80
03E03F00
07FFFE00
07FFF000
07C1E000
07807800
0F803800
0F803C00
0F803C00
1F803C00
1F803C00
3F807C00
FFF07C00
00007C00
0000FC00
0000F800
0000F810
0000F810
0000F820
00007860
00007CC0
00001F00
ENDCHAR
STARTCHAR 01A7
ENCODING 423
SWIDTH 500 0
DWIDTH 25 0
BBX 21 35 3 -1
BITMAP
061F80
07FFE0
07C1F0
078078
070078
060078
0C0078
0C00F8
0800F8
0801F0
0003F0
0007E0
000FC0
001FC0
003F80
007E00
01FC00
03F800
07F000
0FC000
1F8000
3F0000
3E0000
7C0000
780020
F80020
F00060
F00040
F000C0
F001C0
F003C0
7807C0
780F80
3FFD80
0FC080
ENDCHAR
STARTCHAR 01A8
ENCODING 424
SWIDTH 360 0
DWIDTH 18 0
BBX 13 21 3 1
BITMAP
3FE0
7870
7070
6070
40F0
40F0
01E0
03E0
07C0
0F80
1F00
3E00
7C00
7800
F808
F008
F018
F038
F038
70F0
3FF0
ENDCHAR
STARTCHAR 01A9
ENCODING 425
SWIDTH 660 0
DWIDTH 33 0
BBX 34 33 0 0
BITMAP
00FFFFFFC0
007FFFFFC0
003F0007C0
001F0001C0
001F8001C0
000F8000C0
0007C00080
0003E00080
0001F00080
0001F00000
0000F80000
00007C0000
00003E0000
00003F0000
00001F8000
00000F8000
0000070000
00001E0000
0000380000
0000700000
0000E00000
0003C00000
0007000000
000E000000
001C000400
0070000400
00E0000800
01C0001800
0780007800
0FFFFFF800
1FFFFFF000
3FFFFFF000
FFFFFFF000
ENDCHAR
STARTCHAR 01AA
ENCODING 426
SWIDTH 460 0
DWIDTH 23 0
BBX 14 44 6 -10
BITMAP
0300
0FC0
3860
7030
6018
C00C
C00C
C00C
C00C
E01C
601C
383C
1FFC
07FC
00F8
0078
0078
0078
0078
00F0
00F0
00F0
00F0
01E0
01E0
01E0
01E0
03C0
03C0
03C0
0380
0780
0780
0780
0700
0700
0700
0700
0700
0700
0300
0370
0178
00F0
ENDCHAR
STARTCHAR 01AB
ENCODING 427
SWIDTH 320 0
DWIDTH 16 0
BBX 19 33 -3 -7
BITMAP
000180
000100
000700
000F00
003E00
00FFE0
00FFE0
001E00
001E00
001E00
001C00
003C00
003C00
003C00
003800
007800
007800
007000
00F000
00F000
00F100
00E300
01E600
01E600
01FE00
01F400
000C00
000800
201800
703000
F86000
FFC000
7E0000
ENDCHAR
STARTCHAR 01AC
ENCODING 428
SWIDTH 560 0
DWIDTH 28 0
BBX 30 33 2 0
BITMAP
007FFFFC
03FFFFF8
0E07E078
1807C038
3007C010
6007C010
40078010
E00F8010
E00F8000
E00F8000
E01F0000
E01F0000
401F0000
001E0000
003E0000
003E0000
003E0000
003C0000
007C0000
007C0000
007C0000
00F80000
00F80000
00F80000
00F00000
01F00000
01F00000
01F00000
01E00000
03E00000
03E00000
0FF00000
7FFF0000
ENDCHAR
STARTCHAR 01AD
ENCODING 429
SWIDTH 340 0
DWIDTH 17 0
BBX 19 34 3 0
BITMAP
000FC0
001CE0
0038E0
0070E0
00E0E0
00E000
01E000
01C000
03C000
03C000
03C000
078000
1F8000
3FF800
7FF000
0F0000
0F0000
0F0000
0E0000
1E0000
1E0000
1E0000
1C0000
3C0000
3C0000
3C0000
380000
780000
780000
708000
F10000
F20000
FC0000
F80000
ENDCHAR
STARTCHAR 01AE
ENCODING 430
SWIDTH 560 0
DWIDTH 28 0
BBX 29 43 3 -10
BITMAP
3FFFFFF8
3FFFFFF0
780FC0F0
700F8070
600F8020
400F8020
C01F0020
801F0020
001F0000
001F0000
003E0000
003E0000
003E0000
007C0000
007C0000
007C0000
007C0000
00F80000
00F80000
00F80000
00F00000
01F00000
01F00000
01F00000
03E00000
03E00000
03E00000
03E00000
07C00000
07C00000
07C00000
07800000
07800000
07800000
07800000
07800000
07800000
07000000
03000000
03380000
01BC0000
01BC0000
00F80000
ENDCHAR
STARTCHAR 01AF
ENCODING 431
SWIDTH 800 0
DWIDTH 40 0
BBX 39 36 5 -1
BITMAP
0000000018
000000003C
7FFE00FF3E
0FF8003E0E
07E0001C02
07C0001C02
07C0001C06
07C0001C04
0F80003E0C
0F80003FF8
0F800031E0
0F80003000
1F00007000
1F00006000
1F00006000
3E0000E000
3E0000C000
3E0000C000
3E0000C000
7C0001C000
7C00018000
7C00018000
7C00038000
F800030000
F800030000
F800030000
F800060000
F800060000
F8000E0000
F8000C0000
78001C0000
7C00380000
3E00700000
1F83E00000
0FFF800000
01FE000000
ENDCHAR
STARTCHAR 01B0
ENCODING 432
SWIDTH 600 0
DWIDTH 30 0
BBX 30 28 2 -1
BITMAP
00000078
0000007C
0000003C
00000004
00000004
00000004
0F00780C
7F00F808
0F00F818
0E00FFF0
0E01F3C0
1E01E000
1E03E000
1C03E000
1C03C000
3C07C000
3C07C000
380BC000
781F8000
78178000
78278000
F0678800
F0CF0800
F18F1000
F30F2000
FE0FC000
FC0F8000
20000000
ENDCHAR
STARTCHAR 01B1
ENCODING 433
SWIDTH 740 0
DWIDTH 37 0
BBX 37 34 2 -1
BITMAP
0FFFC1FFF8
0FFFC1FFF8
0FFFC1FFF8
0FFF81FFF8
0E01810070
1801830010
1001830010
1007830000
007F83F000
00FC00FC00
03F0007E00
07E0003F00
0FC0001F80
1F80000F80
1F00000FC0
3E000007C0
3E000007C0
7C000007C0
7C000007C0
FC000007C0
F8000007C0
F8000007C0
F800000FC0
F800000F80
F800000F80
F800001F00
FC00003F00
7C00007E00
7C00007C00
3E0001F800
1F0003F000
0F800FC000
03F07E0000
007FF00000
ENDCHAR
STARTCHAR 01B2
ENCODING 434
SWIDTH 700 0
DWIDTH 35 0
BBX 31 34 4 0
BITMAP
3FE00000
3FE003C0
07E007E0
07E007F0
07C007F8
07C007FC
07C000FC
07C0001C
0F80000E
0F800006
0F800006
0F800006
1F000006
1F000006
1F000006
3F000006
3E000006
3E00000E
3E00000C
7E00000C
7C00001C
7C000018
7C000038
FC000030
F8000060
F80000E0
F80001C0
F8000380
F8000700
FC000E00
7C003C00
7F00F000
3FFFC000
0FFF0000
ENDCHAR
STARTCHAR 01B3
ENCODING 435
SWIDTH 660 0
DWIDTH 33 0
BBX 33 34 5 0
BITMAP
3F80000000
F9C001FF80
F8E0007F00
F0F0001E00
7078003C00
007C003800
003C007000
003C006000
003E00C000
001E01C000
001E038000
001F070000
001F060000
000F0C0000
000F980000
000FB80000
0007F00000
0007E00000
0007C00000
0007C00000
0007C00000
000F800000
000F800000
000F800000
000F000000
001F000000
001F000000
001F000000
003E000000
003E000000
003E000000
007E000000
00FF000000
07FFE00000
ENDCHAR
STARTCHAR 01B4
ENCODING 436
SWIDTH 580 0
DWIDTH 29 0
BBX 30 43 0 -10
BITMAP
000000F8
0000031C
0000021C
0000041C
0000041C
00000800
00000800
00000800
00000800
00001000
00001000
00001000
1FC02000
2FC02000
03E02000
01E02000
01E04000
00F04000
00F04000
00F04000
00F08000
00788000
00788000
00790000
007D0000
003D0000
003E0000
003E0000
001E0000
001C0000
001C0000
00180000
00180000
00100000
00100000
00200000
00600000
00C00000
01800000
63800000
FF000000
FE000000
78000000
ENDCHAR
STARTCHAR 01B5
ENCODING 437
SWIDTH 560 0
DWIDTH 28 0
BBX 31 33 0 0
BITMAP
03FFFFFE
03FFFFFC
03C001F8
070001F0
060003F0
040007E0
0C000FC0
08000F80
00001F80
00003F00
00007E00
00007C00
0000FC00
0001F800
0003F000
007FFE00
007FFE00
000FC000
001F8000
003F0000
003E0000
007C0000
00FC0000
01F80000
03F00000
03E00030
07C00020
0F800060
1F8000E0
3F0001C0
7E0007C0
7FFFFFC0
FFFFFF80
ENDCHAR
STARTCHAR 01B6
ENCODING 438
SWIDTH 380 0
DWIDTH 19 0
BBX 19 25 0 -4
BITMAP
07FFE0
0FFFC0
0FFF80
0C0100
180200
100400
000C00
001800
003000
0FFF00
0FFF00
008000
018000
030000
060000
040000
080000
180000
3E0000
7F8000
FFC180
07C1C0
01E1C0
007180
001E00
ENDCHAR
STARTCHAR 01B7
ENCODING 439
SWIDTH 520 0
DWIDTH 26 0
BBX 30 33 -1 0
BITMAP
001FFFFC
003FFFFC
003E00F8
003801F0
007001E0
006003E0
00C007C0
00800F80
00800F00
01001E00
00003E00
00007C00
00007800
0000F000
0001FE00
0003FF00
0003FF00
00001F80
00001F80
00000F80
00000F80
00000F80
00000F80
00000F80
00001F00
00001F00
80001E00
C0003E00
E0007C00
7000F800
3C03F000
0FFFC000
03FF8000
ENDCHAR
STARTCHAR 01B8
ENCODING 440
SWIDTH 560 0
DWIDTH 28 0
BBX 27 33 1 0
BITMAP
01FFFFE0
01FFFFE0
01F007C0
00F001C0
00F001C0
00F800C0
00F800C0
007800C0
00780080
007C0000
007C0000
007C0000
003C0000
003C0000
01FE0000
07FE0000
0FFE0000
1FE00000
3F800000
3F000000
7E000000
7C000000
7C000000
FC000000
F8000000
F8000000
F8000200
F8000600
F8001C00
7C003800
7E01E000
3FFF8000
0FFE0000
ENDCHAR
STARTCHAR 01B9
ENCODING 441
SWIDTH 440 0
DWIDTH 22 0
BBX 24 31 -1 -10
BITMAP
003FFF
003FFF
003FFF
001002
001002
001802
000800
000800
000C00
000400
000400
003C00
01FE00
03F800
07E000
0F8000
1F0000
3E0000
3C0000
780000
780000
F00000
F00000
E00000
E00000
E00000
E00700
601F00
307F00
1FFE00
07F800
ENDCHAR
STARTCHAR 01BA
ENCODING 442
SWIDTH 420 0
DWIDTH 21 0
BBX 25 31 -2 -10
BITMAP
003FFF80
003FFF80
007FFE00
00600C00
00C03000
00806000
00018000
00030000
000C0000
001F8000
007FE000
00FFF000
0303F000
0401F000
0001F000
0003E000
0007E000
001FC000
007F8000
01FE0000
07F80000
1FE00000
3F800000
7C000000
78000000
F0000000
E0300000
E0380000
E0700000
70E00000
1F800000
ENDCHAR
STARTCHAR 01BB
ENCODING 443
SWIDTH 500 0
DWIDTH 25 0
BBX 26 33 1 0
BITMAP
000FF800
003FFE00
007FFF00
00E07F00
01C03F80
01801F80
03000F80
06000F80
04000F80
04000F80
00000F00
00000F00
00001E00
00001E00
00003C00
00003800
000FFFC0
001FFFC0
0000E000
00018000
00030000
00060000
000C0000
00180000
00300000
00600000
00C00100
01000300
06000600
0C003C00
1FFFFC00
3FFFF800
FFFFF000
ENDCHAR
STARTCHAR 01BC
ENCODING 444
SWIDTH 620 0
DWIDTH 31 0
BBX 30 33 1 0
BITMAP
003FFFFC
0007FFFC
0003E01C
0003E00C
0003E00C
0007C008
0007C008
0007C000
0007C000
000F8000
000F8000
000F8000
000FFE00
001FFF80
00001FC0
000007E0
000003E0
000001F0
000001F0
000001F0
000001F0
000001F0
000001F0
000003F0
000003E0
000007E0
C00007C0
E0000F80
70001F80
38007F00
1E01FC00
0FFFF800
03FFE000
ENDCHAR
STARTCHAR 01BD
ENCODING 445
SWIDTH 440 0
DWIDTH 22 0
BBX 22 32 -1 -10
BITMAP
003FFC
003FFC
007FFC
004000
004000
008000
008000
010000
01F000
03FC00
03FE00
01FF00
003F80
000FC0
0003E0
0003E0
0001E0
0001E0
0000E0
0000E0
0000E0
0000E0
0000E0
0000E0
0001C0
0001C0
000380
000380
F00700
F81C00
FFF800
7FE000
ENDCHAR
STARTCHAR 01BE
ENCODING 446
SWIDTH 380 0
DWIDTH 19 0
BBX 14 27 1 -1
BITMAP
0040
00C0
0380
0780
0F80
3FF0
3FF0
0F00
0F00
0F00
0F00
0F80
07C0
07E0
03E0
01F0
01F8
00F8
007C
407C
403C
603C
6038
E038
F070
FFE0
8000
ENDCHAR
STARTCHAR 01BF
ENCODING 447
SWIDTH 480 0
DWIDTH 24 0
BBX 27 31 -4 -9
BITMAP
00FE3F80
01FC7FC0
003C83E0
003B01E0
003C01E0
007C01E0
007801E0
007001E0
007001E0
00F001E0
00E003E0
00E003C0
00E003C0
01E00780
01C00780
01C00F00
01C01E00
03C03C00
03807800
0380E000
0781C000
07870000
071C0000
07700000
0F800000
0F000000
0E000000
0E000000
1E000000
3F000000
FFE00000
ENDCHAR
STARTCHAR 01C0
ENCODING 448
SWIDTH 240 0
DWIDTH 12 0
BBX 11 36 3 0
BITMAP
0060
0060
00E0
00E0
00C0
00C0
01C0
01C0
0180
0180
0380
0380
0300
0300
0700
0700
0600
0600
0E00
0E00
0C00
0C00
1C00
1C00
1800
1800
3800
3800
3000
3000
7000
7000
6000
6000
E000
E000
ENDCHAR
STARTCHAR 01C1
ENCODING 449
SWIDTH 360 0
DWIDTH 18 0
BBX 18 36 3 0
BITMAP
0060C0
0061C0
00E180
00E180
00C380
00C380
01C300
01C300
018700
018700
038600
038600
030E00
030E00
070C00
070C00
061C00
061C00
0E1800
0E1800
0C3800
0C3800
1C3000
1C3000
187000
187000
386000
386000
30E000
30E000
70C000
70C000
61C000
61C000
E18000
E18000
ENDCHAR
STARTCHAR 01C2
ENCODING 450
SWIDTH 600 0
DWIDTH 30 0
BBX 27 36 4 -1
BITMAP
00006000
0000E000
0000E000
0000C000
0000C000
0001C000
0001C000
00018000
00018000
00038000
00038000
00030000
3FFFFFE0
3FFFFFE0
00070000
00060000
00060000
000E0000
000E0000
000C0000
000C0000
001C0000
FFFFFF80
FFFFFF80
00180000
00380000
00380000
00300000
00300000
00700000
00700000
00600000
00600000
00E00000
00E00000
00C00000
ENDCHAR
STARTCHAR 01C3
ENCODING 451
SWIDTH 340 0
DWIDTH 17 0
BBX 13 33 2 0
BITMAP
0078
0078
00F8
00F8
00F8
00F0
01F0
01E0
01E0
01E0
01C0
03C0
0380
0380
0380
0300
0700
0600
0600
0600
0400
0C00
0C00
0800
0000
0000
0000
0000
7000
F800
F800
F800
7800
ENDCHAR
STARTCHAR 01C4
ENCODING 452
SWIDTH 1260 0
DWIDTH 63 0
BBX 66 44 0 0
BITMAP
000000000001800C00
000000000000C01800
000000000000603000
00000000000070F000
00000000000039E000
0000000000003FC000
0000000000001F8000
0000000000001F0000
000000000000000000
000000000000000000
000000000000000000
01FFFF80003FFFFFC0
003FFFF0007FFFFFC0
001F00FC007C001F80
001F003E0070003F00
001F001F0040007E00
003E000F80C0007C00
003E0007808000FC00
003E0007C08001F800
003E0007C00003F000
007C0003E00003E000
007C0003E00007C000
007C0003E0000FC000
00F80003E0001F8000
00F80003E0003F0000
00F80003E0003E0000
00F80003E0007E0000
01F00003E000FC0000
01F00007E001F80000
01F00007C003F00000
01F00007C003E00000
03E00007C007E00000
03E0000F800FC00000
03E0000F801F800000
07C0001F003F000000
07C0003F003E000300
07C0003E007E000200
07C0007C00FC000600
0F8000F801F8000600
0F8003F001F0000C00
0F8007C003E0001C00
1F803F0007E000FC00
3FFFFC000FFFFFF800
FFFFC0000FFFFFF800
ENDCHAR
STARTCHAR 01C5
ENCODING 453
SWIDTH 1100 0
DWIDTH 55 0
BBX 56 37 0 -4
BITMAP
01FFFF80003003
003FFFF0003806
001F00FC001C1C
001F003E001E38
001F001F000F70
003E000F8007E0
003E00078007C0
003E0007C00380
003E0007C00000
007C0003E00000
007C0003E00000
007C0003E00000
00F80003E0FFFC
00F80003E1FFF8
00F80003E1FFF0
00F80003E18020
01F00003E30040
01F00007E200C0
01F00007C00180
01F00007C00300
03E00007C00600
03E0000F800400
03E0000F800800
07C0001F001800
07C0003F003000
07C0003E006000
07C0007C00C000
0F8000F8018000
0F8003F0010000
0F8007C0030000
1F803F0007C000
3FFFFC000FF000
FFFFC0001FF838
0000000000F838
00000000003C38
00000000000E30
000000000003C0
ENDCHAR
STARTCHAR 01C6
ENCODING 454
SWIDTH 860 0
DWIDTH 43 0
BBX 44 38 1 -4
BITMAP
00003F800000
00003F830030
000007038060
00000701C1C0
00000F01E380
00000F00FF00
00000E00FE00
00000E007C00
00001E003800
00001E000000
00001C000000
00001C000000
00003C000000
003FBC0FFFC0
00F0B81FFF80
01C0F81FFF00
0380F8180200
0780F0300400
0F00F0200C00
1E00F0001800
1E00F0003000
3C00E0006000
3C01E000C000
7801E0008000
7801C0010000
F803C0030000
F803C0060000
F007C00C0000
F00B80180000
F00F84300000
F81788300000
F867907C0000
7FC7E0FF0000
3F87C1FF8300
0000000F8380
00000003C380
00000000E300
000000003C00
ENDCHAR
STARTCHAR 01C7
ENCODING 455
SWIDTH 1000 0
DWIDTH 50 0
BBX 52 34 0 -1
BITMAP
01FFF80000FFF0
007FC000001FC0
001F8000000F80
001F0000000F80
001F0000000F00
003E0000001F00
003E0000001F00
003E0000001F00
003C0000001E00
007C0000003E00
007C0000003E00
007C0000003E00
00F80000007C00
00F80000007C00
00F80000007C00
00F80000007800
01F0000000F800
01F0000000F800
01F0000000F800
01E0000001F000
03E0000001F000
03E0000001F000
03E0000001E000
07C0000003E000
07C0001003E000
07C0003003E000
0780006003C000
0F80006207C000
0F8000EF878000
0F8001CF878000
1F800FCF8F0000
3FFFFFCF8E0000
FFFFFF87FC0000
00000001F00000
ENDCHAR
STARTCHAR 01C8
ENCODING 456
SWIDTH 820 0
DWIDTH 41 0
BBX 41 43 0 -10
BITMAP
01FFF8000700
007FC0000F80
001F80000F80
001F00000F80
001F00000F00
003E00000000
003E00000000
003E00000000
003C00000000
007C00000000
007C00000000
007C00000100
00F800003E00
00F80001FE00
00F800001E00
00F800001E00
01F000001C00
01F000003C00
01F000003C00
01E000003C00
03E000003800
03E000007800
03E000007800
07C000007800
07C000107000
07C00030F000
07800060F000
0F800060F000
0F8000E0E000
0F8001C1E000
1F800FC1E000
3FFFFFC1E000
FFFFFF81C000
00000003C000
00000003C000
000000038000
000000078000
000000070000
000002070000
0000070E0000
0000070E0000
0000071C0000
000003F00000
ENDCHAR
STARTCHAR 01C9
ENCODING 457
SWIDTH 500 0
DWIDTH 25 0
BBX 23 44 2 -10
BITMAP
00F000
0FF01C
01E03E
01E03E
01E03E
01E01C
03C000
03C000
03C000
03C000
078000
078000
078004
0780F8
0F07F8
0F0078
0F0078
0E0070
1E00F0
1E00F0
1E00F0
1C00E0
3C01E0
3C01E0
3C01E0
3801C0
7803C0
7803C0
7843C0
F08380
F10380
F30780
FE0780
FC0700
000700
000F00
000E00
000E00
001E00
081C00
1C3800
1C3800
1C7000
0FC000
ENDCHAR
STARTCHAR 01CA
ENCODING 458
SWIDTH 1040 0
DWIDTH 52 0
BBX 55 34 0 -1
BITMAP
01FE001FF83FFE
007E0007F007F8
003F0003C003F0
001F0001C003E0
001F8003C003E0
001F80038003E0
003F80038003C0
0037C0038007C0
0037C0070007C0
0063E0070007C0
0063E007000780
0063E006000F80
0041F00E000F80
00C1F00E000F80
00C0F80E001F00
00C0F80C001F00
0180781C001F00
01807C1C001E00
01807C18003E00
01803E38003E00
03003E38003E00
03001E38007C00
03001F30007C00
02000F70007C00
06000FF0007800
06000FE000F800
060007E000F800
0C0007E080F000
0C0003E1E0F000
1C0003C3E1F000
1C0001C3E1E000
3E0001C1F3C000
FFC00181FF8000
000000807E0000
ENDCHAR
STARTCHAR 01CB
ENCODING 459
SWIDTH 900 0
DWIDTH 45 0
BBX 44 43 0 -10
BITMAP
01FE001FF8E0
007E0007F0F0
003F0003C1F0
001F0001C1F0
001F8003C0F0
001F80038000
003F80038000
0037C0038000
0037C0070000
0063E0070000
0063E0070000
0063E0060000
0041F00E03E0
00C1F00E3FE0
00C0F80E03C0
00C0F80C03C0
0180781C03C0
01807C1C03C0
01807C180380
01803E380780
03003E380780
03001E380780
03001F300700
02000F700F00
06000FF00F00
06000FE00F00
060007E00E00
0C0007E01E00
0C0003E01E00
1C0003C01E00
1C0001C01C00
3E0001C03C00
FFC001803C00
000000803800
000000003800
000000007800
000000007000
000000007000
00000060E000
000000F0E000
000000F1C000
000000718000
0000007F0000
ENDCHAR
STARTCHAR 01CC
ENCODING 460
SWIDTH 740 0
DWIDTH 37 0
BBX 36 43 1 -10
BITMAP
00000000E0
00000001F0
00000001F0
00000001F0
00000000E0
0000000000
0000000000
0000000000
0000000000
0000000000
0000000000
0040400020
0783F007E0
3F87F83FC0
0F8C7803C0
07187803C0
0F307803C0
0F20700380
0F40F00780
0E80F00780
1E80F00780
1F00E00700
1E01E00F00
3E01E00F00
3C01C00F00
3C03C00E00
7803C01E00
7803C01E00
7803841E00
7007881C00
F007903C00
F007E03C00
E007C03800
0000003800
0000007800
0000007000
0000007000
000000F000
000040E000
0000E0C000
0000E1C000
0000E38000
00007E0000
ENDCHAR
STARTCHAR 01CD
ENCODING 461
SWIDTH 660 0
DWIDTH 33 0
BBX 31 44 0 0
BITMAP
0001C00C
0000C038
00006070
000071E0
00003BC0
00003F80
00001F00
00001E00
00000000
00000000
00000000
00000C00
00000C00
00001E00
00001E00
00003E00
00003E00
00007E00
0000DE00
0000DF00
00019F00
00019F00
00031F00
00061F00
00060F00
000C0F80
000C0F80
00180F80
00380F80
00300F80
00600780
007FFFC0
00FFFFC0
01C007C0
018007C0
038007C0
030003C0
070003E0
0E0003E0
0E0003E0
1C0003E0
3C0003F0
7E0007F0
FF803FFE
ENDCHAR
STARTCHAR 01CE
ENCODING 462
SWIDTH 500 0
DWIDTH 25 0
BBX 24 33 1 -1
BITMAP
004003
006006
00301C
003838
001CF0
001FE0
000FC0
000F80
000700
000000
000000
000000
003F9C
00F05C
01C07C
038078
078078
0F0078
1E0070
1E0070
3C00F0
3C00F0
7800E0
7801E0
F801E0
F003E0
F007C0
F005C0
F00BC6
F813CC
FC63D8
7FC3F0
3F83E0
ENDCHAR
STARTCHAR 01CF
ENCODING 463
SWIDTH 320 0
DWIDTH 16 0
BBX 24 43 0 0
BITMAP
006007
00700C
003838
001C70
001FE0
000FC0
000F80
000700
000000
000000
01FFF0
003FC0
001F00
001F00
001F00
003E00
003E00
003E00
003C00
007C00
007C00
007C00
00F800
00F800
00F800
00F800
01F000
01F000
01F000
01E000
03E000
03E000
03E000
07C000
07C000
07C000
078000
0F8000
0F8000
0F8000
1F8000
3FC000
FFF000
ENDCHAR
STARTCHAR 01D0
ENCODING 464
SWIDTH 280 0
DWIDTH 14 0
BBX 18 33 2 0
BITMAP
3000C0
180380
0C0700
0E0E00
073C00
07F800
03F000
03E000
01C000
000000
000000
000000
0F8000
7F8000
078000
070000
0F0000
0F0000
0F0000
1E0000
1E0000
1E0000
1C0000
3C0000
3C0000
3C0000
780000
780000
F88000
F10000
F20000
FC0000
F80000
ENDCHAR
STARTCHAR 01D1
ENCODING 465
SWIDTH 660 0
DWIDTH 33 0
BBX 32 44 2 -1
BITMAP
0001801C
0000C038
0000E070
000071E0
00003BC0
00003F80
00001F00
00001E00
00000000
00000000
0000FFC0
0007C1E0
000E00F8
003C0078
0078003C
00F0003E
01E0001E
03C0001F
07C0001F
0F80001F
0F80001F
1F00001F
3F00001F
3E00003F
7E00003F
7E00003F
7C00003E
7C00007E
FC00007E
FC00007C
F80000FC
F80000F8
F80000F8
F80001F0
F80003E0
F80003E0
780007C0
7C000F80
3C000F00
3C003E00
1E007C00
0F00F000
07FFC000
01FE0000
ENDCHAR
STARTCHAR 01D2
ENCODING 466
SWIDTH 480 0
DWIDTH 24 0
BBX 25 33 1 0
BITMAP
00300180
00380300
001C0E00
000E1C00
000F3800
0007F000
0007E000
0003C000
00038000
00000000
00000000
00000000
003FE000
00E07000
01C07800
07803C00
0F003C00
1F003C00
1E003C00
3C003C00
7C003C00
7C007C00
78007800
F8007800
F800F800
F000F000
F001E000
F001E000
F003C000
F0078000
78060000
381C0000
1FF00000
ENDCHAR
STARTCHAR 01D3
ENCODING 467
SWIDTH 700 0
DWIDTH 35 0
BBX 33 44 6 -1
BITMAP
0006006000
000701C000
0003838000
0003C70000
0001FE0000
0001FC0000
0000F80000
0000F00000
0000000000
0000000000
7FFE01FF80
0FF8007E00
07E0003C00
07C0003800
07C0003800
0FC0003800
0F80003000
0F80003000
0F80007000
1F80006000
1F00006000
1F0000E000
3F0000C000
3E0000C000
3E0000C000
3E0001C000
7E00018000
7C00018000
7C00038000
7C00030000
7C00030000
F800030000
F800060000
F800060000
F800060000
F8000C0000
F8000C0000
F8001C0000
7800380000
7C00700000
3E00E00000
1F83C00000
0FFF800000
01FC000000
ENDCHAR
STARTCHAR 01D4
ENCODING 468
SWIDTH 480 0
DWIDTH 24 0
BBX 23 33 2 0
BITMAP
00C006
00E00C
007038
007870
0039E0
003FC0
001F80
000F00
000E00
000000
000000
000000
0F0078
7F0070
1E00F0
1E00F0
1E01F0
1E01E0
3C01E0
3C03E0
3C03E0
3C07C0
7807C0
780BC0
781F80
781780
702780
F06788
F0CF08
F18F10
F30F20
FE0FC0
FC0F80
ENDCHAR
STARTCHAR 01D5
ENCODING 469
SWIDTH 700 0
DWIDTH 35 0
BBX 33 46 6 -1
BITMAP
0007FFF000
0007FFF000
0000000000
0000000000
0000000000
0002008000
000F03C000
000F83E000
000F83E000
000F03C000
0000000000
0000000000
7FFE01FF80
0FF8007E00
07E0003C00
07C0003800
07C0003800
0FC0003800
0F80003000
0F80003000
0F80007000
1F80006000
1F00006000
1F0000E000
3F0000C000
3E0000C000
3E0000C000
3E0001C000
7E00018000
7C00018000
7C00038000
7C00030000
7C00030000
F800030000
F800060000
F800060000
F800060000
F8000C0000
F8000C0000
F8001C0000
7800380000
7C00700000
3E00E00000
1F83C00000
0FFF800000
01FC000000
ENDCHAR
STARTCHAR 01D6
ENCODING 470
SWIDTH 480 0
DWIDTH 24 0
BBX 24 36 2 0
BITMAP
007FFF
007FFF
000000
000000
000000
000000
002008
00F03C
00F83E
00F83E
00F03C
000000
000000
000000
000000
0F0078
7F0070
1E00F0
1E00F0
1E01F0
1E01E0
3C01E0
3C03E0
3C03E0
3C07C0
7807C0
780BC0
781F80
781780
702780
F06788
F0CF08
F18F10
F30F20
FE0FC0
FC0F80
ENDCHAR
STARTCHAR 01D7
ENCODING 471
SWIDTH 700 0
DWIDTH 35 0
BBX 33 46 4 -1
BITMAP
000000E000
000001E000
000003E000
000007C000
00000F8000
00001E0000
0000380000
0000700000
0000C00000
000E038000
001F07C000
001F07C000
001F07C000
000E038000
0000000000
0000000000
0000000000
7FFE01FF80
0FF0003E00
07E0003C00
07E0003800
07C0003800
0FC0003000
0FC0003000
0F80007000
1F80006000
1F00006000
1F0000E000
3F0000C000
3F0000C000
3E0001C000
7E00018000
7E00018000
7C00038000
7C00030000
FC00030000
F800070000
F800060000
F8000E0000
F8000C0000
F8001C0000
7800380000
7C00700000
3E00E00000
0FFF800000
03FE000000
ENDCHAR
STARTCHAR 01D8
ENCODING 472
SWIDTH 480 0
DWIDTH 24 0
BBX 23 40 2 0
BITMAP
00000E
00001E
00003E
000078
0000F0
0001C0
000380
000600
000800
000000
002008
00F03C
00F83E
00F83E
00F03C
000000
000000
000000
000000
0F0078
7F0070
1E00F0
1E00F0
1E01F0
1E01E0
3C01E0
3C03E0
3C03E0
3C07C0
7807C0
780BC0
781F80
781780
702780
F06788
F0CF08
F18F10
F30F20
FE0FC0
FC0F80
ENDCHAR
STARTCHAR 01D9
ENCODING 473
SWIDTH 700 0
DWIDTH 35 0
BBX 33 46 4 -1
BITMAP
0006003000
000700E000
000381C000
0003C78000
0001EF0000
0000FE0000
0000FC0000
0000780000
0000000000
000E038000
001F07C000
001F07C000
001F07C000
000E038000
0000000000
0000000000
0000000000
7FFE01FF80
0FF0003E00
07E0003C00
07E0003800
07C0003800
0FC0003000
0FC0003000
0F80007000
1F80006000
1F00006000
1F0000E000
3F0000C000
3F0000C000
3E0001C000
7E00018000
7E00018000
7C00038000
7C00030000
FC00030000
F800070000
F800060000
F8000E0000
F8000C0000
F8001C0000
7800380000
7C00700000
3E00E00000
0FFF800000
03FE000000
ENDCHAR
STARTCHAR 01DA
ENCODING 474
SWIDTH 480 0
DWIDTH 24 0
BBX 24 41 2 0
BITMAP
003003
003006
00180C
001C38
000E70
000FF0
0007E0
0007C0
000000
000000
000000
002008
00F03C
00F83E
00F83E
00F03C
000000
000000
000000
000000
0F0078
7F0070
1E00F0
1E00F0
1E01F0
1E01E0
3C01E0
3C03E0
3C03E0
3C07C0
7807C0
780BC0
781F80
781780
702780
F06788
F0CF08
F18F10
F30F20
FE0FC0
FC0F80
ENDCHAR
STARTCHAR 01DB
ENCODING 475
SWIDTH 700 0
DWIDTH 35 0
BBX 33 46 4 -1
BITMAP
0007000000
0007800000
000F800000
0007C00000
0003C00000
0001E00000
0000E00000
0000700000
0000180000
000E038000
001F07C000
001F07C000
001F07C000
000E038000
0000000000
0000000000
0000000000
7FFE01FF80
0FF0007E00
07E0003C00
07E0003800
07C0003800
0FC0003000
0FC0007000
0F80007000
1F80006000
1F0000E000
1F0000E000
3F0000C000
3F0000C000
3E00018000
7E00018000
7E00018000
7C00030000
7C00030000
FC00030000
F800060000
F800060000
F8000E0000
F8000C0000
F8001C0000
7800380000
7C00700000
3E01E00000
0FFF800000
03FE000000
ENDCHAR
STARTCHAR 01DC
ENCODING 476
SWIDTH 480 0
DWIDTH 24 0
BBX 23 39 2 0
BITMAP
007800
007800
007C00
003C00
001E00
000F00
000700
000380
000000
002008
00F03C
00F83E
00F83E
00F03C
000000
000000
000000
000000
0F0078
7F0070
1E00F0
1E00F0
1E01F0
1E01E0
3C01E0
3C03E0
3C03E0
3C07C0
7807C0
780BC0
781F80
781780
702780
F06788
F0CF08
F18F10
F30F20
FE0FC0
FC0F80
ENDCHAR
STARTCHAR 01DD
ENCODING 477
SWIDTH 400 0
DWIDTH 20 0
BBX 19 22 1 0
BITMAP
003F00
01FF80
070FC0
0C03E0
1801E0
2001E0
0001E0
0001E0
0001E0
0001E0
003FE0
01E3C0
0787C0
1E0780
3C0780
780F00
701E00
F01C00
E03800
F0F000
71C000
3E0000
ENDCHAR
STARTCHAR 01DE
ENCODING 478
SWIDTH 660 0
DWIDTH 33 0
BBX 31 46 0 0
BITMAP
0000FFFE
0001FFFC
0001FFFC
00000000
00000000
00000000
0000E038
0001F07C
0001F07C
0001F07C
0000E038
00000000
00000000
00000C00
00000C00
00001E00
00001E00
00003E00
00003E00
00007E00
0000DE00
0000DF00
00019F00
00019F00
00031F00
00061F00
00060F00
000C0F80
000C0F80
00180F80
00380F80
00300F80
00600780
007FFFC0
00FFFFC0
01C007C0
018007C0
038007C0
030003C0
070003E0
0E0003E0
0E0003E0
1C0003E0
3C0003F0
7E0007F0
FF803FFE
ENDCHAR
STARTCHAR 01DF
ENCODING 479
SWIDTH 500 0
DWIDTH 25 0
BBX 25 36 1 -1
BITMAP
003FFF80
003FFF80
00000000
00000000
00000000
00000000
00100400
003C0F00
007C1F00
007C1F00
003C0F00
00000000
00000000
00000000
00000000
003F9C00
00F05C00
01C07C00
03807800
07807800
0F007800
1E007000
1E007000
3C00F000
3C00F000
7800E000
7801E000
F801E000
F003E000
F007C000
F005C000
F00BC600
F813CC00
FC63D800
7FC3F000
3F83E000
ENDCHAR
STARTCHAR 01E0
ENCODING 480
SWIDTH 660 0
DWIDTH 33 0
BBX 31 46 0 0
BITMAP
0000FFFE
0000FFFE
0000FFFE
00000000
00000000
00000000
00000700
00000F80
00000F80
00000F80
00000700
00000000
00000000
00000C00
00000C00
00001E00
00001E00
00003E00
00003E00
00007E00
0000DE00
0000DF00
00019F00
00019F00
00031F00
00061F00
00060F00
000C0F80
000C0F80
00180F80
00380F80
00300F80
00600780
007FFFC0
00FFFFC0
01C007C0
018007C0
038007C0
030003C0
070003E0
0E0003E0
0E0003E0
1C0003E0
3C0003F0
7E0007F0
FF803FFE
ENDCHAR
STARTCHAR 01E1
ENCODING 481
SWIDTH 500 0
DWIDTH 25 0
BBX 25 36 1 -1
BITMAP
007FFF80
007FFF00
00000000
00000000
00000000
00000000
00010000
0003C000
0007C000
0007C000
0003C000
00000000
00000000
00000000
00000000
003F9C00
00F05C00
01C07C00
03807800
07807800
0F007800
1E007000
1E007000
3C00F000
3C00F000
7800E000
7801E000
F801E000
F003E000
F007C000
F005C000
F00BC600
F813CC00
FC63D800
7FC3F000
3F83E000
ENDCHAR
STARTCHAR 01E2
ENCODING 482
SWIDTH 880 0
DWIDTH 44 0
BBX 47 40 0 0
BITMAP
000000FFFE00
000000FFFE00
000000000000
000000000000
000000000000
000000000000
000000000000
000007FFFFFE
000000FFFFFE
000000FF000E
000000DF0006
000001DE0004
000003BE0004
0000073E0004
0000063E0000
00000C3C0000
00001C7C0000
0000387C0100
000070780300
000060F80600
0000C0F80E00
0001C0FFFE00
000380FFFE00
000301F01C00
000601F00C00
000C01F00C00
001FFFE00C00
003FFFE00800
003003E00000
006003C00000
00E007C00000
01C007C00010
038007C00030
03000F800060
07000F8000E0
0E000F8001C0
1E000F8003C0
3C001F800F80
7E003FFFFF80
FFC0FFFFFF80
ENDCHAR
STARTCHAR 01E3
ENCODING 483
SWIDTH 640 0
DWIDTH 32 0
BBX 30 30 1 0
BITMAP
0007FFF0
0007FFF0
0007FFF0
00000000
00000000
00000000
00000000
00000000
00000000
003F79F8
00E17E1C
01C0FC1C
0380F81C
0700F01C
0F01F03C
0E01E078
1E01E0E0
3C01C3C0
3C03CE00
7803F000
78078000
78078000
F80F8000
F00F8000
F0178000
F0278030
F067C060
F8C3C1C0
7F83FF00
7E01FC00
ENDCHAR
STARTCHAR 01E4
ENCODING 484
SWIDTH 720 0
DWIDTH 36 0
BBX 33 34 2 0
BITMAP
0003FFC180
000FC0FF80
003E003F00
0078001F00
00F0000F00
01E0000700
03C0000700
0780000200
0F80000200
1F00000200
1F00000000
3E00000000
3E00000000
7E00000000
7C00000000
7C00000000
FC00000000
F8000FFF80
F80001FE00
F80000FC00
F80000F800
F80000F800
F80000F000
F8001FFF80
F8003FFF00
7C0001F000
7C0003E000
3C0003E000
3E0003E000
1F0007E000
0F8007C000
03E01F8000
01FFFE0000
003FF00000
ENDCHAR
STARTCHAR 01E5
ENCODING 485
SWIDTH 500 0
DWIDTH 25 0
BBX 25 31 -1 -9
BITMAP
001FF000
00783F80
00F01F80
01E01E00
01E01E00
03C01E00
03C01E00
03C03E00
03C03C00
03C07C00
03C07800
01C0F000
00E1C000
003F0000
00C00000
01C00000
03C00000
03F00000
01FE0000
01FF8000
061FE000
0C03E000
1801F000
30007000
FFFFFC00
FFFFFC00
30007000
3800E000
1C01C000
0F078000
03FC0000
ENDCHAR
STARTCHAR 01E6
ENCODING 486
SWIDTH 700 0
DWIDTH 35 0
BBX 33 44 2 -1
BITMAP
0000C00C00
0000E01800
0000707000
000078E000
00003FC000
00001F8000
00001F0000
00000E0000
0000000000
0000000000
0003FFE080
000FC0FF80
003E003F80
0078001F80
00F0000F00
01E0000700
03C0000700
07C0000300
0F80000200
1F00000200
1F00000000
3E00000000
3E00000000
7E00000000
7C00000000
7C00000000
FC00000000
FC000FFF80
F80001FC00
F80000F800
F80000F800
F80000F000
F80000F000
F80000F000
F80001F000
7C0001E000
7C0001E000
3C0003E000
3E0003E000
1F0003C000
0F8007C000
07E01F8000
01FFFC0000
003FE00000
ENDCHAR
STARTCHAR 01E7
ENCODING 487
SWIDTH 440 0
DWIDTH 22 0
BBX 25 43 -1 -10
BITMAP
00600180
00300700
00380E00
001C3C00
000E7800
000FF000
0007E000
0007C000
00038000
00000000
00000000
00000000
007FE000
00F0FE00
03C07E00
07C07800
07807800
0F007800
0F007800
0F00F800
0F00F000
0F00F000
0F01E000
0703C000
03878000
00FE0000
03000000
07000000
0F000000
0FE00000
0FFC0000
07FF0000
087FC000
300FC000
7003E000
E001E000
E000E000
E000E000
E000C000
E001C000
70038000
3C0E0000
0FF00000
ENDCHAR
STARTCHAR 01E8
ENCODING 488
SWIDTH 640 0
DWIDTH 32 0
BBX 36 43 0 0
BITMAP
0000600600
0000701C00
0000383800
00003CF000
00001FE000
00001FC000
00000F8000
00000F0000
0000000000
0000000000
01FFF0FFF0
007FC01FC0
001F801F00
001F001E00
001E003C00
003E007000
003E00E000
003E01C000
003C070000
007C0E0000
007C3C0000
007C700000
0078E00000
00FBC00000
00FF800000
00FFC00000
01F7C00000
01F3E00000
01F3E00000
01E1F00000
03E1F80000
03E0F80000
03E07C0000
07C07C0000
07C03E0000
07C03E0000
07801F0000
0F801F8000
0F800F8000
0F800FC000
1F800FC000
3FC00FF000
FFF07FFC00
ENDCHAR
STARTCHAR 01E9
ENCODING 489
SWIDTH 460 0
DWIDTH 23 0
BBX 26 43 1 0
BITMAP
001800C0
000C0180
000E0300
00070E00
00039C00
0003FC00
0001F800
0001F000
00000000
00F00000
07F00000
01F00000
00F00000
00E00000
01E00000
01E00000
01E00000
01C00000
03C00000
03C00000
03C00000
03800000
0787FC00
0780F000
0700C000
07018000
0F030000
0F0C0000
0E180000
1E300000
1E600000
1FE00000
1FF00000
3EF00000
3C780000
3C780000
383C0000
783C0000
781E1000
781E1000
700F2000
F00FE000
F007C000
ENDCHAR
STARTCHAR 01EA
ENCODING 490
SWIDTH 680 0
DWIDTH 34 0
BBX 31 43 3 -9
BITMAP
0001FF80
000783C0
001E01F0
003800F0
00F00078
01F0007C
03E0003C
07C0003E
07C0003E
0F80003E
1F00003E
1F00003E
3F00003E
3E00007E
7E00007E
7E00007E
7C00007C
FC0000FC
FC0000FC
FC0000F8
F80001F8
F80001F0
F80001F0
F80003E0
F80007C0
F80007C0
78000F80
78001F00
7C001E00
3C003C00
3E00F800
1F01E000
0FFF8000
03FC0000
00C00000
01800000
03800000
03800000
03808000
03FF8000
01FF0000
01FE0000
00780000
ENDCHAR
STARTCHAR 01EB
ENCODING 491
SWIDTH 480 0
DWIDTH 24 0
BBX 22 31 1 -9
BITMAP
003FE0
00E070
01C078
07803C
0F003C
1F003C
1E003C
3C003C
7C003C
7C007C
780078
F80078
F800F0
F000F0
F001E0
F001C0
F003C0
F00780
780E00
381C00
1FF000
060000
0E0000
0C0000
1C0000
1C0000
1E0400
1FFC00
0FF800
0FF000
03C000
ENDCHAR
STARTCHAR 01EC
ENCODING 492
SWIDTH 680 0
DWIDTH 34 0
BBX 31 50 3 -10
BITMAP
0003FFF8
0003FFF8
00000000
00000000
00000000
00000000
00000000
0001FF80
000783C0
001E01F0
003800F0
00F00078
01F0007C
03E0003C
07C0003E
07C0003E
0F80003E
1F00003E
1F00003E
3F00003E
3E00007E
7E00007E
7E00007E
7C00007C
FC0000FC
FC0000FC
FC0000F8
F80001F8
F80001F0
F80001F0
F80003E0
F80007C0
F80007C0
78000F80
78001F00
7C001E00
3C003C00
3E00F800
1F01E000
0FFF8000
03FC0000
00C00000
01800000
03800000
03800000
03808000
03FF8000
01FF0000
01FE0000
00780000
ENDCHAR
STARTCHAR 01ED
ENCODING 493
SWIDTH 480 0
DWIDTH 24 0
BBX 24 40 1 -10
BITMAP
007FFF
007FFF
00FFFE
000000
000000
000000
000000
000000
000000
003FE0
00E070
01C078
07803C
0F003C
1F003C
1E003C
3C003C
7C003C
7C007C
780078
F80078
F800F0
F000F0
F001E0
F001C0
F003C0
F00780
780E00
381C00
1FF000
060000
0E0000
0C0000
1C0000
1C0000
1E0400
1FFC00
0FF800
0FF000
03C000
ENDCHAR
STARTCHAR 01EE
ENCODING 494
SWIDTH 520 0
DWIDTH 26 0
BBX 30 45 -1 0
BITMAP
0001000C
00018018
0000C070
0000E0E0
000071C0
00007F80
00003F00
00003E00
00001C00
00000000
00000000
00000000
001FFFFC
003FFFFC
003E00F8
003801F0
007001E0
006003E0
00C007C0
00800F80
00800F00
01001E00
00003E00
00007C00
00007800
0000F000
0001FE00
0003FF00
0003FF00
00001F80
00001F80
00000F80
00000F80
00000F80
00000F80
00000F80
00001F00
00001F00
80001E00
C0003E00
E0007C00
7000F800
3C03F000
0FFFC000
03FF8000
ENDCHAR
STARTCHAR 01EF
ENCODING 495
SWIDTH 440 0
DWIDTH 22 0
BBX 25 43 -3 -10
BITMAP
00300180
00380300
001C0E00
000E1C00
000F3800
0007F000
0007E000
0003C000
00038000
00000000
00000000
00000000
00FFF800
01FFF000
01FFF000
01802000
03004000
02008000
00010000
00030000
00020000
00040000
00080000
001F0000
003F8000
001FC000
0007E000
0003E000
0001F000
0001F000
0000F000
0000F000
0000F000
0000F000
0000E000
0000E000
0001C000
0001C000
70038000
FC030000
FF0E0000
7FF80000
3FC00000
ENDCHAR
STARTCHAR 01F0
ENCODING 496
SWIDTH 280 0
DWIDTH 14 0
BBX 25 44 -6 -10
BITMAP
00380180
00180700
000C0E00
000E3C00
00077800
0007F000
0003E000
0003C000
00000000
00000000
00000000
00000000
00000000
0007C000
003FC000
0007C000
00038000
00078000
00078000
00078000
00070000
000F0000
000F0000
000F0000
000E0000
001E0000
001E0000
001E0000
001C0000
003C0000
003C0000
003C0000
00380000
00780000
00780000
00700000
00700000
00F00000
00E00000
40E00000
E1C00000
E1800000
E3800000
7E000000
ENDCHAR
STARTCHAR 01F1
ENCODING 497
SWIDTH 1260 0
DWIDTH 63 0
BBX 66 33 0 0
BITMAP
01FFFF80007FFFFFC0
003FFFF0007FFFFF80
001F00FC0078001F00
001F003E00E0003F00
001F001F00C0007E00
003E000F808000FC00
003E0007818001F800
003E0007C10001F000
003E0007C00003F000
007C0003E00007E000
007C0003E0000FC000
007C0003E0001F8000
00F80003E0001F0000
00F80003E0003F0000
00F80003E0007E0000
00F80003E000FC0000
01F00003E000F80000
01F00007E001F00000
01F00007C003F00000
01F00007C007E00000
03E00007C00FC00000
03E0000F800F800000
03E0000F801F000000
07C0001F003F000000
07C0003F007E000200
07C0003E00FC000600
07C0007C00F8000400
0F8000F801F0000C00
0F8003F003F0001C00
0F8007C007E0003800
1F803F000FC000F800
3FFFFC000FFFFFF800
FFFFC0001FFFFFF800
ENDCHAR
STARTCHAR 01F2
ENCODING 498
SWIDTH 1100 0
DWIDTH 55 0
BBX 54 37 0 -4
BITMAP
01FFFF80000000
003FFFF0000000
001F00FC000000
001F003E000000
001F001F000000
003E000F800000
003E0007800000
003E0007C00000
003E0007C00000
007C0003E00000
007C0003E00000
007C0003E00000
00F80003E0FFFC
00F80003E1FFF8
00F80003E1FFF0
00F80003E18020
01F00003E30040
01F00007E200C0
01F00007C00180
01F00007C00300
03E00007C00600
03E0000F800400
03E0000F800800
07C0001F001800
07C0003F003000
07C0003E006000
07C0007C00C000
0F8000F8018000
0F8003F0010000
0F8007C0030000
1F803F0007C000
3FFFFC000FF000
FFFFC0001FF838
0000000000F838
00000000003C38
00000000000E30
000000000003C0
ENDCHAR
STARTCHAR 01F3
ENCODING 499
SWIDTH 860 0
DWIDTH 43 0
BBX 41 38 1 -4
BITMAP
00003F800000
00003F800000
000007000000
000007000000
00000F000000
00000F000000
00000E000000
00000E000000
00001E000000
00001E000000
00001C000000
00001C000000
00003C000000
003FBC1FFF80
00F0B81FFF00
01C0F83FFF00
0380F8300600
0780F0200C00
0F00F0201800
1E00F0003000
1E00F0002000
3C00E0004000
3C01E000C000
7801E0018000
7801C0030000
F803C0060000
F803C0040000
F007C0080000
F00B80180000
F00F84300000
F81788700000
F86790FC0000
7FC7E1FE0000
3F87C1FF0300
0000020F8700
00000003C700
00000001E600
000000007C00
ENDCHAR
STARTCHAR 01F4
ENCODING 500
SWIDTH 700 0
DWIDTH 35 0
BBX 33 45 2 -1
BITMAP
0000007000
000000F800
000001F000
000003E000
0000078000
00000F0000
00001C0000
0000380000
0000000000
0000000000
0000000000
0003FFE080
000FC0FF80
003E003F80
0078001F80
00F0000F00
01E0000700
03C0000700
07C0000300
0F80000200
1F00000200
1F00000000
3E00000000
3E00000000
7E00000000
7C00000000
7C00000000
FC00000000
FC000FFF80
F80001FC00
F80000F800
F80000F800
F80000F000
F80000F000
F80000F000
F80001F000
7C0001E000
7C0001E000
3C0003E000
3E0003E000
1F0003C000
0F8007C000
07E01F8000
01FFFC0000
003FE00000
ENDCHAR
STARTCHAR 01F5
ENCODING 501
SWIDTH 440 0
DWIDTH 22 0
BBX 23 44 -1 -10
BITMAP
000008
00003C
00007C
0000F8
0001F0
0003C0
000780
000E00
001800
000000
000000
000000
000000
007FE0
00F0FE
03C07E
07C078
078078
0F0078
0F0078
0F00F8
0F00F0
0F00F0
0F01E0
0703C0
038780
00FE00
030000
070000
0F0000
0FE000
0FFC00
07FF00
087FC0
300FC0
7003E0
E001E0
E000E0
E000E0
E000C0
E001C0
700380
3C0E00
0FF000
ENDCHAR
STARTCHAR 01F6
ENCODING 502
SWIDTH 940 0
DWIDTH 47 0
BBX 48 33 0 0
BITMAP
03FFF03FFC00
007FC00FF000
003F0007E000
003E0007E000
003E0007C000
003E0007C000
003E0007C000
003C0007C000
007C000F8000
007C000F8000
0078000F8003
00F8000F001E
00F8001F00FE
00F8001F017E
00F0001F003E
01FFFFFE003C
01FFFFFE003C
01F0003E003C
03E0003E003C
03E0007C007C
03E0007C0078
03C0007C0078
07C000F80078
07C000F80078
07C000F800F0
078000F800F0
0F8000F800F0
0F8000F801E0
0F8000F801E0
1F0000F803C0
1F00007C0F80
3F80003FFF00
FFF0001FFC00
ENDCHAR
STARTCHAR 01F7
ENCODING 503
SWIDTH 540 0
DWIDTH 27 0
BBX 30 34 0 0
BITMAP
00030000
000F1FF0
00FE7FF8
03FFC1FC
007F00FC
007E007C
007C007C
007C007C
007C007C
007C00F8
007C00F8
00F800F0
00F801F0
00F801E0
00F803C0
01F80780
01F00780
01F00F00
01F01E00
01F03C00
03E07800
03E0E000
03E1C000
03E38000
03E70000
07CC0000
07F80000
07E00000
07C00000
0FC00000
0F800000
0FC00000
3FE00000
FFF80000
ENDCHAR
STARTCHAR 01F8
ENCODING 504
SWIDTH 680 0
DWIDTH 34 0
BBX 37 45 0 -1
BITMAP
0000700000
0000F00000
0000F80000
00007C0000
00003C0000
00001E0000
00000E0000
0000070000
0000000000
0000000000
0000000000
01FE001FF8
007E0007F0
003F0003C0
001F0001C0
001F8003C0
001F800380
003F800380
0037C00380
0037C00700
0063E00700
0063E00700
0063E00600
0041F00E00
00C1F00E00
00C0F80E00
00C0F80C00
0180781C00
01807C1C00
01807C1800
01803E3800
03003E3800
03001E3800
03001F3000
02000F7000
06000FF000
06000FE000
060007E000
0C0007E000
0C0003E000
1C0003C000
1C0001C000
3E0001C000
FFC0018000
0000008000
ENDCHAR
STARTCHAR 01F9
ENCODING 505
SWIDTH 500 0
DWIDTH 25 0
BBX 22 33 1 1
BITMAP
003C00
003E00
003E00
001F00
000F00
000780
000180
0000C0
000000
000000
000000
004040
0783F0
3F87F8
0F8C78
071878
0F3078
0F2070
0F40F0
0E80F0
1E80F0
1F00E0
1E01E0
3E01E0
3C01C0
3C03C0
7803C0
7803C0
780384
700788
F00790
F007E0
E007C0
ENDCHAR
STARTCHAR 01FA
ENCODING 506
SWIDTH 620 0
DWIDTH 31 0
BBX 34 45 -1 0
BITMAP
00000001C0
00000003C0
00000007C0
0000000F80
0000001E00
0000003C00
0000007000
000000C000
0000018000
0000008000
000007F000
00000C3000
0000181800
0000301800
0000301800
0000303000
0000306000
00001FC000
00000F8000
0000000000
00000E0000
00000E0000
00001E0000
00003E0000
00007E0000
00007F0000
0000DF0000
00019F0000
00031F0000
00060F0000
00060F8000
000C0F8000
00180F8000
0030078000
002007C000
007FFFC000
00C007C000
018007C000
038003C000
030003E000
060003E000
0E0003E000
1E0001E000
3E0003F000
FF803FFE00
ENDCHAR
STARTCHAR 01FB
ENCODING 507
SWIDTH 500 0
DWIDTH 25 0
BBX 24 45 1 -1
BITMAP
000007
00000F
00001F
00003E
000078
0000E0
0001C0
000300
000000
000000
000000
0003E0
000730
000C18
001818
001818
001810
001830
001CE0
000FC0
000000
000000
000000
000000
003F9C
00F05C
01C07C
038078
078078
0F0078
1E0070
1E0070
3C00F0
3C00F0
7800E0
7801E0
F801E0
F003E0
F007C0
F005C0
F00BC6
F813CC
FC63D8
7FC3F0
3F83E0
ENDCHAR
STARTCHAR 01FC
ENCODING 508
SWIDTH 880 0
DWIDTH 44 0
BBX 47 43 0 0
BITMAP
000000001C00
000000003C00
000000007C00
00000000F000
00000001E000
000000038000
000000070000
0000000C0000
000000000000
000000000000
000007FFFFFE
000000FFFFFE
000000FF000E
000000DF0006
000001DE0004
000003BE0004
0000073E0004
0000063E0000
00000C3C0000
00001C7C0000
0000387C0100
000070780300
000060F80600
0000C0F80E00
0001C0FFFE00
000380FFFE00
000301F01C00
000601F00C00
000C01F00C00
001FFFE00C00
003FFFE00800
003003E00000
006003C00000
00E007C00000
01C007C00010
038007C00030
03000F800060
07000F8000E0
0E000F8001C0
1E000F8003C0
3C001F800F80
7E003FFFFF80
FFC0FFFFFF80
ENDCHAR
STARTCHAR 01FD
ENCODING 509
SWIDTH 640 0
DWIDTH 32 0
BBX 30 33 1 0
BITMAP
00000030
00000078
000000F8
000001F0
000003C0
00000780
00000E00
00001800
00003000
00000000
00000000
00000000
003F79F8
00E17E1C
01C0FC1C
0380F81C
0700F01C
0F01F03C
0E01E078
1E01E0E0
3C01C3C0
3C03CE00
7803F000
78078000
78078000
F80F8000
F00F8000
F0178000
F0278030
F067C060
F8C3C1C0
7F83FF00
7E01FC00
ENDCHAR
STARTCHAR 01FE
ENCODING 510
SWIDTH 660 0
DWIDTH 33 0
BBX 32 50 2 -5
BITMAP
00000038
00000078
000000F8
000001F0
000003C0
00000700
00000E00
00001800
00000000
0000000C
00000018
00000018
0000FFF0
0007C1F0
000F00F8
003C00FC
007801FC
00F003BE
01E0031E
03C0061F
07C00E1F
0F800C1F
1F80181F
1F00381F
3F00301F
3E00601F
7E00E03F
7E00C03F
7C01803E
FC03807E
FC03007E
FC06007C
F80E00FC
F80C00F8
F81800F8
F83801F0
F83001F0
F86003E0
78E007C0
7CC00780
7D800F00
3F801E00
1F007800
0F00F000
0FFFC000
0CFE0000
18000000
38000000
30000000
60000000
ENDCHAR
STARTCHAR 01FF
ENCODING 511
SWIDTH 480 0
DWIDTH 24 0
BBX 23 45 1 -6
BITMAP
00000E
00001E
00003E
000078
0000E0
0001C0
000700
000E00
000000
000000
000000
000030
000020
000060
000040
0000C0
000080
003FE0
00E178
01C378
07823C
0F063C
0F043C
1E0C3C
3C083C
3C183C
7C107C
783078
F82078
F860F8
F040F0
F0C1E0
F081E0
F183C0
710780
7B0E00
3E1C00
1FF000
040000
0C0000
080000
180000
100000
300000
200000
ENDCHAR
STARTCHAR 0200
ENCODING 512
SWIDTH 660 0
DWIDTH 33 0
BBX 31 43 0 0
BITMAP
00060600
000F0F00
000F0F80
000F8780
0007C780
0003C380
0001E1C0
000060C0
000030C0
00000000
00000C00
00000C00
00001E00
00001E00
00003E00
00003E00
00007E00
0000DE00
0000DF00
00019F00
00019F00
00031F00
00061F00
00060F00
000C0F80
000C0F80
00180F80
00380F80
00300F80
00600780
007FFFC0
00FFFFC0
01C007C0
018007C0
038007C0
030003C0
070003E0
0E0003E0
0E0003E0
1C0003E0
3C0003F0
7E0007F0
FF803FFE
ENDCHAR
STARTCHAR 0201
ENCODING 513
SWIDTH 500 0
DWIDTH 25 0
BBX 23 33 1 0
BITMAP
01C1E0
03E1E0
01F1E0
00F0F0
007870
003870
001C38
000C18
000000
000000
000000
000000
003F9C
00F05C
01C07C
038078
078078
0F0078
1E0070
1E0070
3C00F0
3C00F0
7800E0
7801E0
F801E0
F003E0
F007C0
F005C0
F00BC6
F813CC
FC63D8
7FC3F0
3F83E0
ENDCHAR
STARTCHAR 0202
ENCODING 514
SWIDTH 660 0
DWIDTH 33 0
BBX 31 43 0 0
BITMAP
00000780
00003FE0
00007FE0
0000F0F0
0001C070
00018030
00030030
00000000
00000000
00000000
00000C00
00000C00
00001E00
00001E00
00003E00
00003E00
00007E00
0000DE00
0000DF00
00019F00
00019F00
00031F00
00061F00
00060F00
000C0F80
000C0F80
00180F80
00380F80
00300F80
00600780
007FFFC0
00FFFFC0
01C007C0
018007C0
038007C0
030003C0
070003E0
0E0003E0
0E0003E0
1C0003E0
3C0003F0
7E0007F0
FF803FFE
ENDCHAR
STARTCHAR 0203
ENCODING 515
SWIDTH 500 0
DWIDTH 25 0
BBX 23 32 1 -1
BITMAP
0007E0
001FF0
003FF8
007038
00E018
00C018
008018
000000
000000
000000
000000
003F9C
00F05C
01C07C
038078
078078
0F0078
1E0070
1E0070
3C00F0
3C00F0
7800E0
7801E0
F801E0
F003E0
F007C0
F005C0
F00BC6
F813CC
FC63D8
7FC3F0
3F83E0
ENDCHAR
STARTCHAR 0204
ENCODING 516
SWIDTH 580 0
DWIDTH 29 0
BBX 31 43 0 0
BITMAP
00060700
000F0F00
000F8F80
000F8780
0007C380
0003C3C0
0000E1C0
000060C0
000030E0
00000000
01FFFFFE
003FFFFE
001F000E
001F0006
001F0004
003E0004
003E0004
003E0000
003C0000
007C0000
007C0080
007C0100
00F80300
00F80700
00FFFE00
00FFFE00
01F01E00
01F00C00
01F00C00
01E00C00
03E00800
03E00000
03E00000
07C00000
07C00000
07C00010
07800030
0F800070
0F8000E0
0F8001E0
1F8007E0
3FFFFFC0
FFFFFFC0
ENDCHAR
STARTCHAR 0205
ENCODING 517
SWIDTH 400 0
DWIDTH 20 0
BBX 20 33 1 1
BITMAP
0383C0
07C3C0
03E3C0
03E1E0
00F0E0
0070E0
003870
001830
000000
000000
000000
000000
001FC0
0070E0
01C0E0
0380E0
0780E0
0F01E0
1E03C0
3E0780
3C0F00
7C3C00
79F000
FF0000
F80000
F80000
F00000
F00000
F80180
F80300
7C0E00
3FF800
1FE000
ENDCHAR
STARTCHAR 0206
ENCODING 518
SWIDTH 580 0
DWIDTH 29 0
BBX 31 43 0 0
BITMAP
000007C0
00001FE0
00003FF0
00007070
0000C038
00018018
00018010
00000000
00000000
00000000
01FFFFFE
003FFFFE
001F000E
001F0006
001F0004
003E0004
003E0004
003E0000
003C0000
007C0000
007C0080
007C0100
00F80300
00F80700
00FFFE00
00FFFE00
01F01E00
01F00C00
01F00C00
01E00C00
03E00800
03E00000
03E00000
07C00000
07C00000
07C00010
07800030
0F800070
0F8000E0
0F8001E0
1F8007E0
3FFFFFC0
FFFFFFC0
ENDCHAR
STARTCHAR 0207
ENCODING 519
SWIDTH 400 0
DWIDTH 20 0
BBX 22 32 1 0
BITMAP
0007F0
001FF8
003FF8
00781C
00600C
00C00C
00C00C
000000
000000
000000
000000
001FC0
0070E0
01C0E0
0380E0
0780E0
0F01E0
1E03C0
3E0780
3C0F00
7C3C00
79F000
FF0000
F80000
F80000
F00000
F00000
F80180
F80300
7C0E00
3FF800
1FE000
ENDCHAR
STARTCHAR 0208
ENCODING 520
SWIDTH 320 0
DWIDTH 16 0
BBX 20 43 0 0
BITMAP
030300
078780
0787C0
07C3C0
03E3C0
01E1C0
00F0E0
003060
001860
000000
01FFF0
003FC0
001F00
001F00
001F00
003E00
003E00
003E00
003C00
007C00
007C00
007C00
00F800
00F800
00F800
00F800
01F000
01F000
01F000
01E000
03E000
03E000
03E000
07C000
07C000
07C000
078000
0F8000
0F8000
0F8000
1F8000
3FC000
FFF000
ENDCHAR
STARTCHAR 0209
ENCODING 521
SWIDTH 280 0
DWIDTH 14 0
BBX 15 34 0 0
BITMAP
2000
F078
F878
F878
7C38
3C3C
0E1C
070C
030E
0000
0000
0000
0000
03E0
1FE0
01E0
01C0
03C0
03C0
03C0
0780
0780
0780
0700
0F00
0F00
0F00
1E00
1E00
3E20
3C40
3C80
3F00
3E00
ENDCHAR
STARTCHAR 020A
ENCODING 522
SWIDTH 320 0
DWIDTH 16 0
BBX 21 43 0 0
BITMAP
0003C0
001FF0
003FF8
007878
00E018
00C018
018018
000000
000000
000000
01FFF0
003FC0
001F00
001F00
001F00
003E00
003E00
003E00
003C00
007C00
007C00
007C00
00F800
00F800
00F800
00F800
01F000
01F000
01F000
01E000
03E000
03E000
03E000
07C000
07C000
07C000
078000
0F8000
0F8000
0F8000
1F8000
3FC000
FFF000
ENDCHAR
STARTCHAR 020B
ENCODING 523
SWIDTH 280 0
DWIDTH 14 0
BBX 15 32 2 0
BITMAP
01F8
07FC
0FFE
1C0E
3806
3006
2002
0000
0000
0000
0000
0F80
7F80
0780
0700
0F00
0F00
0F00
1E00
1E00
1E00
1C00
3C00
3C00
3C00
7800
7800
F880
F100
F200
FC00
F800
ENDCHAR
STARTCHAR 020C
ENCODING 524
SWIDTH 660 0
DWIDTH 33 0
BBX 32 44 2 -1
BITMAP
000C0E00
001E0F00
001F0F00
001F0F00
000F8700
00038780
0001C380
0000E180
000060C0
00000000
0000FFC0
0007C1E0
000E00F8
003C0078
0078003C
00F0003E
01E0001E
03C0001F
07C0001F
0F80001F
0F80001F
1F00001F
3F00001F
3E00003F
7E00003F
7E00003F
7C00003E
7C00007E
FC00007E
FC00007C
F80000FC
F80000F8
F80000F8
F80001F0
F80003E0
F80003E0
780007C0
7C000F80
3C000F00
3C003E00
1E007C00
0F00F000
07FFC000
01FE0000
ENDCHAR
STARTCHAR 020D
ENCODING 525
SWIDTH 480 0
DWIDTH 24 0
BBX 22 33 1 1
BITMAP
01C1E0
03E1E0
03E1E0
01F0F0
0078F0
003870
001C38
000C18
000000
000000
000000
000000
003FE0
00E070
01C078
07803C
0F003C
1F003C
1E003C
3C003C
7C003C
7C007C
780078
F80078
F800F8
F000F0
F001E0
F001E0
F003C0
F00780
780600
381C00
1FF000
ENDCHAR
STARTCHAR 020E
ENCODING 526
SWIDTH 660 0
DWIDTH 33 0
BBX 32 44 2 -1
BITMAP
00000780
00003FE0
00007FE0
0000F0F0
0001C070
00018030
00030030
00000000
00000000
00000000
0000FFC0
0007C1E0
000E00F8
003C0078
0078003C
00F0003E
01E0001E
03C0001F
07C0001F
0F80001F
0F80001F
1F00001F
3F00001F
3E00003F
7E00003F
7E00003F
7C00003E
7C00007E
FC00007E
FC00007C
F80000FC
F80000F8
F80000F8
F80001F0
F80003E0
F80003E0
780007C0
7C000F80
3C000F00
3C003E00
1E007C00
0F00F000
07FFC000
01FE0000
ENDCHAR
STARTCHAR 020F
ENCODING 527
SWIDTH 480 0
DWIDTH 24 0
BBX 22 32 1 0
BITMAP
0003F8
000FFC
001FFC
00380C
00300C
006004
004004
000000
000000
000000
000000
003FE0
00E070
01C078
07803C
0F003C
1F003C
1E003C
3C003C
7C003C
7C007C
780078
F80078
F800F8
F000F0
F001E0
F001E0
F003C0
F00780
780600
381C00
1FF000
ENDCHAR
STARTCHAR 0210
ENCODING 528
SWIDTH 620 0
DWIDTH 31 0
BBX 30 43 0 0
BITMAP
001C0C00
003E1E00
003E1E00
001F1E00
000F0F00
00078700
00038700
0001C380
0000E180
00000000
01FFFF00
003FFFE0
001F01F0
001F00F8
001F007C
003E007C
003E007C
003E007C
003C007C
007C007C
007C00F8
007C00F8
00F801F0
00F807E0
00FFFF80
00FFFC00
01F0F800
01F0F800
01F0F800
01E07C00
03E07C00
03E07C00
03E03E00
07C03E00
07C01F00
07C01F00
07801F00
0F800F80
0F800F80
0F800F80
1F8007C0
3FC007E0
FFF007F8
ENDCHAR
STARTCHAR 0211
ENCODING 529
SWIDTH 360 0
DWIDTH 18 0
BBX 18 33 1 1
BITMAP
0E0F00
1F0F00
1F0F00
0F8780
07C780
01C380
00E180
0060C0
000000
000000
000000
000000
0F87C0
7F8FC0
079FC0
0733C0
072000
0F6000
0FC000
0E8000
1F8000
1F0000
1F0000
1E0000
3E0000
3C0000
3C0000
7C0000
780000
780000
780000
F00000
F00000
ENDCHAR
STARTCHAR 0212
ENCODING 530
SWIDTH 620 0
DWIDTH 31 0
BBX 30 43 0 0
BITMAP
00000F00
00003FC0
0000FFE0
0001E1E0
00018060
00030060
00020060
00000000
00000000
00000000
01FFFF00
003FFFE0
001F01F0
001F00F8
001F007C
003E007C
003E007C
003E007C
003C007C
007C007C
007C00F8
007C00F8
00F801F0
00F807E0
00FFFF80
00FFFC00
01F0F800
01F0F800
01F0F800
01E07C00
03E07C00
03E07C00
03E03E00
07C03E00
07C01F00
07C01F00
07801F00
0F800F80
0F800F80
0F800F80
1F8007C0
3FC007E0
FFF007F8
ENDCHAR
STARTCHAR 0213
ENCODING 531
SWIDTH 360 0
DWIDTH 18 0
BBX 19 32 1 0
BITMAP
001FC0
007FE0
00FFE0
01C0E0
018060
030060
020020
000000
000000
000000
000000
0F87C0
7F8FC0
079FC0
0733C0
072000
0F6000
0FC000
0E8000
1F8000
1F0000
1F0000
1E0000
3E0000
3C0000
3C0000
7C0000
780000
780000
780000
F00000
F00000
ENDCHAR
STARTCHAR 0214
ENCODING 532
SWIDTH 700 0
DWIDTH 35 0
BBX 33 44 6 -1
BITMAP
0018180000
003C3C0000
003C3C0000
003E3E0000
001E1E0000
000F0E0000
0007870000
0003870000
0000C30000
0000000000
7FFE01FF80
0FF8007E00
07E0003C00
07C0003800
07C0003800
0FC0003800
0F80003000
0F80003000
0F80007000
1F80006000
1F00006000
1F0000E000
3F0000C000
3E0000C000
3E0000C000
3E0001C000
7E00018000
7C00018000
7C00038000
7C00030000
7C00030000
F800030000
F800060000
F800060000
F800060000
F8000C0000
F8000C0000
F8001C0000
7800380000
7C00700000
3E00E00000
1F83C00000
0FFF800000
01FC000000
ENDCHAR
STARTCHAR 0215
ENCODING 533
SWIDTH 480 0
DWIDTH 24 0
BBX 21 33 2 1
BITMAP
0383C0
07C3C0
07C3C0
03E1E0
00F1E0
0070E0
003870
001830
000000
000000
000000
000000
0F0078
7F0070
1E00F0
1E00F0
1E01F0
1E01E0
3C01E0
3C03E0
3C03E0
3C07C0
7807C0
780BC0
781F80
781780
702780
F06788
F0CF08
F18F10
F30F20
FE0FC0
FC0F80
ENDCHAR
STARTCHAR 0216
ENCODING 534
SWIDTH 700 0
DWIDTH 35 0
BBX 33 44 6 -1
BITMAP
00003C0000
0001FF0000
0003FF0000
0007870000
000E038000
0008018000
0018018000
0000000000
0000000000
0000000000
7FFE01FF80
0FF8007E00
07E0003C00
07C0003800
07C0003800
0FC0003800
0F80003000
0F80003000
0F80007000
1F80006000
1F00006000
1F0000E000
3F0000C000
3E0000C000
3E0000C000
3E0001C000
7E00018000
7C00018000
7C00038000
7C00030000
7C00030000
F800030000
F800060000
F800060000
F800060000
F8000C0000
F8000C0000
F8001C0000
7800380000
7C00700000
3E00E00000
1F83C00000
0FFF800000
01FC000000
ENDCHAR
STARTCHAR 0217
ENCODING 535
SWIDTH 480 0
DWIDTH 24 0
BBX 21 32 2 0
BITMAP
000FC0
003FE0
007FF0
00E070
01C030
018030
010030
000000
000000
000000
000000
0F0078
7F0070
1E00F0
1E00F0
1E01F0
1E01E0
3C01E0
3C03E0
3C03E0
3C07C0
7807C0
780BC0
781F80
781780
702780
F06788
F0CF08
F18F10
F30F20
FE0FC0
FC0F80
ENDCHAR
STARTCHAR 0218
ENCODING 536
SWIDTH 460 0
DWIDTH 23 0
BBX 25 49 0 -15
BITMAP
00000080
003FF180
00783F80
00F00F00
01E00700
01E00700
03C00700
03C00300
03C00200
03E00200
03E00000
03F00000
01F80000
01F80000
00FC0000
007E0000
003F0000
001F8000
000FC000
000FE000
0007E000
0003F000
0001F000
0001F000
2000F000
2000F000
2000F000
6000F000
6000F000
7001E000
7801E000
7803C000
7E078000
EFFF0000
81FC0000
00000000
00000000
00000000
00F00000
00F80000
00F80000
00780000
00780000
00380000
00300000
00600000
00C00000
01800000
03000000
ENDCHAR
STARTCHAR 0219
ENCODING 537
SWIDTH 340 0
DWIDTH 17 0
BBX 18 37 0 -15
BITMAP
000040
01FFC0
0383C0
0781C0
078180
078080
078080
07C000
03E000
03E000
01F000
00F800
00FC00
007C00
003E00
403E00
401E00
601E00
601C00
F01C00
F03800
FFF000
800000
000000
000000
000000
0F0000
0F8000
0F8000
078000
078000
038000
030000
060000
0C0000
180000
300000
ENDCHAR
STARTCHAR 021A
ENCODING 538
SWIDTH 580 0
DWIDTH 29 0
BBX 28 48 5 -15
BITMAP
3FFFFFF0
3FFFFFF0
780F80E0
700F8060
600F8060
401F0060
C01F0040
801F0040
001F0000
003E0000
003E0000
003E0000
003E0000
007C0000
007C0000
007C0000
00F80000
00F80000
00F80000
00F80000
01F00000
01F00000
01F00000
03E00000
03E00000
03E00000
03E00000
07C00000
07C00000
07C00000
0FC00000
1FE00000
FFFC0000
00000000
00000000
00000000
00000000
1E000000
1F000000
1F000000
0F000000
0F000000
07000000
06000000
0C000000
18000000
30000000
60000000
ENDCHAR
STARTCHAR 021B
ENCODING 539
SWIDTH 240 0
DWIDTH 12 0
BBX 15 41 -1 -15
BITMAP
0010
0030
0070
00E0
03E0
0FFE
1FFE
03C0
03C0
03C0
0380
0780
0780
0780
0700
0F00
0F00
0F00
1E00
1E00
1E00
1C20
3C40
3C80
3F00
3E00
0000
0000
0000
0000
3C00
3E00
3E00
1E00
1E00
0E00
0C00
1800
3000
6000
C000
ENDCHAR
STARTCHAR 021C
ENCODING 540
SWIDTH 440 0
DWIDTH 22 0
BBX 20 35 2 -2
BITMAP
040000
047F80
07FFE0
0FC7E0
0F03F0
0E01F0
0C01F0
0801F0
1801F0
0001E0
0003E0
0003E0
0003C0
000780
000780
000F00
001E00
003E00
007F00
01EF80
0787C0
1E07C0
0007C0
0007C0
0007C0
000F80
000F80
001F00
001E00
003C00
00F800
01E000
07C000
3E0000
F00000
ENDCHAR
STARTCHAR 021D
ENCODING 541
SWIDTH 460 0
DWIDTH 23 0
BBX 19 31 1 -9
BITMAP
08FF80
0BFFC0
0E07E0
1C03E0
1803E0
0003E0
0003E0
0003C0
0007C0
000780
000F00
001E00
003E00
007F80
01E7C0
0787C0
1C03E0
0003E0
0003E0
0003E0
0003E0
0007C0
0007C0
000F80
001F00
003E00
007800
01E000
078000
7E0000
F00000
ENDCHAR
STARTCHAR 021E
ENCODING 542
SWIDTH 700 0
DWIDTH 35 0
BBX 39 43 0 0
BITMAP
0000300380
0000180600
00001C1C00
00000E3800
00000FF000
000007E000
000007C000
0000038000
0000000000
0000000000
01FFF03FFE
007FC007F8
001F0003E0
001F0003E0
001E0003E0
003E0003C0
003E0007C0
003E0007C0
003C0007C0
007C000F80
007C000F80
007C000F80
00F8000F00
00F8001F00
00F8001F00
00FFFFFF00
01FFFFFE00
01F0003E00
01F0003E00
01E0003E00
03E0007C00
03E0007C00
03E0007C00
07C0007800
07C000F800
07C000F800
078000F800
0F8001F000
0F8001F000
0F8001F000
1F8003F000
3FC007F800
FFF03FFF00
ENDCHAR
STARTCHAR 021F
ENCODING 543
SWIDTH 500 0
DWIDTH 25 0
BBX 28 43 1 0
BITMAP
00060030
000700E0
000381C0
0003C380
0001EF00
0001FE00
0000FC00
00007800
00000000
00780000
07F00000
00F00000
00F00000
00E00000
01E00000
01E00000
01E00000
01C00000
03C00000
03C00000
03C00000
03800000
0781F000
0787F800
078E7800
07187800
0F307800
0F607000
0F40F000
1E80F000
1F80F000
1F01E000
1E01E000
3E01E000
3C01C000
3C03C000
3C03C000
7803C000
78038400
78078800
70079000
F007F000
F007C000
ENDCHAR
STARTCHAR 0220
ENCODING 544
SWIDTH 700 0
DWIDTH 35 0
BBX 33 45 0 -11
BITMAP
001F000000
01FF03FE00
003F0FFF00
001F1C3F80
003E701F80
003EC00F80
003F800F80
003F000F80
007C000F80
007C000F80
007C000F80
0078000F80
00F8001F00
00F8001F00
00F8001F00
01F0001F00
01F0003E00
01F0003E00
01F0003E00
03E0003E00
03E0007C00
03E0007C00
03C0007C00
07C0007800
07C000F800
07C000F800
0F8000F800
0F8001F000
0F8001F000
0F0001F000
1F0001F000
1F0003E000
3FC003E000
FFF003E000
000003C000
000007C000
000007C000
000007C000
00000F8000
00000F8000
00000F8000
00000F8000
00001F8000
00003FC000
0000FFF000
ENDCHAR
STARTCHAR 0221
ENCODING 545
SWIDTH 560 0
DWIDTH 28 0
BBX 25 46 2 -12
BITMAP
00000180
00001F80
00007F00
00000F00
00000F00
00000F00
00001E00
00001E00
00001E00
00001E00
00001E00
00003C00
007FBC00
00E0FC00
03C07C00
07807C00
0F003800
1E007800
1E007800
3C007800
7C00F000
7C00F000
7800F000
F800F000
F801F000
F801E000
F801E000
F801E000
FC01E000
FC03E000
7E07C000
7F0FC000
3FFBC000
1FE3C000
0007FC00
000FFE00
007F8300
01C78100
07078180
0C078180
30078100
20078300
00078300
0007C600
0003FC00
0001F000
ENDCHAR
STARTCHAR 0222
ENCODING 546
SWIDTH 540 0
DWIDTH 27 0
BBX 28 34 2 0
BITMAP
007F07E0
01F003F0
07C000F0
07C00070
0F800070
0F800070
0F800070
0F8000E0
0FC000C0
07E00180
07F00700
03F81C00
01FE7800
00FFC000
007FC000
007FF000
01E7F800
0783F800
0E00FC00
1C007C00
3C007C00
78003C00
78003C00
F8003C00
F0003C00
F0003C00
F0003C00
F0007800
F8007000
7800F000
7C01E000
3E078000
1FFF0000
07F80000
ENDCHAR
STARTCHAR 0223
ENCODING 547
SWIDTH 500 0
DWIDTH 25 0
BBX 28 35 1 0
BITMAP
00000080
000003E0
00380FF0
00601BF0
00C00070
01C00030
03C00030
03C00030
03C00060
03C00040
03E00080
03E00300
01F00600
00F81800
00FC6000
007F8000
003F8000
001FC000
00F7E000
03C3F000
0701F000
1E00F000
3C00F000
3C007800
78007000
F8007000
F0007000
F0007000
F0006000
F000E000
F000C000
78018000
78030000
3C060000
0FF80000
ENDCHAR
STARTCHAR 0224
ENCODING 548
SWIDTH 600 0
DWIDTH 30 0
BBX 29 43 1 -10
BITMAP
07FFFFF8
07FFFFF8
078001F0
0E0003E0
0C0007C0
080007C0
18000F80
10001F00
00003E00
00003C00
00007C00
0000F800
0001F000
0003E000
0003E000
0007C000
000F8000
001F0000
001E0000
003E0000
007C0000
00F80000
00F00000
01E00000
03E00000
07C00000
0F800000
0F000000
1F000000
3E000000
7C000000
7FFFFF00
FFFFFFC0
000007C0
000003C0
000003C0
00000380
00000780
00000700
00000E00
00001800
00003000
00006000
ENDCHAR
STARTCHAR 0225
ENCODING 549
SWIDTH 400 0
DWIDTH 20 0
BBX 19 31 1 -10
BITMAP
07FFE0
0FFFC0
0FFF80
0C0180
180300
100600
000C00
001800
001000
002000
004000
00C000
018000
030000
060000
040000
080000
100000
300000
7FF800
FFFF80
0007C0
0003C0
0003C0
000380
000780
000700
000E00
001C00
003000
006000
ENDCHAR
STARTCHAR 0226
ENCODING 550
SWIDTH 660 0
DWIDTH 33 0
BBX 31 40 0 0
BITMAP
00000700
00000F80
00000F80
00000F80
00000700
00000000
00000000
00000C00
00000C00
00001E00
00001E00
00003E00
00003E00
00007E00
0000DE00
0000DF00
00019F00
00019F00
00031F00
00061F00
00060F00
000C0F80
000C0F80
00180F80
00380F80
00300F80
00600780
007FFFC0
00FFFFC0
01C007C0
018007C0
038007C0
030003C0
070003E0
0E0003E0
0E0003E0
1C0003E0
3C0003F0
7E0007F0
FF803FFE
ENDCHAR
STARTCHAR 0227
ENCODING 551
SWIDTH 500 0
DWIDTH 25 0
BBX 23 30 1 -1
BITMAP
000100
0003C0
0007C0
0007C0
0003C0
000000
000000
000000
000000
003F9C
00F05C
01C07C
038078
078078
0F0078
1E0070
1E0070
3C00F0
3C00F0
7800E0
7801E0
F801E0
F003E0
F007C0
F005C0
F00BC6
F813CC
FC63D8
7FC3F0
3F83E0
ENDCHAR
STARTCHAR 0228
ENCODING 552
SWIDTH 580 0
DWIDTH 29 0
BBX 31 44 0 -11
BITMAP
03FFFFFE
003FFFFE
003F000E
003E0006
003E0004
003E0004
003E0004
007C0000
007C0000
007C0000
007C0100
00F80300
00F80200
00F80600
00FFFE00
01FFFE00
01F01C00
01F00C00
03E00C00
03E00C00
03E00800
03C00000
07C00000
07C00000
07C00010
0F800030
0F800030
0F800060
0F8000E0
1F0003C0
1F800FC0
3FFFFFC0
FFFFFF80
00600000
00600000
00C00000
01F00000
01FC0000
003C0000
001E0000
001E0000
001C0000
0FF80000
03F00000
ENDCHAR
STARTCHAR 0229
ENCODING 553
SWIDTH 400 0
DWIDTH 20 0
BBX 19 32 1 -10
BITMAP
001FC0
0070E0
01E0E0
03C0E0
0780E0
0F01E0
1E03C0
3E0780
3C0F00
7C3C00
7DF000
FF0000
F80000
F80000
F00000
F00000
F80080
F80300
7C0600
3FF800
1FF000
060000
0E0000
0C0000
1A0000
3FC000
23C000
01E000
01E000
01C000
FF8000
7E0000
ENDCHAR
STARTCHAR 022A
ENCODING 554
SWIDTH 660 0
DWIDTH 33 0
BBX 32 47 2 -1
BITMAP
0001FFFC
0001FFFC
0001FFFC
00000000
00000000
00000000
0000C030
0001E078
0001F07C
0001F07C
0001E078
00000000
00000000
0000FFC0
0007C1E0
000E00F8
003C0078
0078003C
00F0003E
01E0001E
03C0001F
07C0001F
0F80001F
0F80001F
1F00001F
3F00001F
3E00003F
7E00003F
7E00003F
7C00003E
7C00007E
FC00007E
FC00007C
F80000FC
F80000F8
F80000F8
F80001F0
F80003E0
F80003E0
780007C0
7C000F80
3C000F00
3C003E00
1E007C00
0F00F000
07FFC000
01FE0000
ENDCHAR
STARTCHAR 022B
ENCODING 555
SWIDTH 480 0
DWIDTH 24 0
BBX 25 36 1 0
BITMAP
003FFF80
003FFF80
00000000
00000000
00000000
00000000
00100400
003C0F00
007C1F00
007C1F00
003C0F00
00000000
00000000
00000000
00000000
003FE000
00E07000
01C07800
07803C00
0F003C00
1F003C00
1E003C00
3C003C00
7C003C00
7C007C00
78007800
F8007800
F800F800
F000F000
F001E000
F001E000
F003C000
F0078000
78060000
381C0000
1FF00000
ENDCHAR
STARTCHAR 022C
ENCODING 556
SWIDTH 660 0
DWIDTH 33 0
BBX 32 47 2 -1
BITMAP
0000FFFE
0000FFFE
0000FFFE
00000000
00000000
00000000
00000006
0000FE0C
0001FF98
00033FF0
000607E0
00000000
00000000
0000FFC0
0007C1E0
000E00F8
003C0078
0078003C
00F0003E
01E0001E
03C0001F
07C0001F
0F80001F
0F80001F
1F00001F
3F00001F
3E00003F
7E00003F
7E00003F
7C00003E
7C00007E
FC00007E
FC00007C
F80000FC
F80000F8
F80000F8
F80001F0
F80003E0
F80003E0
780007C0
7C000F80
3C000F00
3C003E00
1E007C00
0F00F000
07FFC000
01FE0000
ENDCHAR
STARTCHAR 022D
ENCODING 557
SWIDTH 480 0
DWIDTH 24 0
BBX 25 36 1 0
BITMAP
003FFF80
003FFF80
00000000
00000000
00000000
00000000
000F0180
003FC300
007FFE00
00C3FC00
0100F000
00000000
00000000
00000000
00000000
003FE000
00E07000
01C07800
07803C00
0F003C00
1F003C00
1E003C00
3C003C00
7C003C00
7C007C00
78007800
F8007800
F800F800
F000F000
F001E000
F001E000
F003C000
F0078000
78060000
381C0000
1FF00000
ENDCHAR
STARTCHAR 022E
ENCODING 558
SWIDTH 660 0
DWIDTH 33 0
BBX 32 41 2 -1
BITMAP
00000E00
00001F00
00001F00
00001F00
00000E00
00000000
00000000
0000FFC0
0007C1E0
000E00F8
003C0078
0078003C
00F0003E
01E0001E
03C0001F
07C0001F
0F80001F
0F80001F
1F00001F
3F00001F
3E00003F
7E00003F
7E00003F
7C00003E
7C00007E
FC00007E
FC00007C
F80000FC
F80000F8
F80000F8
F80001F0
F80003E0
F80003E0
780007C0
7C000F80
3C000F00
3C003E00
1E007C00
0F00F000
07FFC000
01FE0000
ENDCHAR
STARTCHAR 022F
ENCODING 559
SWIDTH 480 0
DWIDTH 24 0
BBX 22 30 1 0
BITMAP
000080
0003C0
0003E0
0003E0
0003C0
000000
000000
000000
000000
003FE0
00E070
01C078
07803C
0F003C
1F003C
1E003C
3C003C
7C003C
7C007C
780078
F80078
F800F8
F000F0
F001E0
F001E0
F003C0
F00780
780600
381C00
1FF000
ENDCHAR
STARTCHAR 0230
ENCODING 560
SWIDTH 660 0
DWIDTH 33 0
BBX 32 47 2 -1
BITMAP
0001FFFC
0001FFFC
0001FFFC
00000000
00000000
00000000
00000E00
00001F00
00001F00
00001F00
00000E00
00000000
00000000
0000FFC0
0007C1E0
000E00F8
003C0078
0078003C
00F0003E
01E0001E
03C0001F
07C0001F
0F80001F
0F80001F
1F00001F
3F00001F
3E00003F
7E00003F
7E00003F
7C00003E
7C00007E
FC00007E
FC00007C
F80000FC
F80000F8
F80000F8
F80001F0
F80003E0
F80003E0
780007C0
7C000F80
3C000F00
3C003E00
1E007C00
0F00F000
07FFC000
01FE0000
ENDCHAR
STARTCHAR 0231
ENCODING 561
SWIDTH 480 0
DWIDTH 24 0
BBX 25 36 1 0
BITMAP
003FFF80
003FFF80
00000000
00000000
00000000
00000000
00008000
0003C000
0003E000
0003E000
0003C000
00000000
00000000
00000000
00000000
003FE000
00E07000
01C07800
07803C00
0F003C00
1F003C00
1E003C00
3C003C00
7C003C00
7C007C00
78007800
F8007800
F800F800
F000F000
F001E000
F001E000
F003C000
F0078000
78060000
381C0000
1FF00000
ENDCHAR
STARTCHAR 0232
ENCODING 562
SWIDTH 600 0
DWIDTH 30 0
BBX 27 40 6 0
BITMAP
01FFFC00
01FFFC00
00000000
00000000
00000000
00000000
00000000
FFF03FE0
3FC00FC0
1F800780
0F800700
0F800E00
0F800E00
07801C00
07C03800
07C03000
03C06000
03C0E000
03E1C000
03E38000
01E30000
01F60000
01FE0000
00FC0000
00F80000
00F80000
01F00000
01F00000
01F00000
01E00000
03E00000
03E00000
03E00000
07C00000
07C00000
07C00000
0FC00000
0FC00000
3FC00000
FFFC0000
ENDCHAR
STARTCHAR 0233
ENCODING 563
SWIDTH 460 0
DWIDTH 23 0
BBX 22 40 1 -10
BITMAP
01FFFC
01FFFC
03FFF8
000000
000000
000000
000000
000000
000000
1F8038
2FC03C
03C03C
01E01C
01E00C
01E008
00F008
00F018
00F010
007830
007820
007860
007840
0038C0
003880
003D80
003D00
003E00
001E00
001C00
001800
001800
003000
002000
004000
00C000
018000
430000
FE0000
FC0000
F00000
ENDCHAR
STARTCHAR 0234
ENCODING 564
SWIDTH 340 0
DWIDTH 17 0
BBX 18 49 -4 -15
BITMAP
0003C0
003F80
000780
000780
000780
000700
000700
000F00
000F00
000E00
001E00
001E00
001E00
001C00
003C00
003C00
003C00
003800
007800
007800
007800
007000
00F000
00F000
00F000
00E000
01E000
01E000
01E000
01C000
03C000
03C000
03C000
078000
079F00
07F180
0780C0
070040
070040
070040
0F0040
0F0080
130180
318300
20FC00
400000
C00000
800000
800000
ENDCHAR
STARTCHAR 0235
ENCODING 565
SWIDTH 520 0
DWIDTH 26 0
BBX 24 33 1 -11
BITMAP
0781F0
3F87F8
078E78
079878
071078
0F2070
0F40F0
0EC0F0
1E80F0
1F00E0
1F01E0
3E01E0
3C01E0
3C01C0
3C03C0
7803C0
7803C0
780780
F00780
F00780
F00700
0007C0
001FFC
007F0E
00EF02
038F03
060F03
0C0F02
180F06
300F06
000F1C
0007F8
0003E0
ENDCHAR
STARTCHAR 0236
ENCODING 566
SWIDTH 380 0
DWIDTH 19 0
BBX 19 44 -2 -15
BITMAP
000100
000300
000600
000E00
001E00
003E00
007FE0
01FFE0
003C00
003C00
007C00
007800
007800
007800
007800
00F800
00F000
00F000
00F000
01F000
01E000
01E000
01E000
01E000
03E000
03C000
03C000
03C000
03C000
07CF80
07F0C0
07C060
078020
078020
070020
0F0020
0F8040
1380C0
31C180
20FE00
400000
C00000
800000
800000
ENDCHAR
STARTCHAR 0237
ENCODING 567
SWIDTH 280 0
DWIDTH 14 0
BBX 18 31 -6 -9
BITMAP
0007C0
003FC0
0007C0
000380
000780
000780
000780
000700
000F00
000F00
000F00
000E00
001E00
001E00
001E00
001C00
003C00
003C00
003C00
003800
007800
007800
007000
007000
00F000
00E000
40E000
E1C000
E18000
E38000
7E0000
ENDCHAR
STARTCHAR 0238
ENCODING 568
SWIDTH 780 0
DWIDTH 39 0
BBX 37 34 1 0
BITMAP
000001C000
00000F8000
00007F8000
00000F8000
00000F8000
00000F0000
00000F0000
00000F0000
00000F0000
00001F0000
00001E0000
00001E0000
003FDE3FC0
00E0FEFFE0
03C07FFFF0
07803F87F0
0F003E01F8
1E003C01F8
1E003C00F8
3C007800F8
3C007800F8
7C007800F8
78007800F8
F800F800F8
F800F000F0
F800F001F0
F800F001E0
F800F001E0
F801F003C0
FC01E00780
7E03E00700
7F0DE00E00
3FF9F83800
1FF07FE000
ENDCHAR
STARTCHAR 0239
ENCODING 569
SWIDTH 760 0
DWIDTH 38 0
BBX 37 34 1 -11
BITMAP
001F820F80
007FEE3FC0
01E07EFFE0
03803FC7F0
07003F01F8
0F003E01F8
1E003C00F8
3E003C00F8
3C003C00F8
7C007800F8
7C007800F8
78007800F8
F8007800F0
F800F801F0
F800F001E0
F800F001E0
F800F003C0
FC00F003C0
FC01F00780
7E03F00F00
7FFDF01E00
3FF9FC3C00
1FE1EFF000
0003E00000
0003C00000
0003C00000
0003C00000
0003C00000
0007800000
0007800000
0007800000
000F800000
001FC00000
00FFF80000
ENDCHAR
STARTCHAR 023A
ENCODING 570
SWIDTH 660 0
DWIDTH 33 0
BBX 33 40 -1 -4
BITMAP
0000000180
0000000300
0000000700
0000040600
00000E0C00
00000E1C00
00001E1800
00003E3000
00003E6000
00007EE000
00007FC000
0000DF8000
00019F8000
00019F0000
00030F0000
00030F0000
00061F8000
000E1F8000
000C3F8000
00187F8000
0018678000
0030C78000
0031C7C000
007FFFC000
00FFFFC000
00C707C000
01C603C000
018C03C000
039803E000
073803E000
063003E000
0E6003E000
1EC003E000
1FC003F000
3F8007F000
FF801FFE00
0700000000
0600000000
0C00000000
1C00000000
ENDCHAR
STARTCHAR 023B
ENCODING 571
SWIDTH 620 0
DWIDTH 31 0
BBX 33 40 1 -4
BITMAP
0000000C00
0000001800
0000043800
0000FFF180
0007F9FF80
001F80FF00
003E01CF00
007C018F00
00F8030700
01F0070700
03E00E0200
07C00C0200
0F80180200
0F80380000
1F00700000
1F00600000
3F00C00000
3E01C00000
3E01800000
7E03000000
7C07000000
7C0E000000
7C0C000000
7C18000000
7C38000000
7C70000000
7C60000000
7CC0000000
3FC0000000
3F80001000
3F00006000
1F0000C000
0F80018000
0FC0070000
1FF83E0000
39FFF80000
303FC00000
6000000000
E000000000
C000000000
ENDCHAR
STARTCHAR 023C
ENCODING 572
SWIDTH 400 0
DWIDTH 20 0
BBX 24 27 -1 -3
BITMAP
000007
000006
00008C
001FF8
003838
00E07C
01C0FC
0380F8
078190
0F0300
0F0600
1E0E00
1E1C00
3E1800
3E3000
3C6000
3CC000
3DC000
3F8000
3F0060
1E00C0
1F0180
1FCE00
3FFC00
700000
600000
C00000
ENDCHAR
STARTCHAR 023D
ENCODING 573
SWIDTH 560 0
DWIDTH 28 0
BBX 28 33 0 0
BITMAP
01FFF800
007FC000
001F8000
001F0000
001F0000
003E0000
003E0000
003E0000
003C0000
007C0000
007C0000
007C0000
00F80000
00F80000
00F80000
0FFFF000
1FFFE000
01F00000
01F00000
01E00000
03E00000
03E00000
03E00000
07C00000
07C00010
07C00030
07800060
0F800060
0F8000E0
0F8001C0
1F800FC0
3FFFFFC0
FFFFFF80
ENDCHAR
STARTCHAR 023E
ENCODING 574
SWIDTH 560 0
DWIDTH 28 0
BBX 35 38 -2 -2
BITMAP
0000000060
00000000C0
0000000180
01FFFFFFC0
01FFFFFFC0
03C07C0FC0
03807C1D80
03007C3980
02007C7180
0600F86100
0400F8C100
0000F98000
0000FB0000
0001F60000
0001FE0000
0001FC0000
0003F80000
0003F00000
0003E00000
0003E00000
0007C00000
0007C00000
0007C00000
000F800000
001F800000
001F800000
003F800000
007F000000
00DF000000
01DF000000
039E000000
073E000000
063E000000
0C7E000000
18FF000000
37FFF00000
7000000000
E000000000
ENDCHAR
STARTCHAR 023F
ENCODING 575
SWIDTH 340 0
DWIDTH 17 0
BBX 18 32 0 -10
BITMAP
000040
01FFC0
0383C0
0781C0
078180
078080
078080
07C000
03E000
03F000
01F800
01F800
00FC00
007C00
003E00
403E00
401E00
601E00
601C00
E01C00
F03800
FFF000
8C0000
0C0000
080000
080000
080000
081C00
0C3C00
043C00
063800
03E000
ENDCHAR
STARTCHAR 0240
ENCODING 576
SWIDTH 420 0
DWIDTH 21 0
BBX 24 33 0 -10
BITMAP
03FFFF
03FFFE
03007E
0200FC
0600F8
0401F0
0003E0
0007C0
000F80
001F00
003E00
007E00
007C00
00F800
01F000
03E000
07C000
0F8000
1F0000
1F0000
3E0000
7C0000
FF0000
038000
00C000
00C000
006000
006000
0021C0
0033C0
0033C0
001F80
000F00
ENDCHAR
STARTCHAR 0241
ENCODING 577
SWIDTH 440 0
DWIDTH 22 0
BBX 18 33 5 1
BITMAP
07FC00
1F0F00
3E0380
7C0380
7C01C0
7801C0
0001C0
0001C0
0001C0
0001C0
0003C0
0003C0
0003C0
0007C0
000780
000F00
001F00
003E00
00FC00
1FF800
1FF000
3F8000
3C0000
3C0000
380000
780000
780000
780000
700000
700000
F00000
F00000
F00000
ENDCHAR
STARTCHAR 0242
ENCODING 578
SWIDTH 440 0
DWIDTH 22 0
BBX 18 23 4 0
BITMAP
07F000
1FFE00
7C0F00
F80780
F80380
F00380
0003C0
0003C0
000380
000780
000780
000F00
001F00
007E00
1FFC00
1FF000
1FC000
1E0000
3E0000
3C0000
3C0000
3C0000
3C0000
ENDCHAR
STARTCHAR 0243
ENCODING 579
SWIDTH 580 0
DWIDTH 29 0
BBX 29 33 0 0
BITMAP
03FFFF00
007FFFC0
003F03E0
003F01F0
003E00F8
003E00F8
003E00F8
007E00F8
007C00F8
007C00F8
007C01F0
00F801F0
00F803E0
00F80F80
00FFFE00
01FFFC00
01F03E00
01F00F80
03E007C0
03E007C0
3FFFC3E0
3FFFC3E0
07C003E0
07C003E0
07C003E0
0F8003E0
0F8007E0
0F8007C0
0F800F80
1F801F00
1F807E00
3FFFF800
FFFFC000
ENDCHAR
STARTCHAR 0244
ENCODING 580
SWIDTH 720 0
DWIDTH 36 0
BBX 35 34 3 -1
BITMAP
1FFF807FE0
03FE000FC0
01F8000700
01F8000700
01F0000600
01F0000E00
01F0000E00
03E0000C00
03E0000C00
03E0001C00
03C0001C00
07C0001800
07C0001800
07C0003800
0F80003000
FFFFFFFF80
FFFFFFFF80
0F00006000
1F00006000
1F00006000
1F0000E000
1E0000C000
3E0000C000
3E0000C000
3E00018000
3E00018000
3E00030000
3E00030000
1E00060000
1F000E0000
0F803C0000
07E0F80000
03FFE00000
007F800000
ENDCHAR
STARTCHAR 0245
ENCODING 581
SWIDTH 660 0
DWIDTH 33 0
BBX 31 34 -1 0
BITMAP
00000004
0000000C
0000001C
0000003C
00000078
000000F8
000000F8
000001F8
00000378
00000678
00000C78
00000CF8
000018F8
000030F8
000060F8
0000E0F8
0001C0F8
000180F8
000300F8
000600F8
000E00F8
001C00F8
003800F8
003000F0
006000F0
00E000F0
01C001F0
038001F0
030001F0
070001F0
0E0001F0
1E0001F0
3E0003F8
FFC01FFE
ENDCHAR
STARTCHAR 0246
ENCODING 582
SWIDTH 600 0
DWIDTH 30 0
BBX 32 41 0 -4
BITMAP
0000000C
0000001C
00000018
00000030
03FFFFFF
007FFFFE
003F00DE
003F01C6
003E0186
003E0386
003E0304
007E0604
007C0E00
007C0C00
007C1900
00F81B00
00F83200
00F87600
00F86E00
01FFFE00
01FFFC00
01F1DC00
03E38C00
03E30C00
03E70800
03EE0800
07CC0000
07DC0000
07F80000
0FB00010
0FF00030
0FE00060
0FE000E0
1FC001C0
1F8007C0
3FFFFFC0
FFFFFF80
06000000
0C000000
1C000000
18000000
ENDCHAR
STARTCHAR 0247
ENCODING 583
SWIDTH 400 0
DWIDTH 20 0
BBX 20 29 0 -3
BITMAP
000030
000070
000060
0000E0
0007E0
003DF0
0073F0
01E770
03C670
078EF0
079CE0
0F19E0
1E3B80
1E7F00
3E7C00
3DF000
7FC000
7D8000
7B8000
7F0000
7E0000
7E00C0
7C0180
3E0700
3FFC00
3FF000
600000
E00000
C00000
ENDCHAR
ENDFONT
